{"glyphs":{"0":{"ha":831,"x_min":0,"x_max":0,"o":"m 744 546 b 653 997 744 794 718 914 b 415 1099 600 1063 524 1099 b 179 997 307 1099 231 1063 b 88 546 113 914 88 794 b 179 96 88 297 113 178 b 415 -7 231 29 307 -7 b 653 96 524 -7 600 29 b 744 546 718 178 744 297 z m 714 546 b 626 113 714 307 685 185 b 415 21 582 57 507 21 b 204 113 324 21 249 57 b 118 546 147 185 118 307 b 204 979 118 785 147 907 b 415 1071 249 1035 324 1071 b 626 979 507 1071 582 1035 b 714 546 685 907 714 785 z "},"1":{"ha":831,"x_min":0,"x_max":0,"o":"m 524 11 l 524 1081 l 493 1081 l 197 947 l 197 914 l 493 1047 l 493 11 z "},"2":{"ha":831,"x_min":0,"x_max":0,"o":"m 719 792 b 417 1099 719 956 617 1099 b 114 792 217 1099 114 956 l 114 761 l 146 761 l 146 790 b 417 1071 146 944 240 1071 b 689 790 594 1071 689 944 b 589 558 689 710 660 639 l 131 39 l 131 11 l 735 11 l 735 39 l 169 39 l 611 540 b 719 792 693 633 719 700 z "},"3":{"ha":831,"x_min":0,"x_max":0,"o":"m 701 294 b 413 21 701 129 582 21 b 124 314 243 21 124 131 l 124 318 l 93 318 l 93 314 b 413 -7 93 117 219 -7 b 732 299 606 -7 732 113 b 514 581 732 461 640 563 b 700 833 632 604 700 703 b 413 1099 700 981 590 1099 b 125 833 235 1099 125 981 l 125 807 l 156 807 l 156 833 b 413 1071 156 971 253 1071 b 669 833 574 1071 669 971 b 435 594 669 713 597 594 l 325 594 l 325 567 l 426 567 b 701 294 604 567 701 458 z "},"4":{"ha":831,"x_min":0,"x_max":0,"o":"m 131 304 l 575 1025 l 575 304 z m 764 304 l 606 304 l 606 1081 l 575 1081 l 96 304 l 96 276 l 575 276 l 575 11 l 606 11 l 606 276 l 764 276 z "},"5":{"ha":831,"x_min":0,"x_max":0,"o":"m 117 286 b 424 -7 136 104 242 -7 b 733 349 617 -7 733 122 b 424 704 733 575 617 704 b 185 563 311 704 229 651 l 210 1053 l 675 1053 l 675 1081 l 179 1081 l 151 500 l 182 500 b 424 678 225 618 314 678 b 703 349 604 678 703 557 b 424 21 703 142 604 21 b 147 286 265 21 167 113 z "},"6":{"ha":831,"x_min":0,"x_max":0,"o":"m 706 846 b 419 1099 686 1017 576 1099 b 200 1000 324 1099 250 1068 b 107 449 126 899 107 744 b 179 108 107 286 121 190 b 425 -7 233 32 318 -7 b 740 349 619 -7 740 129 b 425 704 740 569 619 704 b 139 506 281 704 178 625 b 229 988 139 744 161 899 b 419 1071 274 1044 342 1071 b 672 846 549 1071 653 1006 z m 425 21 b 139 349 256 21 139 142 b 425 678 139 557 256 678 b 711 349 594 678 711 557 b 425 21 711 142 594 21 z "},"7":{"ha":831,"x_min":0,"x_max":0,"o":"m 114 1053 l 685 1053 l 285 11 l 318 11 l 718 1053 l 718 1081 l 114 1081 z "},"8":{"ha":831,"x_min":0,"x_max":0,"o":"m 415 1099 b 113 831 232 1099 113 992 b 311 575 113 703 188 607 b 81 290 171 546 81 442 b 415 -7 81 101 214 -7 b 750 290 617 -7 750 101 b 519 575 750 442 660 546 b 718 831 643 607 718 703 b 415 1099 718 992 599 1099 z m 415 589 b 143 831 257 589 143 682 b 415 1071 143 978 257 1071 b 688 831 575 1071 688 978 b 415 589 688 682 575 589 z m 415 21 b 111 290 239 21 111 118 b 415 561 111 464 239 561 b 719 290 593 561 719 464 b 415 21 719 118 593 21 z "},"9":{"ha":831,"x_min":0,"x_max":0,"o":"m 125 246 b 411 -7 146 75 256 -7 b 631 92 507 -7 581 24 b 724 643 704 193 724 347 b 653 983 724 806 711 901 b 407 1099 597 1060 514 1099 b 90 743 213 1099 90 963 b 407 388 90 524 213 388 b 692 586 550 388 654 467 b 601 104 692 347 671 193 b 411 21 558 47 489 21 b 158 246 283 21 179 86 z m 407 1071 b 692 743 576 1071 692 950 b 407 414 692 535 576 414 b 121 743 236 414 121 535 b 407 1071 121 950 236 1071 z "}," ":{"ha":397,"x_min":0,"x_max":0,"o":""},"!":{"ha":403,"x_min":0,"x_max":0,"o":"m 219 1081 l 183 1081 l 186 335 l 217 335 z m 224 133 l 181 133 l 181 11 l 224 11 z "},"\"":{"ha":490,"x_min":0,"x_max":0,"o":"m 178 775 l 178 1081 l 147 1081 l 147 775 z m 344 775 l 344 1081 l 314 1081 l 314 775 z "},"#":{"ha":978,"x_min":0,"x_max":0,"o":"m 769 1081 l 697 743 l 367 743 l 440 1081 l 408 1081 l 335 743 l 113 743 l 113 715 l 329 715 l 256 376 l 61 376 l 61 349 l 249 349 l 176 11 l 208 11 l 281 349 l 611 349 l 538 11 l 569 11 l 643 349 l 865 349 l 865 376 l 650 376 l 722 715 l 917 715 l 917 743 l 729 743 l 801 1081 z m 361 715 l 690 715 l 617 376 l 288 376 z "},"$":{"ha":856,"x_min":0,"x_max":0,"o":"m 435 1214 l 404 1214 l 404 1099 b 92 828 201 1094 92 976 b 344 565 92 685 181 597 l 404 554 l 404 21 b 122 279 224 32 122 143 l 122 317 l 92 317 l 92 279 b 404 -6 92 132 196 6 l 404 -122 l 435 -122 l 435 -7 b 779 279 665 -7 779 125 b 489 565 779 426 693 525 l 435 576 l 435 1071 b 708 828 608 1064 708 965 l 708 797 l 739 797 l 739 828 b 435 1099 739 975 631 1092 z m 435 21 l 435 547 l 481 539 b 749 279 672 500 749 407 b 435 21 749 135 636 21 z m 122 828 b 404 1071 122 969 226 1067 l 404 582 l 351 593 b 122 828 203 622 122 699 z "},"%":{"ha":1171,"x_min":0,"x_max":0,"o":"m 350 11 l 382 11 l 821 1081 l 789 1081 z m 504 810 b 303 1099 504 1017 425 1099 b 101 810 181 1099 101 1017 b 303 521 101 604 181 521 b 504 810 425 521 504 604 z m 474 810 b 303 549 474 613 403 549 b 132 810 201 549 132 613 b 303 1071 132 1007 201 1071 b 474 810 403 1071 474 1007 z m 667 282 b 868 -7 667 75 746 -7 b 1069 282 990 -7 1069 75 b 868 571 1069 488 990 571 b 667 282 746 571 667 488 z m 697 282 b 868 543 697 479 767 543 b 1039 282 968 543 1039 479 b 868 21 1039 85 968 21 b 697 282 767 21 697 85 z "},"&":{"ha":957,"x_min":0,"x_max":0,"o":"m 647 832 l 678 832 l 678 861 b 425 1099 678 1014 579 1099 b 171 861 271 1099 171 1014 b 290 622 171 779 193 718 b 92 292 153 539 92 424 b 419 -7 92 108 218 -7 b 763 161 576 -7 689 53 l 917 11 l 960 11 l 779 188 b 863 542 831 276 858 397 l 832 542 b 756 208 828 406 801 294 l 325 628 b 201 861 224 729 201 786 b 425 1071 201 1000 290 1071 b 647 861 560 1071 647 1000 z m 419 22 b 122 292 242 22 122 128 b 310 603 122 422 181 521 l 740 182 b 419 22 672 78 565 22 z "},"'":{"ha":324,"x_min":0,"x_max":0,"o":"m 178 775 l 178 1081 l 147 1081 l 147 775 z "},"(":{"ha":472,"x_min":0,"x_max":0,"o":"m 147 540 b 435 -153 147 -50 226 -153 l 435 -125 b 178 540 246 -125 178 -24 b 435 1204 178 1104 246 1204 l 435 1232 b 147 540 226 1232 147 1129 z "},")":{"ha":472,"x_min":0,"x_max":0,"o":"m 325 540 b 36 1232 325 1129 246 1232 l 36 1204 b 294 540 226 1204 294 1104 b 36 -125 294 -24 226 -125 l 36 -153 b 325 540 246 -153 325 -50 z "},"*":{"ha":688,"x_min":0,"x_max":0,"o":"m 329 536 l 79 681 l 64 653 l 311 510 l 64 365 l 79 338 l 329 482 l 329 194 l 358 194 l 358 482 l 608 338 l 624 365 l 374 510 l 624 653 l 608 681 l 358 536 l 358 824 l 329 824 z "},"+":{"ha":794,"x_min":0,"x_max":0,"o":"m 92 496 l 382 496 l 382 194 l 413 194 l 413 496 l 703 496 l 703 524 l 413 524 l 413 824 l 382 824 l 382 524 l 92 524 z "},",":{"ha":415,"x_min":0,"x_max":0,"o":"m 126 -165 b 229 6 194 -143 229 -92 l 229 133 l 186 133 l 186 3 b 126 -124 186 -75 165 -106 z "},"-":{"ha":599,"x_min":0,"x_max":0,"o":"m 92 494 l 507 494 l 507 525 l 92 525 z "},".":{"ha":415,"x_min":0,"x_max":0,"o":"m 229 133 l 186 133 l 186 11 l 229 11 z "},"/":{"ha":522,"x_min":0,"x_max":0,"o":"m 522 1207 l 489 1207 l 0 -131 l 33 -131 z "},":":{"ha":415,"x_min":0,"x_max":0,"o":"m 229 133 l 186 133 l 186 11 l 229 11 z m 229 775 l 186 775 l 186 653 l 229 653 z "},";":{"ha":415,"x_min":0,"x_max":0,"o":"m 229 775 l 186 775 l 186 653 l 229 653 z m 126 -165 b 229 6 194 -143 229 -92 l 229 133 l 186 133 l 186 3 b 126 -124 186 -75 165 -106 z "},"<":{"ha":794,"x_min":0,"x_max":0,"o":"m 690 190 l 690 224 l 139 510 l 690 794 l 690 828 l 104 525 l 104 494 z "},"=":{"ha":794,"x_min":0,"x_max":0,"o":"m 92 633 l 703 633 l 703 661 l 92 661 z m 92 358 l 703 358 l 703 385 l 92 385 z "},">":{"ha":794,"x_min":0,"x_max":0,"o":"m 690 494 l 690 525 l 104 828 l 104 794 l 656 510 l 104 224 l 104 190 z "},"?":{"ha":785,"x_min":0,"x_max":0,"o":"m 675 810 b 388 1099 675 969 581 1099 b 101 810 196 1099 101 969 l 101 806 l 132 806 l 132 810 b 388 1071 132 960 221 1071 b 644 810 554 1071 644 960 b 517 565 644 711 614 649 b 365 318 388 457 365 415 l 365 288 l 396 288 l 396 318 b 538 544 396 399 411 440 b 675 810 647 635 675 699 z m 401 133 l 358 133 l 358 11 l 401 11 z "},"@":{"ha":1136,"x_min":0,"x_max":0,"o":"m 711 729 b 413 376 515 729 413 596 b 711 24 413 157 515 24 b 1008 376 906 24 1008 157 l 1008 410 b 568 1099 1008 911 893 1099 b 128 410 243 1099 128 911 b 568 -278 128 -147 286 -278 b 785 -228 646 -278 722 -260 l 774 -199 b 568 -250 715 -232 640 -250 b 158 410 311 -250 158 -136 b 568 1071 158 892 256 1071 b 974 550 844 1071 954 928 b 711 729 935 664 850 729 z m 711 51 b 443 376 539 51 443 165 b 711 701 443 588 539 701 b 978 376 882 701 978 588 b 711 51 978 165 882 51 z "},"A":{"ha":886,"x_min":0,"x_max":0,"o":"m 51 11 l 164 304 l 721 304 l 835 11 l 868 11 l 456 1081 l 431 1081 l 18 11 z m 711 332 l 174 332 l 443 1031 z "},"B":{"ha":901,"x_min":0,"x_max":0,"o":"m 158 574 l 158 1053 l 499 1053 b 769 813 688 1053 769 963 b 499 574 769 664 688 574 z m 504 11 b 831 292 718 11 831 96 b 614 561 831 449 763 536 b 800 815 724 586 800 664 b 504 1081 800 979 704 1081 l 128 1081 l 128 11 z m 800 292 b 497 39 800 136 724 39 l 158 39 l 158 546 l 497 546 b 800 292 724 546 800 449 z "},"C":{"ha":943,"x_min":0,"x_max":0,"o":"m 92 546 b 206 103 92 350 124 197 b 481 -7 271 29 363 -7 b 857 353 708 -7 843 131 l 826 353 b 481 21 811 153 699 21 b 229 121 374 21 288 54 b 122 546 147 217 122 369 b 229 971 122 722 147 874 b 481 1071 288 1038 374 1071 b 826 739 699 1071 811 939 l 857 739 b 481 1099 843 961 708 1099 b 206 989 363 1099 271 1063 b 92 546 124 894 92 742 z "},"D":{"ha":960,"x_min":0,"x_max":0,"o":"m 478 1053 b 731 953 585 1053 674 1019 b 838 546 811 856 838 703 b 731 139 838 389 811 236 b 478 39 674 72 585 39 l 158 39 l 158 1053 z m 128 11 l 478 11 b 753 119 597 11 689 46 b 868 546 838 215 868 368 b 753 972 868 724 838 876 b 478 1081 689 1046 597 1081 l 128 1081 z "},"E":{"ha":782,"x_min":0,"x_max":0,"o":"m 128 11 l 718 11 l 718 39 l 158 39 l 158 546 l 656 546 l 656 574 l 158 574 l 158 1053 l 711 1053 l 711 1081 l 128 1081 z "},"F":{"ha":758,"x_min":0,"x_max":0,"o":"m 128 11 l 158 11 l 158 529 l 656 529 l 656 557 l 158 557 l 158 1053 l 703 1053 l 703 1081 l 128 1081 z "},"G":{"ha":976,"x_min":0,"x_max":0,"o":"m 92 546 b 206 103 92 350 124 197 b 481 -7 271 29 363 -7 b 758 104 600 -7 690 28 b 832 267 804 157 824 210 l 832 11 l 863 11 l 863 531 l 489 531 l 489 503 l 832 503 l 832 414 b 733 121 832 290 786 181 b 481 21 671 53 586 21 b 229 121 374 21 288 54 b 122 546 147 217 122 369 b 229 971 122 722 147 874 b 481 1071 288 1038 374 1071 b 826 739 699 1071 811 939 l 857 739 b 481 1099 843 961 708 1099 b 206 989 363 1099 271 1063 b 92 546 124 894 92 742 z "},"H":{"ha":947,"x_min":0,"x_max":0,"o":"m 789 11 l 819 11 l 819 1081 l 789 1081 l 789 574 l 158 574 l 158 1081 l 128 1081 l 128 11 l 158 11 l 158 546 l 789 546 z "},"I":{"ha":288,"x_min":0,"x_max":0,"o":"m 158 1081 l 128 1081 l 128 11 l 158 11 z "},"J":{"ha":767,"x_min":0,"x_max":0,"o":"m 346 -7 b 644 338 549 -7 644 128 l 644 1081 l 614 1081 l 614 335 b 346 21 614 144 525 21 b 76 335 165 21 76 144 l 76 336 l 46 336 b 346 -7 46 128 142 -7 z "},"K":{"ha":817,"x_min":0,"x_max":0,"o":"m 769 1081 l 731 1081 l 324 574 l 158 574 l 158 1081 l 128 1081 l 128 11 l 158 11 l 158 546 l 324 546 l 778 11 l 817 11 l 351 560 z "},"L":{"ha":740,"x_min":0,"x_max":0,"o":"m 128 11 l 718 11 l 718 39 l 158 39 l 158 1081 l 128 1081 z "},"M":{"ha":1268,"x_min":0,"x_max":0,"o":"m 651 11 l 1110 1010 l 1110 11 l 1140 11 l 1140 1081 l 1110 1081 l 635 43 l 158 1081 l 128 1081 l 128 11 l 158 11 l 158 1010 l 617 11 z "},"N":{"ha":963,"x_min":0,"x_max":0,"o":"m 835 11 l 835 1081 l 804 1081 l 804 64 l 158 1081 l 128 1081 l 128 11 l 158 11 l 158 1028 l 804 11 z "},"O":{"ha":963,"x_min":0,"x_max":0,"o":"m 840 546 b 733 121 840 369 815 217 b 481 21 675 54 589 21 b 229 121 374 21 288 54 b 122 546 147 217 122 369 b 229 971 122 722 147 874 b 481 1071 288 1038 374 1071 b 733 971 589 1071 675 1038 b 840 546 815 874 840 722 z m 92 546 b 206 103 92 350 124 197 b 481 -7 271 29 363 -7 b 756 103 600 -7 692 29 b 871 546 839 197 871 350 b 756 989 871 742 839 894 b 481 1099 692 1063 600 1099 b 206 989 363 1099 271 1063 b 92 546 124 894 92 742 z "},"P":{"ha":885,"x_min":0,"x_max":0,"o":"m 158 469 l 158 1053 l 506 1053 b 800 761 700 1053 800 942 b 506 469 800 581 700 469 z m 501 442 b 831 761 725 442 831 571 b 501 1081 831 953 725 1081 l 128 1081 l 128 11 l 158 11 l 158 442 z "},"Q":{"ha":954,"x_min":0,"x_max":0,"o":"m 92 546 b 206 103 92 350 124 197 b 481 -7 271 29 363 -7 b 756 103 600 -7 692 29 l 904 -24 l 924 0 l 775 128 b 871 546 843 222 871 365 b 756 989 871 742 839 894 b 481 1099 692 1063 600 1099 b 206 989 363 1099 271 1063 b 92 546 124 894 92 742 z m 538 289 l 733 121 b 481 21 675 54 589 21 b 229 121 374 21 288 54 b 122 546 147 217 122 369 b 229 971 122 722 147 874 b 481 1071 288 1038 374 1071 b 733 971 589 1071 675 1038 b 840 546 815 874 840 722 b 751 146 840 383 819 243 l 558 313 z "},"R":{"ha":919,"x_min":0,"x_max":0,"o":"m 838 11 b 819 108 828 36 822 68 l 810 261 b 621 486 800 404 738 465 b 831 776 767 519 831 626 b 507 1081 831 960 732 1081 l 128 1081 l 128 11 l 158 11 l 158 472 l 510 472 b 779 261 690 472 769 406 l 789 108 b 807 11 790 68 797 36 z m 158 500 l 158 1053 l 513 1053 b 800 776 706 1053 800 949 b 513 500 800 604 706 500 z "},"S":{"ha":856,"x_min":0,"x_max":0,"o":"m 435 21 b 122 279 235 21 122 135 l 122 317 l 92 317 l 92 279 b 435 -7 92 125 206 -7 b 779 279 665 -7 779 125 b 489 565 779 426 693 525 l 351 593 b 122 828 203 622 122 699 b 415 1071 122 972 231 1071 b 708 828 600 1071 708 972 l 708 797 l 739 797 l 739 828 b 415 1099 739 982 625 1099 b 92 828 206 1099 92 979 b 344 565 92 685 181 597 l 481 539 b 749 279 672 500 749 407 b 435 21 749 135 636 21 z "},"T":{"ha":764,"x_min":0,"x_max":0,"o":"m 28 1053 l 367 1053 l 367 11 l 397 11 l 397 1053 l 736 1053 l 736 1081 l 28 1081 z "},"U":{"ha":975,"x_min":0,"x_max":0,"o":"m 488 21 b 150 408 242 21 150 167 l 150 1081 l 119 1081 l 119 406 b 488 -7 119 160 221 -7 b 856 406 753 -7 856 160 l 856 1081 l 825 1081 l 825 408 b 488 21 825 167 733 21 z "},"V":{"ha":886,"x_min":0,"x_max":0,"o":"m 51 1081 l 18 1081 l 431 11 l 456 11 l 868 1081 l 835 1081 l 443 61 z "},"W":{"ha":1396,"x_min":0,"x_max":0,"o":"m 685 1081 l 361 64 l 61 1081 l 28 1081 l 344 11 l 374 11 l 699 1028 l 1022 11 l 1053 11 l 1369 1081 l 1335 1081 l 1036 64 l 713 1081 z "},"X":{"ha":872,"x_min":0,"x_max":0,"o":"m 821 1081 l 782 1081 l 435 585 l 90 1081 l 51 1081 l 417 557 l 36 11 l 75 11 l 435 529 l 797 11 l 836 11 l 456 557 z "},"Y":{"ha":874,"x_min":0,"x_max":0,"o":"m 438 460 l 63 1081 l 28 1081 l 422 433 l 422 11 l 453 11 l 453 433 l 846 1081 l 811 1081 z "},"Z":{"ha":792,"x_min":0,"x_max":0,"o":"m 74 39 l 74 11 l 718 11 l 718 39 l 107 39 l 711 1053 l 711 1081 l 89 1081 l 89 1053 l 676 1053 z "},"[":{"ha":499,"x_min":0,"x_max":0,"o":"m 147 -131 l 425 -131 l 425 -104 l 178 -104 l 178 1181 l 425 1181 l 425 1207 l 147 1207 z "},"\\":{"ha":1333,"x_min":0,"x_max":0,"o":"m 653 1081 l 681 1081 l 822 571 l 1090 571 l 1219 1081 l 1254 1081 l 1124 571 l 1303 571 l 1303 543 l 1115 543 l 979 11 l 949 11 l 801 543 l 532 543 l 383 11 l 354 11 l 218 543 l 31 543 l 31 571 l 210 571 l 79 1081 l 113 1081 l 242 571 l 511 571 z m 829 543 l 963 64 l 1083 543 z m 793 571 l 667 1026 l 539 571 z m 249 543 l 371 64 l 504 543 z "},"]":{"ha":499,"x_min":0,"x_max":0,"o":"m 351 1207 l 74 1207 l 74 1181 l 321 1181 l 321 -104 l 74 -104 l 74 -131 l 351 -131 z "},"^":{"ha":611,"x_min":0,"x_max":0,"o":"m 306 1053 l 538 726 l 575 726 l 321 1081 l 290 1081 l 36 726 l 74 726 z "},"_":{"ha":764,"x_min":0,"x_max":0,"o":"m 0 -211 l 764 -211 l 764 -183 l 0 -183 z "},"`":{"ha":486,"x_min":0,"x_max":0,"o":"m 310 881 l 344 881 l 176 1126 l 142 1126 z "},"a":{"ha":774,"x_min":0,"x_max":0,"o":"m 644 236 b 372 21 644 106 556 21 b 101 236 189 21 101 106 b 372 451 101 365 189 451 b 644 236 556 451 644 365 z m 675 519 b 389 793 675 685 575 793 b 106 563 206 793 119 699 l 136 563 b 389 765 149 685 225 765 b 644 525 556 765 644 668 l 644 349 b 369 479 608 429 517 479 b 71 236 172 479 71 382 b 369 -7 71 89 172 -7 b 644 122 517 -7 608 42 l 644 103 b 665 11 644 72 653 33 l 697 11 b 675 117 683 40 675 76 z "},"b":{"ha":810,"x_min":0,"x_max":0,"o":"m 733 393 b 422 793 733 642 638 793 b 140 593 275 793 179 722 l 140 1081 l 110 1081 l 110 11 l 140 11 l 140 193 b 422 -7 179 64 275 -7 b 733 393 638 -7 733 144 z m 703 393 b 422 21 703 153 615 21 b 140 393 228 21 140 153 b 422 765 140 633 228 765 b 703 393 615 765 703 633 z "},"c":{"ha":763,"x_min":0,"x_max":0,"o":"m 76 393 b 388 -7 76 144 172 -7 b 686 247 564 -7 665 89 l 656 247 b 388 21 635 106 546 21 b 107 393 194 21 107 153 b 388 765 107 633 194 765 b 656 539 546 765 635 681 l 686 539 b 388 793 665 697 564 793 b 76 393 172 793 76 642 z "},"d":{"ha":810,"x_min":0,"x_max":0,"o":"m 76 393 b 388 -7 76 144 172 -7 b 669 193 535 -7 631 64 l 669 11 l 700 11 l 700 1081 l 669 1081 l 669 593 b 388 793 631 722 535 793 b 76 393 172 793 76 642 z m 669 393 b 388 21 669 153 582 21 b 107 393 194 21 107 153 b 388 765 107 633 194 765 b 669 393 582 765 669 633 z "},"e":{"ha":776,"x_min":0,"x_max":0,"o":"m 653 228 b 388 21 625 97 536 21 b 107 390 194 21 107 154 l 700 390 l 700 393 b 388 793 700 642 604 793 b 76 393 172 793 76 642 b 388 -7 76 144 172 -7 b 683 228 556 -7 657 83 z m 388 765 b 669 418 575 765 663 639 l 107 418 b 388 765 111 639 200 765 z "},"f":{"ha":481,"x_min":0,"x_max":0,"o":"m 444 1064 l 444 1090 b 381 1092 424 1092 401 1092 b 174 889 225 1092 174 1043 l 174 775 l 56 775 l 56 747 l 174 747 l 174 11 l 204 11 l 204 747 l 444 747 l 444 775 l 204 775 l 204 883 b 379 1064 204 1022 242 1064 z "},"g":{"ha":810,"x_min":0,"x_max":0,"o":"m 669 393 b 388 21 669 153 582 21 b 107 393 194 21 107 153 b 388 765 107 633 194 765 b 669 393 582 765 669 633 z m 126 -124 b 410 -343 143 -250 239 -343 b 700 -44 604 -343 700 -222 l 700 775 l 669 775 l 669 593 b 388 793 631 722 535 793 b 76 393 172 793 76 642 b 388 -7 76 144 172 -7 b 669 193 535 -7 631 64 l 669 -44 b 410 -315 669 -214 575 -315 b 157 -124 265 -315 174 -239 z "},"h":{"ha":808,"x_min":0,"x_max":0,"o":"m 140 11 l 140 399 b 438 765 147 632 271 765 b 672 479 590 765 672 664 l 672 11 l 703 11 l 703 479 b 440 793 703 678 608 793 b 140 558 292 793 182 708 l 140 1081 l 110 1081 l 110 11 z "},"i":{"ha":265,"x_min":0,"x_max":0,"o":"m 149 11 l 149 775 l 118 775 l 118 11 z m 149 958 l 149 1081 l 118 1081 l 118 958 z "},"j":{"ha":265,"x_min":0,"x_max":0,"o":"m 149 775 l 118 775 l 118 -161 b -6 -294 118 -257 74 -294 l -36 -294 l -36 -321 b -4 -322 -28 -322 -17 -322 b 149 -168 88 -322 149 -283 z m 149 958 l 149 1081 l 118 1081 l 118 958 z "},"k":{"ha":656,"x_min":0,"x_max":0,"o":"m 140 11 l 140 396 l 261 396 l 607 11 l 646 11 l 289 410 l 611 775 l 574 775 l 261 424 l 140 424 l 140 1081 l 110 1081 l 110 11 z "},"l":{"ha":265,"x_min":0,"x_max":0,"o":"m 149 11 l 149 1081 l 118 1081 l 118 11 z "},"m":{"ha":1256,"x_min":0,"x_max":0,"o":"m 1118 11 l 1149 11 l 1149 531 b 907 793 1149 701 1060 793 b 644 556 776 793 676 703 b 403 793 636 714 546 793 b 140 556 271 793 178 704 l 140 775 l 110 775 l 110 11 l 140 11 l 140 376 b 400 765 140 626 256 765 b 614 524 538 765 614 683 l 614 11 l 644 11 l 644 376 b 904 765 644 626 760 765 b 1118 524 1042 765 1118 683 z "},"n":{"ha":810,"x_min":0,"x_max":0,"o":"m 140 11 l 140 399 b 438 765 147 632 271 765 b 672 479 590 765 672 664 l 672 11 l 703 11 l 703 479 b 440 793 703 678 608 793 b 140 558 292 793 182 708 l 140 775 l 110 775 l 110 11 z "},"o":{"ha":776,"x_min":0,"x_max":0,"o":"m 700 393 b 388 793 700 642 604 793 b 76 393 172 793 76 642 b 388 -7 76 144 172 -7 b 700 393 604 -7 700 144 z m 669 393 b 388 21 669 153 582 21 b 107 393 194 21 107 153 b 388 765 107 633 194 765 b 669 393 582 765 669 633 z "},"p":{"ha":810,"x_min":0,"x_max":0,"o":"m 733 393 b 422 793 733 642 638 793 b 140 593 275 793 179 722 l 140 775 l 110 775 l 110 -322 l 140 -322 l 140 193 b 422 -7 179 64 275 -7 b 733 393 638 -7 733 144 z m 703 393 b 422 21 703 153 615 21 b 140 393 228 21 140 153 b 422 765 140 633 228 765 b 703 393 615 765 703 633 z "},"q":{"ha":810,"x_min":0,"x_max":0,"o":"m 76 393 b 388 -7 76 144 172 -7 b 669 193 535 -7 631 64 l 669 -322 l 700 -322 l 700 775 l 669 775 l 669 593 b 388 793 631 722 535 793 b 76 393 172 793 76 642 z m 669 393 b 388 21 669 153 582 21 b 107 393 194 21 107 153 b 388 765 107 633 194 765 b 669 393 582 765 669 633 z "},"r":{"ha":463,"x_min":0,"x_max":0,"o":"m 385 764 b 435 760 403 764 424 763 l 435 789 b 383 793 425 792 404 793 b 140 572 258 793 168 724 l 140 775 l 110 775 l 110 11 l 140 11 l 140 393 b 385 764 140 653 233 764 z "},"s":{"ha":699,"x_min":0,"x_max":0,"o":"m 600 597 b 340 793 600 704 508 793 b 81 597 172 793 81 704 b 293 400 81 488 142 429 l 413 378 b 599 206 551 351 599 303 b 353 21 599 90 494 21 b 107 206 211 21 107 90 l 107 235 l 76 235 l 76 206 b 353 -7 76 75 193 -7 b 629 206 514 -7 629 75 b 426 404 629 314 575 376 l 307 426 b 111 596 167 454 111 499 b 340 765 111 694 196 765 b 569 597 486 765 569 694 l 569 565 l 600 565 z "},"t":{"ha":497,"x_min":0,"x_max":0,"o":"m 189 747 l 444 747 l 444 775 l 189 775 l 189 992 l 158 992 l 158 775 l 40 775 l 40 747 l 158 747 l 158 207 b 372 0 158 50 229 0 b 444 1 394 0 417 0 l 444 28 l 371 28 b 189 204 257 28 189 63 z "},"u":{"ha":810,"x_min":0,"x_max":0,"o":"m 138 775 l 107 775 l 107 307 b 369 -7 107 108 201 -7 b 669 228 518 -7 628 78 l 669 11 l 700 11 l 700 775 l 669 775 l 669 388 b 372 21 663 153 539 21 b 138 307 219 21 138 122 z "},"v":{"ha":739,"x_min":0,"x_max":0,"o":"m 354 11 l 385 11 l 706 775 l 671 775 l 369 53 l 69 775 l 33 775 z "},"w":{"ha":1182,"x_min":0,"x_max":0,"o":"m 576 775 l 318 56 l 63 775 l 28 775 l 303 11 l 333 11 l 592 731 l 850 11 l 881 11 l 1156 775 l 1119 775 l 865 56 l 607 775 z "},"x":{"ha":678,"x_min":0,"x_max":0,"o":"m 624 11 l 663 11 l 358 403 l 647 775 l 608 775 l 339 428 l 71 775 l 31 775 l 319 403 l 15 11 l 56 11 l 339 376 z "},"y":{"ha":739,"x_min":0,"x_max":0,"o":"m 272 -189 b 128 -294 236 -276 200 -294 l 108 -294 l 108 -321 b 131 -322 118 -322 118 -322 b 300 -197 214 -322 254 -306 l 706 775 l 671 775 l 369 47 l 69 775 l 33 775 l 353 10 z "},"z":{"ha":663,"x_min":0,"x_max":0,"o":"m 585 775 l 79 775 l 79 747 l 550 747 l 67 39 l 67 11 l 596 11 l 596 39 l 103 39 l 585 747 z "},"{":{"ha":504,"x_min":0,"x_max":0,"o":"m 74 525 l 101 525 b 196 424 163 525 196 488 l 196 114 b 403 -131 196 -65 269 -131 l 431 -131 l 431 -104 l 404 -104 b 226 113 290 -104 226 -54 l 226 422 b 151 539 226 488 199 525 b 226 654 199 551 226 589 l 226 964 b 404 1181 226 1131 290 1181 l 431 1181 l 431 1207 l 403 1207 b 196 963 269 1207 196 1142 l 196 653 b 101 551 196 589 163 551 l 74 551 z "},"|":{"ha":397,"x_min":0,"x_max":0,"o":"m 183 -131 l 214 -131 l 214 1207 l 183 1207 z "},"}":{"ha":504,"x_min":0,"x_max":0,"o":"m 431 551 l 403 551 b 308 653 342 551 308 589 l 308 963 b 101 1207 308 1142 235 1207 l 74 1207 l 74 1181 l 99 1181 b 278 964 214 1181 278 1131 l 278 654 b 353 539 278 589 306 551 b 278 422 306 525 278 488 l 278 113 b 99 -104 278 -54 214 -104 l 74 -104 l 74 -131 l 101 -131 b 308 114 235 -131 308 -65 l 308 424 b 403 525 308 488 342 525 l 431 525 z "},"~":{"ha":794,"x_min":0,"x_max":0,"o":"m 533 393 b 681 618 624 393 681 465 l 650 618 b 533 421 650 483 606 421 b 260 626 386 421 432 626 b 113 403 169 626 113 556 l 143 403 b 260 600 143 536 188 600 b 533 393 407 600 361 393 z "},"　":{"ha":1333,"x_min":0,"x_max":0,"o":""},"…":{"ha":1333,"x_min":0,"x_max":0,"o":"m 688 649 l 688 526 l 644 526 l 644 649 z m 285 649 l 285 526 l 242 526 l 242 649 z m 1090 649 l 1090 526 l 1047 526 l 1047 649 z "},"¨":{"ha":833,"x_min":0,"x_max":0,"o":"m 285 1082 l 285 960 l 242 960 l 242 1082 z m 590 1082 l 590 960 l 547 960 l 547 1082 z "},"〃":{"ha":1333,"x_min":0,"x_max":0,"o":"m 592 907 l 621 897 l 381 257 l 358 265 z m 944 876 l 975 868 l 735 228 l 711 235 z "},"＼":{"ha":1333,"x_min":0,"x_max":0,"o":"m 1276 1 l 1256 -21 l 56 1096 l 74 1115 z "},"‘":{"ha":403,"x_min":0,"x_max":0,"o":"m 289 1197 l 289 1156 b 229 1029 250 1138 229 1107 l 229 899 l 186 899 l 186 1028 b 289 1197 186 1124 221 1175 z "},"’":{"ha":403,"x_min":0,"x_max":0,"o":"m 119 899 l 119 940 b 179 1067 158 958 179 989 l 179 1197 l 222 1197 l 222 1068 b 119 899 222 972 188 919 z "},"“":{"ha":574,"x_min":0,"x_max":0,"o":"m 289 1197 l 289 1156 b 229 1029 250 1138 229 1107 l 229 899 l 186 899 l 186 1028 b 289 1197 186 1124 221 1175 z m 446 1197 l 446 1156 b 386 1029 408 1138 386 1107 l 386 899 l 344 899 l 344 1028 b 446 1197 344 1124 379 1175 z "},"”":{"ha":574,"x_min":0,"x_max":0,"o":"m 126 899 l 126 940 b 186 1067 165 958 186 989 l 186 1197 l 229 1197 l 229 1068 b 126 899 229 972 194 919 z m 285 899 l 285 940 b 344 1067 322 958 344 989 l 344 1197 l 386 1197 l 386 1068 b 285 899 386 972 351 919 z "},"±":{"ha":794,"x_min":0,"x_max":0,"o":"m 92 611 l 92 639 l 382 639 l 382 939 l 413 939 l 413 639 l 703 639 l 703 611 l 413 611 l 413 310 l 382 310 l 382 611 z m 92 81 l 92 108 l 703 108 l 703 81 z "},"×":{"ha":794,"x_min":0,"x_max":0,"o":"m 642 243 l 397 488 l 153 243 l 132 265 l 376 510 l 132 754 l 153 775 l 397 531 l 642 775 l 663 754 l 418 510 l 663 265 z "},"÷":{"ha":794,"x_min":0,"x_max":0,"o":"m 92 496 l 92 524 l 703 524 l 703 496 z m 415 824 l 415 701 l 379 701 l 379 824 z m 415 317 l 415 194 l 379 194 l 379 317 z "},"≠":{"ha":794,"x_min":0,"x_max":0,"o":"m 92 633 l 92 661 l 471 661 l 608 889 l 639 889 l 503 661 l 703 661 l 703 633 l 486 633 l 339 385 l 703 385 l 703 358 l 322 358 l 186 129 l 156 129 l 292 358 l 92 358 l 92 385 l 307 385 l 456 633 z "},"≤":{"ha":794,"x_min":0,"x_max":0,"o":"m 690 306 l 104 610 l 104 640 l 690 943 l 690 910 l 139 625 l 690 339 z m 92 81 l 92 108 l 703 108 l 703 81 z "},"≥":{"ha":794,"x_min":0,"x_max":0,"o":"m 690 610 l 104 306 l 104 339 l 656 625 l 104 910 l 104 943 l 690 640 z m 703 108 l 703 81 l 92 81 l 92 108 z "},"∞":{"ha":1333,"x_min":0,"x_max":0,"o":"m 651 517 b 401 719 588 671 501 719 b 194 517 300 719 194 657 b 401 314 194 376 300 314 b 651 517 501 314 588 363 z m 667 486 b 401 286 613 349 513 286 b 164 517 264 286 164 375 b 401 747 164 658 264 747 b 667 547 513 747 613 685 b 932 747 722 685 821 747 b 1169 517 1071 747 1169 658 b 932 286 1169 375 1071 286 b 667 486 821 286 722 349 z m 682 517 b 932 314 746 363 832 314 b 1139 517 1033 314 1139 376 b 932 719 1139 657 1033 719 b 682 517 832 719 746 671 z "},"∴":{"ha":1333,"x_min":0,"x_max":0,"o":"m 688 940 l 688 818 l 644 818 l 644 940 z m 340 301 l 340 179 l 297 179 l 297 301 z m 1035 301 l 1035 179 l 992 179 l 992 301 z "},"°":{"ha":553,"x_min":0,"x_max":0,"o":"m 479 886 b 276 681 479 767 401 681 b 74 886 151 681 74 767 b 276 1093 74 1006 151 1093 b 479 886 401 1093 479 1006 z m 449 886 b 276 1065 449 997 372 1065 b 104 886 181 1065 104 997 b 276 708 104 776 181 708 b 449 886 372 708 449 776 z "},"′":{"ha":229,"x_min":0,"x_max":0,"o":"m 53 742 l 143 1081 l 176 1081 l 86 742 z "},"″":{"ha":410,"x_min":0,"x_max":0,"o":"m 53 742 l 143 1081 l 176 1081 l 86 742 z m 233 742 l 324 1081 l 356 1081 l 265 742 z "},"℃":{"ha":1333,"x_min":0,"x_max":0,"o":"m 93 900 b 258 735 93 806 164 735 b 424 900 353 735 424 806 b 258 1065 424 994 353 1065 b 93 900 164 1065 93 994 z m 63 900 b 258 1093 63 1006 144 1093 b 454 900 372 1093 454 1006 b 258 707 454 794 372 707 b 63 900 144 707 63 794 z m 508 546 b 640 1008 508 740 540 910 b 890 1099 699 1065 779 1099 b 1260 739 1118 1099 1246 961 l 1229 739 b 890 1071 1214 939 1108 1071 b 660 986 788 1071 713 1039 b 539 546 565 892 539 726 b 661 104 539 363 567 199 b 890 21 714 51 789 21 b 1229 353 1108 21 1214 153 l 1260 353 b 890 -7 1246 131 1118 -7 b 642 82 781 -7 700 25 b 508 546 542 181 508 351 z "},"Å":{"ha":1333,"x_min":0,"x_max":0,"o":"m 275 11 l 242 11 l 644 1054 b 485 1218 553 1064 485 1131 b 667 1383 485 1313 564 1383 b 849 1218 769 1383 849 1313 b 689 1054 849 1131 781 1064 l 1092 11 l 1058 11 l 944 304 l 388 304 z m 935 332 l 667 1031 l 397 332 z m 515 1218 b 667 1081 515 1135 583 1081 b 818 1218 750 1081 818 1135 b 667 1356 818 1301 750 1356 b 515 1218 583 1356 515 1301 z "},"￠":{"ha":1333,"x_min":0,"x_max":0,"o":"m 361 393 b 651 793 361 633 451 782 l 651 911 l 682 911 l 682 793 b 971 539 851 790 950 694 l 940 539 b 682 765 919 678 833 763 l 682 21 b 940 247 833 24 919 108 l 971 247 b 682 -7 950 92 851 -4 l 682 -125 l 651 -125 l 651 -7 b 361 393 451 3 361 151 z m 392 393 b 651 21 392 163 472 29 l 651 764 b 392 393 472 756 392 624 z "},"￡":{"ha":1333,"x_min":0,"x_max":0,"o":"m 357 486 l 357 514 l 436 514 b 392 792 417 592 392 671 b 678 1099 392 960 478 1099 b 964 792 878 1099 964 960 l 964 776 l 933 776 l 933 790 b 678 1071 933 957 850 1071 b 422 790 506 1071 422 957 b 467 514 422 672 446 592 l 810 514 l 810 486 l 475 486 b 494 333 485 439 494 390 b 396 39 494 200 454 107 l 976 39 l 976 11 l 361 11 l 361 39 b 464 333 428 118 464 204 b 443 486 464 390 454 439 z "},"￥":{"ha":1333,"x_min":0,"x_max":0,"o":"m 667 506 l 1040 1081 l 1075 1081 l 715 529 l 943 529 l 943 501 l 697 501 l 682 479 l 682 389 l 943 389 l 943 361 l 682 361 l 682 11 l 651 11 l 651 361 l 390 361 l 390 389 l 651 389 l 651 479 l 636 501 l 390 501 l 390 529 l 617 529 l 257 1081 l 292 1081 z "},"♂":{"ha":1333,"x_min":0,"x_max":0,"o":"m 297 711 l 667 1210 l 1036 711 l 1011 694 l 682 1140 l 682 574 b 996 247 857 567 996 419 b 667 -82 996 67 849 -82 b 340 247 483 -82 340 67 b 651 574 340 421 476 567 l 651 1140 l 324 694 z m 371 246 b 667 -51 371 81 501 -51 b 965 246 832 -51 965 81 b 667 543 965 411 832 543 b 371 246 501 543 371 411 z "},"♀":{"ha":1333,"x_min":0,"x_max":0,"o":"m 286 776 b 667 1153 286 983 457 1153 b 1047 776 876 1153 1047 983 b 682 399 1047 572 883 406 l 682 204 l 900 204 l 900 174 l 682 174 l 682 -62 l 651 -62 l 651 174 l 433 174 l 433 204 l 651 204 l 651 399 b 286 776 449 406 286 572 z m 317 776 b 664 429 317 585 472 429 b 1010 776 854 429 1010 585 b 664 1122 1010 967 854 1122 b 317 776 472 1122 317 967 z "},"∠":{"ha":1333,"x_min":0,"x_max":0,"o":"m 1082 986 l 211 140 l 1185 140 l 1185 113 l 147 113 l 147 118 l 1061 1006 z "},"⊥":{"ha":1333,"x_min":0,"x_max":0,"o":"m 682 132 l 1174 132 l 1174 104 l 158 104 l 158 132 l 650 132 l 650 1039 l 682 1039 z "},"⌒":{"ha":1333,"x_min":0,"x_max":0,"o":"m 47 903 b 667 1172 210 1068 410 1172 b 1286 903 924 1172 1124 1068 l 1268 883 b 667 1142 1108 1042 907 1142 b 65 883 426 1142 226 1042 z "},"∂":{"ha":1333,"x_min":0,"x_max":0,"o":"m 686 704 b 956 506 831 704 928 625 b 965 707 961 581 965 649 b 719 1071 965 972 879 1071 b 450 846 588 1071 496 994 l 418 846 b 724 1099 458 1001 565 1099 b 997 714 901 1099 997 985 b 983 449 997 640 992 551 b 942 217 974 351 965 282 b 622 -7 893 83 782 -7 b 336 299 444 -7 336 108 b 686 704 336 547 479 704 z m 624 21 b 943 394 807 21 943 163 b 685 678 943 574 843 678 b 368 303 501 678 368 539 b 624 21 368 122 468 21 z "},"∇":{"ha":1333,"x_min":0,"x_max":0,"o":"m 242 1081 l 1092 1081 l 679 11 l 654 11 z m 286 1053 l 667 61 l 1047 1053 z "},"≡":{"ha":794,"x_min":0,"x_max":0,"o":"m 92 496 l 92 524 l 703 524 l 703 496 z m 92 725 l 92 751 l 703 751 l 703 725 z m 92 267 l 92 294 l 703 294 l 703 267 z "},"≒":{"ha":794,"x_min":0,"x_max":0,"o":"m 92 619 l 92 647 l 703 647 l 703 619 z m 92 372 l 92 399 l 703 399 l 703 372 z m 254 956 l 254 833 l 211 833 l 211 956 z m 585 183 l 585 61 l 542 61 l 542 183 z "},"§":{"ha":1333,"x_min":0,"x_max":0,"o":"m 385 494 b 538 707 385 589 436 665 b 400 915 440 751 400 818 b 660 1126 400 1038 490 1126 b 919 915 829 1126 919 1038 l 919 899 l 889 899 l 889 915 b 660 1099 889 1028 799 1099 b 431 914 521 1099 431 1028 b 643 700 431 813 486 743 l 722 679 b 949 442 888 635 949 568 b 796 229 949 346 897 271 b 933 21 892 185 933 118 b 674 -189 933 -101 843 -189 b 414 21 504 -189 414 -101 l 414 38 l 444 38 l 444 21 b 674 -161 444 -92 535 -161 b 903 22 813 -161 903 -92 b 690 236 903 125 847 193 l 611 257 b 385 494 446 301 385 369 z m 633 674 b 571 693 611 679 592 685 b 415 494 467 651 415 579 b 619 285 415 383 474 325 l 700 264 b 761 243 721 257 742 250 b 918 442 867 283 918 356 b 713 651 918 554 860 613 z "},"※":{"ha":1333,"x_min":0,"x_max":0,"o":"m 1138 1007 l 685 556 l 1139 100 l 1118 79 l 664 535 l 213 85 l 192 106 l 643 557 l 197 1006 l 218 1028 l 664 578 l 1117 1029 z m 715 992 b 667 943 715 965 696 943 b 618 992 638 943 618 965 b 667 1040 618 1018 638 1040 b 715 992 696 1040 715 1018 z m 1153 551 b 1104 503 1153 525 1133 503 b 1056 551 1075 503 1056 525 b 1104 600 1056 578 1075 600 b 1153 551 1133 600 1153 578 z m 278 551 b 229 503 278 525 258 503 b 181 551 200 503 181 525 b 229 600 181 578 200 600 b 278 551 258 600 278 578 z m 715 117 b 667 68 715 90 696 68 b 618 117 638 68 618 90 b 667 165 618 143 638 165 b 715 117 696 165 715 143 z "},"☆":{"ha":1333,"x_min":0,"x_max":0,"o":"m 508 747 l 664 1194 l 669 1194 l 825 747 l 1282 747 l 1283 738 l 917 460 l 1083 -33 l 1076 -40 l 667 283 l 256 -40 l 246 -33 l 411 454 l 50 738 l 51 747 z m 529 719 l 107 722 l 442 464 l 294 26 l 667 315 l 1040 21 l 883 469 l 1225 724 l 807 719 l 667 1122 z "},"★":{"ha":1333,"x_min":0,"x_max":0,"o":"m 508 747 l 664 1194 l 669 1194 l 825 747 l 1282 747 l 1283 738 l 917 460 l 1083 -33 l 1076 -40 l 667 283 l 256 -40 l 246 -33 l 411 454 l 50 738 l 51 747 z "},"○":{"ha":1333,"x_min":0,"x_max":0,"o":"m 1261 544 b 667 -51 1261 214 996 -51 b 72 544 335 -51 72 214 b 667 1139 72 874 338 1139 b 1261 544 994 1139 1261 872 z m 101 544 b 667 -24 101 229 351 -24 b 1232 544 981 -24 1232 229 b 667 1111 1232 857 981 1111 b 101 544 351 1111 101 857 z "},"●":{"ha":1333,"x_min":0,"x_max":0,"o":"m 1261 544 b 667 -51 1261 214 996 -51 b 72 544 335 -51 72 214 b 667 1139 72 874 338 1139 b 1261 544 994 1139 1261 872 z "},"◎":{"ha":1333,"x_min":0,"x_max":0,"o":"m 1261 544 b 667 -51 1261 214 996 -51 b 72 544 335 -51 72 214 b 667 1139 72 874 338 1139 b 1261 544 994 1139 1261 872 z m 101 544 b 667 -24 101 229 351 -24 b 1232 544 981 -24 1232 229 b 667 1111 1232 857 981 1111 b 101 544 351 1111 101 857 z m 276 549 b 667 143 276 332 447 143 b 1057 549 886 143 1057 332 b 667 954 1057 767 886 954 b 276 549 447 954 276 767 z m 247 549 b 667 982 247 788 432 982 b 1086 549 901 982 1086 788 b 667 115 1086 311 901 115 b 247 549 432 115 247 311 z "},"◇":{"ha":1333,"x_min":0,"x_max":0,"o":"m 667 1196 l 1304 544 l 667 -106 l 29 544 z m 667 1156 l 72 544 l 667 -64 l 1261 544 z "},"◆":{"ha":1333,"x_min":0,"x_max":0,"o":"m 667 1196 l 1304 544 l 667 -106 l 29 544 z "},"□":{"ha":1333,"x_min":0,"x_max":0,"o":"m 1179 39 l 153 39 l 153 1053 l 1179 1053 z m 183 67 l 1149 67 l 1149 1025 l 183 1025 z "},"■":{"ha":1333,"x_min":0,"x_max":0,"o":"m 1179 39 l 153 39 l 153 1053 l 1179 1053 z "},"△":{"ha":1333,"x_min":0,"x_max":0,"o":"m 667 1121 l 1281 63 l 53 63 z m 667 1067 l 101 90 l 1231 90 z "},"▲":{"ha":1333,"x_min":0,"x_max":0,"o":"m 667 1121 l 1281 63 l 53 63 z "},"▽":{"ha":1333,"x_min":0,"x_max":0,"o":"m 1281 1051 l 667 -7 l 53 1051 z m 101 1024 l 667 47 l 1231 1024 z "},"▼":{"ha":1333,"x_min":0,"x_max":0,"o":"m 1281 1051 l 667 -7 l 53 1051 z "},"→":{"ha":1333,"x_min":0,"x_max":0,"o":"m 65 503 l 65 533 l 1115 533 l 1115 631 l 1268 518 l 1115 407 l 1115 503 z "},"←":{"ha":1333,"x_min":0,"x_max":0,"o":"m 1268 533 l 1268 503 l 218 503 l 218 407 l 65 518 l 218 631 l 218 533 z "},"↑":{"ha":1333,"x_min":0,"x_max":0,"o":"m 682 -47 l 651 -47 l 651 1004 l 556 1004 l 667 1157 l 778 1004 l 682 1004 z "},"↓":{"ha":1333,"x_min":0,"x_max":0,"o":"m 651 1157 l 682 1157 l 682 106 l 778 106 l 667 -47 l 556 106 l 651 106 z "},"↔":{"ha":1333,"x_min":0,"x_max":0,"o":"m 218 631 l 218 533 l 1115 533 l 1115 631 l 1268 518 l 1115 407 l 1115 503 l 218 503 l 218 407 l 65 518 z "},"√":{"ha":1333,"x_min":0,"x_max":0,"o":"m 835 1129 l 419 -157 l 389 -157 l 74 414 l 106 414 l 400 -119 l 811 1157 l 1238 1157 l 1238 1129 z "},"∽":{"ha":1333,"x_min":0,"x_max":0,"o":"m 654 525 b 932 747 715 664 821 747 b 1169 517 1071 747 1169 658 b 932 286 1169 375 1071 286 b 775 338 875 286 821 303 l 790 360 b 932 314 833 326 881 314 b 1139 517 1033 314 1139 376 b 932 719 1139 657 1033 719 b 681 511 832 719 736 642 b 401 286 619 368 513 286 b 164 517 264 286 164 375 b 401 747 164 658 264 747 b 542 708 451 747 500 735 l 526 685 b 401 719 488 710 446 719 b 194 517 300 719 194 657 b 401 314 194 376 300 314 b 654 525 501 314 596 392 z "},"∝":{"ha":1333,"x_min":0,"x_max":0,"o":"m 651 517 b 401 719 588 671 501 719 b 194 517 300 719 194 657 b 401 314 194 376 300 314 b 651 517 501 314 588 363 z m 1069 358 l 1086 335 b 932 286 1046 304 993 286 b 667 486 821 286 722 349 b 401 286 613 349 513 286 b 164 517 264 286 164 375 b 401 747 164 658 264 747 b 667 547 513 747 613 685 b 932 747 722 685 821 747 b 1072 708 986 747 1033 733 l 1057 683 b 932 719 1021 708 976 719 b 682 517 832 719 746 671 b 932 314 746 363 832 314 b 1069 358 981 314 1031 328 z "},"∵":{"ha":1333,"x_min":0,"x_max":0,"o":"m 688 301 l 688 179 l 644 179 l 644 301 z m 340 940 l 340 818 l 297 818 l 297 940 z m 1035 940 l 1035 818 l 992 818 l 992 940 z "},"∫":{"ha":1333,"x_min":0,"x_max":0,"o":"m 411 -128 l 476 -128 b 650 53 614 -128 650 -86 l 650 1000 b 857 1201 650 1153 701 1201 b 921 1200 878 1201 900 1201 l 921 1174 l 856 1174 b 681 993 718 1174 681 1132 l 681 46 b 475 -154 681 -107 631 -154 b 411 -153 453 -154 432 -154 z "},"∬":{"ha":1333,"x_min":0,"x_max":0,"o":"m 203 -128 l 268 -128 b 442 53 406 -128 442 -86 l 442 1000 b 649 1201 442 1153 493 1201 b 713 1200 669 1201 692 1201 l 713 1174 l 647 1174 b 472 993 510 1174 472 1132 l 472 46 b 267 -154 472 -107 422 -154 b 203 -153 244 -154 224 -154 z m 619 -128 l 685 -128 b 858 53 822 -128 858 -86 l 858 1000 b 1065 1201 858 1153 910 1201 b 1129 1200 1086 1201 1108 1201 l 1129 1174 l 1064 1174 b 889 993 926 1174 889 1132 l 889 46 b 683 -154 889 -107 839 -154 b 619 -153 661 -154 640 -154 z "},"∈":{"ha":1333,"x_min":0,"x_max":0,"o":"m 153 539 b 689 939 153 800 343 939 l 1151 939 l 1151 911 l 686 911 b 185 551 363 911 190 782 l 1151 551 l 1151 524 l 185 524 b 686 167 192 294 364 167 l 1151 167 l 1151 139 l 689 139 b 153 539 343 139 153 279 z "},"∋":{"ha":1333,"x_min":0,"x_max":0,"o":"m 1179 539 b 643 139 1179 279 989 139 l 181 139 l 181 167 l 646 167 b 1147 524 968 167 1140 294 l 181 524 l 181 551 l 1147 551 b 646 911 1142 782 969 911 l 181 911 l 181 939 l 643 939 b 1179 539 989 939 1179 800 z "},"⊆":{"ha":1333,"x_min":0,"x_max":0,"o":"m 181 39 l 1156 39 l 1156 11 l 181 11 z m 149 692 b 629 1036 149 925 311 1036 l 1147 1036 l 1147 1008 l 626 1008 b 181 692 325 1008 181 903 b 626 375 181 481 325 375 l 1147 375 l 1147 347 l 629 347 b 149 692 311 347 149 460 z "},"⊇":{"ha":1333,"x_min":0,"x_max":0,"o":"m 1151 39 l 1151 11 l 176 11 l 176 39 z m 1183 692 b 703 347 1183 460 1021 347 l 185 347 l 185 375 l 706 375 b 1151 692 1007 375 1151 481 b 706 1008 1151 903 1007 1008 l 185 1008 l 185 1036 l 703 1036 b 1183 692 1021 1036 1183 925 z "},"⊂":{"ha":1333,"x_min":0,"x_max":0,"o":"m 153 539 b 689 939 153 800 343 939 l 1151 939 l 1151 911 l 686 911 b 185 539 357 911 185 778 b 686 167 185 300 357 167 l 1151 167 l 1151 139 l 689 139 b 153 539 343 139 153 279 z "},"⊃":{"ha":1333,"x_min":0,"x_max":0,"o":"m 1179 539 b 643 139 1179 279 989 139 l 181 139 l 181 167 l 646 167 b 1147 539 975 167 1147 300 b 646 911 1147 778 975 911 l 181 911 l 181 939 l 643 939 b 1179 539 989 939 1179 800 z "},"∪":{"ha":1333,"x_min":0,"x_max":0,"o":"m 667 14 b 267 550 406 14 267 204 l 267 1013 l 297 1013 l 297 547 b 667 42 297 218 431 42 b 1036 547 904 42 1036 218 l 1036 1013 l 1067 1013 l 1067 550 b 667 14 1067 204 928 14 z "},"∩":{"ha":1333,"x_min":0,"x_max":0,"o":"m 667 1038 b 1067 501 928 1038 1067 847 l 1067 39 l 1036 39 l 1036 504 b 667 1010 1036 833 904 1010 b 297 504 431 1010 297 833 l 297 39 l 267 39 l 267 501 b 667 1038 267 847 406 1038 z "},"∧":{"ha":1333,"x_min":0,"x_max":0,"o":"m 174 31 l 663 1054 l 668 1054 l 1160 31 l 1135 14 l 665 996 l 200 14 z "},"∨":{"ha":1333,"x_min":0,"x_max":0,"o":"m 663 0 l 174 1024 l 200 1040 l 665 58 l 1135 1040 l 1160 1024 l 668 0 z "},"￢":{"ha":1333,"x_min":0,"x_max":0,"o":"m 213 667 l 213 694 l 1106 694 l 1106 278 l 1075 278 l 1075 667 z "},"⇒":{"ha":1333,"x_min":0,"x_max":0,"o":"m 774 167 l 1022 369 l 75 369 l 75 397 l 1057 397 l 1218 528 l 1061 651 l 75 651 l 75 679 l 1026 679 l 775 878 l 792 897 l 1258 528 l 793 144 z "},"⇔":{"ha":1333,"x_min":0,"x_max":0,"o":"m 854 144 l 835 167 l 1068 369 l 263 369 l 497 167 l 478 144 l 40 528 l 479 897 l 496 878 l 260 679 l 1071 679 l 836 878 l 853 897 l 1292 528 z m 1100 397 l 1251 528 l 1104 651 l 226 651 l 81 528 l 231 397 z "},"∀":{"ha":1333,"x_min":0,"x_max":0,"o":"m 242 1081 l 275 1081 l 388 788 l 944 788 l 1058 1081 l 1092 1081 l 679 11 l 654 11 z m 667 61 l 935 760 l 397 760 z "},"∃":{"ha":1333,"x_min":0,"x_max":0,"o":"m 947 1081 l 947 11 l 364 11 l 364 39 l 917 39 l 917 518 l 419 518 l 419 546 l 917 546 l 917 1053 l 357 1053 l 357 1081 z "},"´":{"ha":486,"x_min":0,"x_max":0,"o":"m 344 1126 l 176 881 l 142 881 l 310 1126 z "},"ˇ":{"ha":486,"x_min":0,"x_max":0,"o":"m 257 881 l 229 881 l 31 1126 l 65 1126 l 243 907 l 419 1126 l 456 1126 z "},"˘":{"ha":486,"x_min":0,"x_max":0,"o":"m 243 886 b 35 1113 108 886 43 969 l 65 1113 b 243 914 74 978 133 914 b 419 1113 353 914 413 978 l 450 1113 b 243 886 443 969 378 886 z "},"˝":{"ha":486,"x_min":0,"x_max":0,"o":"m 253 1126 l 85 881 l 50 881 l 218 1126 z m 435 1126 l 268 881 l 233 881 l 401 1126 z "},"˚":{"ha":486,"x_min":0,"x_max":0,"o":"m 368 1003 b 243 1135 368 1086 315 1135 b 118 1003 171 1135 118 1086 b 243 871 118 918 171 871 b 368 1003 315 871 368 918 z m 88 1003 b 243 1161 88 1100 153 1161 b 399 1003 333 1161 399 1100 b 243 843 399 904 333 843 b 88 1003 153 843 88 904 z "},"˙":{"ha":486,"x_min":0,"x_max":0,"o":"m 271 1028 l 271 972 l 215 972 l 215 1028 z "},"¸":{"ha":486,"x_min":0,"x_max":0,"o":"m 92 -307 l 108 -282 b 233 -325 143 -312 188 -325 b 363 -221 317 -325 363 -285 b 228 -108 363 -143 308 -108 b 164 -122 204 -108 181 -114 l 146 -106 l 204 11 l 235 11 l 181 -94 b 235 -82 194 -86 215 -82 b 393 -221 332 -82 393 -137 b 233 -351 393 -297 338 -351 b 92 -307 182 -351 126 -337 z "},"˛":{"ha":486,"x_min":0,"x_max":0,"o":"m 226 11 l 275 11 b 119 -174 164 -36 119 -108 l 119 -182 b 250 -296 119 -258 171 -296 b 379 -251 296 -296 346 -281 l 396 -275 b 250 -324 356 -308 303 -324 b 89 -182 147 -324 89 -267 l 89 -175 b 226 11 89 -100 143 -28 z "},"¡":{"ha":403,"x_min":0,"x_max":0,"o":"m 217 451 l 219 -294 l 183 -294 l 186 451 z m 224 775 l 224 653 l 181 653 l 181 775 z "},"¿":{"ha":785,"x_min":0,"x_max":0,"o":"m 110 -24 b 247 242 110 88 138 151 b 389 468 374 346 389 388 l 389 499 l 419 499 l 419 468 b 269 221 419 371 397 329 b 140 -24 171 138 140 75 b 397 -285 140 -174 231 -285 b 654 -24 564 -285 654 -174 l 654 -4 l 685 -4 l 685 -24 b 397 -312 685 -183 590 -312 b 110 -24 204 -312 110 -183 z m 386 653 l 386 775 l 424 775 l 424 653 z "},"∮":{"ha":1333,"x_min":0,"x_max":0,"o":"m 421 529 b 650 771 421 661 519 763 l 650 1000 b 857 1201 650 1153 701 1201 b 921 1200 878 1201 900 1201 l 921 1174 l 856 1174 b 681 993 718 1174 681 1132 l 681 771 b 910 529 811 763 910 661 b 681 288 910 397 811 296 l 681 46 b 475 -156 681 -107 631 -156 b 411 -154 453 -156 432 -156 l 411 -128 l 476 -128 b 650 53 614 -128 650 -86 l 650 288 b 421 529 519 296 421 397 z m 451 529 b 650 315 451 414 536 324 l 650 743 b 451 529 536 735 451 644 z m 681 315 b 879 529 794 324 879 414 b 681 743 879 644 794 735 z "},"∑":{"ha":1333,"x_min":0,"x_max":0,"o":"m 340 -61 l 586 489 l 340 1053 l 340 1081 l 992 1081 l 992 1053 l 372 1053 l 614 499 l 614 479 l 372 -61 l 992 -61 l 992 -89 l 340 -89 z "},"∏":{"ha":1333,"x_min":0,"x_max":0,"o":"m 982 -89 l 982 1053 l 351 1053 l 351 -89 l 321 -89 l 321 1081 l 1013 1081 l 1013 -89 z "},"¤":{"ha":965,"x_min":0,"x_max":0,"o":"m 147 510 b 240 743 147 607 182 686 l 82 900 l 104 922 l 263 763 b 485 839 322 811 401 839 b 703 763 565 839 642 811 l 861 922 l 883 900 l 725 743 b 819 510 782 686 819 607 b 725 275 819 410 782 332 l 883 118 l 861 97 l 703 254 b 485 179 642 206 565 179 b 263 254 401 179 322 206 l 104 97 l 82 118 l 240 275 b 147 510 182 332 147 411 z m 789 510 b 483 811 789 699 646 811 b 178 510 319 811 178 699 b 483 207 178 319 319 207 b 789 510 646 207 789 319 z "},"℉":{"ha":1333,"x_min":0,"x_max":0,"o":"m 93 900 b 258 735 93 806 164 735 b 424 900 353 735 424 806 b 258 1065 424 994 353 1065 b 93 900 164 1065 93 994 z m 63 900 b 258 1093 63 1006 144 1093 b 454 900 372 1093 454 1006 b 258 707 454 794 372 707 b 63 900 144 707 63 794 z m 590 11 l 590 1081 l 1164 1081 l 1164 1053 l 621 1053 l 621 557 l 1117 557 l 1117 529 l 621 529 l 621 11 z "},"‰":{"ha":1644,"x_min":0,"x_max":0,"o":"m 350 11 l 789 1081 l 821 1081 l 382 11 z m 504 810 b 303 521 504 604 425 521 b 101 810 181 521 101 604 b 303 1099 101 1017 181 1099 b 504 810 425 1099 504 1017 z m 474 810 b 303 1071 474 1007 403 1071 b 132 810 201 1071 132 1007 b 303 549 132 613 201 549 b 474 810 403 549 474 613 z m 667 282 b 868 571 667 488 746 571 b 1069 282 990 571 1069 488 b 868 -7 1069 75 990 -7 b 667 282 746 -7 667 75 z m 697 282 b 868 21 697 85 767 21 b 1039 282 968 21 1039 85 b 868 543 1039 479 968 543 b 697 282 767 543 697 479 z m 1140 282 b 1342 571 1140 488 1219 571 b 1543 282 1464 571 1543 488 b 1342 -7 1543 75 1464 -7 b 1140 282 1219 -7 1140 75 z m 1171 282 b 1342 21 1171 85 1240 21 b 1513 282 1442 21 1513 85 b 1342 543 1513 479 1442 543 b 1171 282 1240 543 1171 479 z "},"◁":{"ha":1333,"x_min":0,"x_max":0,"o":"m 96 550 l 1154 1164 l 1154 -64 z m 150 550 l 1126 -15 l 1126 1114 z "},"◀":{"ha":1333,"x_min":0,"x_max":0,"o":"m 96 550 l 1154 1164 l 1154 -64 z "},"▷":{"ha":1333,"x_min":0,"x_max":0,"o":"m 179 1164 l 1238 550 l 179 -64 z m 207 -15 l 1183 550 l 207 1114 z "},"▶":{"ha":1333,"x_min":0,"x_max":0,"o":"m 179 1164 l 1238 550 l 179 -64 z "},"♤":{"ha":1333,"x_min":0,"x_max":0,"o":"m 656 550 l 675 550 b 788 390 689 476 736 433 b 981 325 835 351 906 325 b 1211 553 1136 325 1211 424 b 1043 856 1211 653 1147 767 b 667 1103 942 942 776 1040 b 289 854 560 1040 390 942 b 122 553 186 764 122 653 b 351 325 122 418 196 328 b 533 389 418 324 486 356 b 656 550 590 429 643 481 z m 925 53 l 925 54 b 742 233 847 88 785 149 b 665 501 697 318 667 440 l 664 501 b 585 231 660 440 629 315 b 406 54 542 146 482 86 l 406 53 z m 92 550 b 269 872 92 664 156 774 b 667 1131 382 969 533 1054 b 1063 874 803 1057 946 968 b 1242 550 1169 786 1242 669 b 982 297 1242 393 1150 300 b 696 454 863 296 758 364 b 797 199 711 369 753 263 b 976 61 842 135 908 79 l 976 25 l 354 25 l 354 61 b 532 197 421 75 486 132 b 633 453 578 261 617 368 b 350 297 567 365 461 296 b 92 550 183 300 92 389 z "},"♠":{"ha":1333,"x_min":0,"x_max":0,"o":"m 92 550 b 269 872 92 664 156 774 b 667 1131 382 969 533 1054 b 1063 874 803 1057 946 968 b 1242 550 1169 786 1242 669 b 1169 358 1242 469 1218 400 b 982 297 1124 319 1050 299 b 696 454 876 294 758 364 b 797 199 711 369 753 263 b 976 61 842 135 908 79 l 976 25 l 354 25 l 354 61 b 532 197 421 75 486 132 b 633 453 578 261 617 368 b 350 297 567 365 447 296 b 158 358 281 299 206 315 b 92 550 111 401 92 471 z "},"♡":{"ha":1333,"x_min":0,"x_max":0,"o":"m 679 706 l 653 706 b 526 919 639 794 583 874 b 353 985 479 957 418 983 b 122 724 194 983 122 892 b 288 331 122 594 182 456 b 667 28 393 207 533 97 b 1042 331 794 96 936 206 b 1211 724 1146 454 1211 594 b 982 985 1211 904 1126 983 b 806 921 914 983 851 961 b 679 706 753 874 693 794 z m 1242 728 b 1065 313 1242 583 1176 442 b 667 -4 956 183 815 76 b 265 310 517 76 375 181 b 92 728 154 442 92 583 b 163 943 92 821 111 894 b 351 1013 213 992 281 1013 b 542 944 419 1013 486 989 b 667 757 597 900 643 833 b 789 944 689 833 733 900 b 983 1013 844 989 911 1013 b 1174 942 1056 1013 1128 989 b 1242 728 1219 893 1242 821 z "},"♥":{"ha":1333,"x_min":0,"x_max":0,"o":"m 1242 728 b 1065 313 1242 583 1176 442 b 667 -4 956 183 814 78 b 265 310 517 76 375 181 b 92 728 154 442 92 583 b 163 943 92 821 111 894 b 351 1013 213 992 281 1013 b 542 944 419 1013 486 989 b 667 757 597 900 643 833 b 789 944 689 833 733 900 b 983 1013 844 989 911 1013 b 1174 943 1056 1013 1128 990 b 1242 728 1221 894 1242 821 z "},"♧":{"ha":1333,"x_min":0,"x_max":0,"o":"m 907 890 b 835 718 907 824 879 763 b 665 649 792 674 731 649 b 494 718 599 649 538 674 b 424 890 450 763 424 824 b 494 1061 424 956 450 1017 b 665 1133 538 1106 599 1133 b 835 1061 731 1133 792 1106 b 907 890 879 1017 907 956 z m 983 56 l 983 25 l 347 25 l 347 56 b 550 221 431 89 507 156 b 656 482 596 290 650 386 l 675 482 b 781 219 681 388 733 289 b 983 56 822 158 900 86 z m 919 53 l 919 60 b 760 201 857 92 807 140 b 667 400 711 265 676 342 l 664 400 b 575 206 650 340 619 268 b 411 60 528 140 465 85 l 411 53 z m 878 890 b 814 1040 878 947 854 1001 b 665 1106 776 1079 722 1106 b 515 1040 607 1106 553 1079 b 451 890 476 1001 451 947 b 515 739 451 832 476 778 b 665 676 553 700 607 676 b 814 739 722 676 776 700 b 878 890 854 778 878 832 z m 569 481 b 497 308 569 414 542 353 b 328 239 454 264 393 239 b 157 308 261 239 200 264 b 86 481 113 353 86 414 b 157 651 86 546 113 607 b 328 724 200 696 261 724 b 497 651 393 724 454 696 b 569 481 542 607 569 546 z m 540 481 b 476 631 540 538 517 592 b 328 696 439 669 385 696 b 178 631 269 696 215 669 b 114 481 139 592 114 538 b 178 329 114 422 139 368 b 328 267 215 290 269 267 b 476 329 385 267 439 290 b 540 481 517 368 540 422 z m 1246 481 b 1174 308 1246 414 1218 353 b 1004 239 1131 264 1069 239 b 833 308 938 239 876 264 b 763 481 789 353 763 414 b 833 651 763 546 789 607 b 1004 724 876 696 938 724 b 1174 651 1069 724 1131 696 b 1246 481 1218 607 1246 546 z m 1217 481 b 1153 631 1217 538 1193 592 b 1004 696 1115 669 1061 696 b 854 631 946 696 892 669 b 790 481 815 592 790 538 b 854 329 790 422 815 368 b 1004 267 892 290 946 267 b 1153 329 1061 267 1115 290 b 1217 481 1193 368 1217 422 z "},"♣":{"ha":1333,"x_min":0,"x_max":0,"o":"m 907 890 b 835 718 907 824 879 763 b 665 649 792 674 731 649 b 494 718 599 649 538 674 b 424 890 450 763 424 824 b 494 1061 424 956 450 1017 b 665 1133 538 1106 599 1133 b 835 1061 731 1133 792 1106 b 907 890 879 1017 907 956 z m 983 56 l 983 25 l 347 25 l 347 56 b 550 221 431 89 507 156 b 656 482 596 290 650 386 l 675 482 b 781 219 681 388 733 289 b 983 56 822 158 900 86 z m 569 481 b 497 308 569 414 542 353 b 328 239 454 264 393 239 b 157 308 261 239 200 264 b 86 481 113 353 86 414 b 157 651 86 546 113 607 b 328 724 200 696 261 724 b 497 651 393 724 454 696 b 569 481 542 607 569 546 z m 1246 481 b 1174 308 1246 414 1218 353 b 1004 239 1131 264 1069 239 b 833 308 938 239 876 264 b 763 481 789 353 763 414 b 833 651 763 546 789 607 b 1004 724 876 696 938 724 b 1174 651 1069 724 1131 696 b 1246 481 1218 607 1246 546 z "},"◈":{"ha":1333,"x_min":0,"x_max":0,"o":"m 667 1196 l 1304 544 l 667 -106 l 29 544 z m 667 1156 l 72 544 l 667 -64 l 1261 544 z m 667 765 l 882 544 l 667 324 l 450 544 z "},"▣":{"ha":1333,"x_min":0,"x_max":0,"o":"m 1179 39 l 153 39 l 153 1053 l 1179 1053 z m 183 67 l 1149 67 l 1149 1025 l 183 1025 z m 508 390 l 508 701 l 822 701 l 822 390 z "},"◐":{"ha":1333,"x_min":0,"x_max":0,"o":"m 1261 544 b 667 -51 1261 214 996 -51 b 72 544 335 -51 72 214 b 667 1139 72 874 338 1139 b 1261 544 994 1139 1261 872 z m 667 1111 l 667 -24 b 1232 544 981 -24 1232 229 b 667 1111 1232 857 981 1111 z "},"◑":{"ha":1333,"x_min":0,"x_max":0,"o":"m 1261 544 b 667 -51 1261 214 996 -51 b 72 544 335 -51 72 214 b 667 1139 72 874 338 1139 b 1261 544 994 1139 1261 872 z m 101 544 b 667 -24 101 229 351 -24 l 667 1111 b 101 544 351 1111 101 857 z "},"▒":{"ha":1333,"x_min":0,"x_max":0,"o":"m 649 129 l 649 161 l 679 161 l 679 129 z m 922 161 l 950 161 l 950 129 l 922 129 z m 815 129 l 785 129 l 785 161 l 815 161 z m 407 129 l 378 129 l 378 161 l 407 161 z m 271 129 l 242 129 l 242 161 l 271 161 z m 542 129 l 513 129 l 513 161 l 542 161 z m 1057 161 l 1086 161 l 1086 129 l 1057 129 z m 649 268 l 649 297 l 679 297 l 679 268 z m 922 297 l 950 297 l 950 268 l 922 268 z m 815 268 l 785 268 l 785 297 l 815 297 z m 407 268 l 378 268 l 378 297 l 407 297 z m 271 268 l 242 268 l 242 297 l 271 297 z m 542 268 l 513 268 l 513 297 l 542 297 z m 1057 297 l 1086 297 l 1086 268 l 1057 268 z m 649 404 l 649 435 l 679 435 l 679 404 z m 922 435 l 950 435 l 950 404 l 922 404 z m 815 404 l 785 404 l 785 435 l 815 435 z m 407 404 l 378 404 l 378 435 l 407 435 z m 271 404 l 242 404 l 242 435 l 271 435 z m 542 404 l 513 404 l 513 435 l 542 435 z m 1057 435 l 1086 435 l 1086 404 l 1057 404 z m 649 542 l 649 572 l 679 572 l 679 542 z m 922 572 l 950 572 l 950 542 l 922 542 z m 815 542 l 785 542 l 785 572 l 815 572 z m 407 542 l 378 542 l 378 572 l 407 572 z m 271 542 l 242 542 l 242 572 l 271 572 z m 542 542 l 513 542 l 513 572 l 542 572 z m 1057 572 l 1086 572 l 1086 542 l 1057 542 z m 649 679 l 649 710 l 679 710 l 679 679 z m 922 710 l 950 710 l 950 679 l 922 679 z m 815 679 l 785 679 l 785 710 l 815 710 z m 407 679 l 378 679 l 378 710 l 407 710 z m 271 679 l 242 679 l 242 710 l 271 710 z m 542 679 l 513 679 l 513 710 l 542 710 z m 1057 710 l 1086 710 l 1086 679 l 1057 679 z m 649 817 l 649 846 l 679 846 l 679 817 z m 922 846 l 950 846 l 950 817 l 922 817 z m 815 817 l 785 817 l 785 846 l 815 846 z m 407 817 l 378 817 l 378 846 l 407 846 z m 271 817 l 242 817 l 242 846 l 271 846 z m 542 817 l 513 817 l 513 846 l 542 846 z m 1057 846 l 1086 846 l 1086 817 l 1057 817 z m 649 953 l 649 985 l 679 985 l 679 953 z m 922 985 l 950 985 l 950 953 l 922 953 z m 815 953 l 785 953 l 785 985 l 815 985 z m 407 953 l 378 953 l 378 985 l 407 985 z m 271 953 l 242 953 l 242 985 l 271 985 z m 542 953 l 513 953 l 513 985 l 542 985 z m 1057 985 l 1086 985 l 1086 953 l 1057 953 z m 1206 25 l 128 25 l 128 1093 l 1206 1093 z m 158 53 l 1175 53 l 1175 1065 l 158 1065 z "},"▤":{"ha":1333,"x_min":0,"x_max":0,"o":"m 1206 25 l 128 25 l 128 1093 l 1206 1093 z m 1175 169 l 158 169 l 158 53 l 1175 53 z m 1175 317 l 158 317 l 158 197 l 1175 197 z m 1175 464 l 158 464 l 158 344 l 1175 344 z m 1175 619 l 158 619 l 158 492 l 1175 492 z m 1175 768 l 158 768 l 158 647 l 1175 647 z m 1175 924 l 158 924 l 158 796 l 1175 796 z m 1175 1065 l 158 1065 l 158 951 l 1175 951 z "},"▥":{"ha":1333,"x_min":0,"x_max":0,"o":"m 1206 1093 l 1206 25 l 128 25 l 128 1093 z m 1058 1065 l 1058 53 l 1175 53 l 1175 1065 z m 908 1065 l 908 53 l 1028 53 l 1028 1065 z m 758 1065 l 758 53 l 878 53 l 878 1065 z m 611 1065 l 611 53 l 728 53 l 728 1065 z m 460 1065 l 460 53 l 581 53 l 581 1065 z m 301 1065 l 301 53 l 429 53 l 429 1065 z m 158 1065 l 158 53 l 271 53 l 271 1065 z "},"▨":{"ha":1333,"x_min":0,"x_max":0,"o":"m 1206 1093 l 1206 25 l 128 25 l 128 1093 z m 158 231 l 158 72 l 1154 1065 l 996 1065 z m 182 53 l 332 53 l 1175 896 l 1175 1043 z m 158 428 l 158 274 l 953 1065 l 796 1065 z m 375 53 l 528 53 l 1175 696 l 1175 850 z m 572 53 l 735 53 l 1175 490 l 1175 653 z m 158 633 l 158 471 l 753 1065 l 590 1065 z m 776 53 l 940 53 l 1175 286 l 1175 449 z m 158 839 l 158 676 l 547 1065 l 385 1065 z m 985 53 l 1175 53 l 1175 242 z m 158 1065 l 158 882 l 342 1065 z "},"▧":{"ha":1333,"x_min":0,"x_max":0,"o":"m 128 25 l 128 1093 l 1206 1093 l 1206 25 z m 1175 72 l 1175 231 l 338 1065 l 179 1065 z m 1001 53 l 1151 53 l 158 1043 l 158 896 z m 1175 274 l 1175 428 l 538 1065 l 381 1065 z m 806 53 l 958 53 l 158 850 l 158 696 z m 599 53 l 761 53 l 158 653 l 158 490 z m 1175 471 l 1175 633 l 743 1065 l 581 1065 z m 393 53 l 557 53 l 158 449 l 158 286 z m 1175 676 l 1175 839 l 949 1065 l 786 1065 z m 158 53 l 349 53 l 158 242 z m 1175 882 l 1175 1065 l 992 1065 z "},"▦":{"ha":1333,"x_min":0,"x_max":0,"o":"m 1206 25 l 128 25 l 128 1093 l 1206 1093 z m 301 619 l 301 492 l 429 492 l 429 619 z m 301 924 l 301 796 l 429 796 l 429 924 z m 301 768 l 301 647 l 429 647 l 429 768 z m 460 619 l 460 492 l 581 492 l 581 619 z m 460 924 l 460 796 l 581 796 l 581 924 z m 301 317 l 301 197 l 429 197 l 429 317 z m 758 619 l 758 492 l 878 492 l 878 619 z m 301 464 l 301 344 l 429 344 l 429 464 z m 758 924 l 758 796 l 878 796 l 878 924 z m 908 619 l 908 492 l 1028 492 l 1028 619 z m 908 924 l 908 796 l 1028 796 l 1028 924 z m 301 169 l 301 53 l 429 53 l 429 169 z m 1058 492 l 1175 492 l 1175 619 l 1058 619 z m 1058 796 l 1175 796 l 1175 924 l 1058 924 z m 611 619 l 611 492 l 728 492 l 728 619 z m 611 924 l 611 796 l 728 796 l 728 924 z m 460 768 l 460 647 l 581 647 l 581 768 z m 429 951 l 429 1065 l 301 1065 l 301 951 z m 758 768 l 758 647 l 878 647 l 878 768 z m 908 768 l 908 647 l 1028 647 l 1028 768 z m 460 317 l 460 197 l 581 197 l 581 317 z m 460 464 l 460 344 l 581 344 l 581 464 z m 271 619 l 158 619 l 158 492 l 271 492 z m 271 924 l 158 924 l 158 796 l 271 796 z m 758 317 l 758 197 l 878 197 l 878 317 z m 758 464 l 758 344 l 878 344 l 878 464 z m 908 317 l 908 197 l 1028 197 l 1028 317 z m 908 464 l 908 344 l 1028 344 l 1028 464 z m 460 169 l 460 53 l 581 53 l 581 169 z m 1058 647 l 1175 647 l 1175 768 l 1058 768 z m 611 768 l 611 647 l 728 647 l 728 768 z m 758 169 l 758 53 l 878 53 l 878 169 z m 1058 197 l 1175 197 l 1175 317 l 1058 317 z m 1058 344 l 1175 344 l 1175 464 l 1058 464 z m 908 169 l 908 53 l 1028 53 l 1028 169 z m 611 317 l 611 197 l 728 197 l 728 317 z m 611 464 l 611 344 l 728 344 l 728 464 z m 581 951 l 581 1065 l 460 1065 l 460 951 z m 611 169 l 611 53 l 728 53 l 728 169 z m 1058 169 l 1058 53 l 1175 53 l 1175 169 z m 878 951 l 878 1065 l 758 1065 l 758 951 z m 1028 951 l 1028 1065 l 908 1065 l 908 951 z m 271 768 l 158 768 l 158 647 l 271 647 z m 271 464 l 158 464 l 158 344 l 271 344 z m 271 317 l 158 317 l 158 197 l 271 197 z m 728 951 l 728 1065 l 611 1065 l 611 951 z m 1175 1065 l 1058 1065 l 1058 951 l 1175 951 z m 271 169 l 158 169 l 158 53 l 271 53 z m 271 1065 l 158 1065 l 158 951 l 271 951 z "},"▩":{"ha":1333,"x_min":0,"x_max":0,"o":"m 1206 1093 l 1206 25 l 128 25 l 128 1093 z m 186 258 l 265 179 l 347 260 l 268 339 z m 289 360 l 368 281 l 450 363 l 369 442 z m 1065 339 l 986 260 l 1067 179 l 1147 258 z m 361 1042 l 282 963 l 363 881 l 442 960 z m 464 939 l 385 860 l 465 778 l 544 857 z m 788 857 l 867 778 l 949 860 l 869 939 z m 963 442 l 883 363 l 965 281 l 1044 360 z m 890 960 l 969 881 l 1051 963 l 972 1042 z m 564 1039 l 485 960 l 567 879 l 644 957 z m 688 957 l 765 879 l 847 961 l 769 1039 z m 1063 540 l 985 463 l 1065 382 l 1143 458 z m 189 458 l 267 382 l 349 463 l 271 540 z m 586 657 l 665 578 l 744 657 l 665 736 z m 985 661 l 1061 583 l 1143 664 l 1067 742 z m 267 742 l 189 664 l 271 583 l 347 660 z m 486 164 l 563 88 l 644 168 l 567 244 z m 767 836 l 688 758 l 767 679 l 846 757 z m 488 757 l 565 679 l 644 758 l 567 836 z m 765 244 l 689 168 l 769 88 l 846 164 z m 588 857 l 665 779 l 744 858 l 667 936 z m 785 461 l 861 385 l 940 463 l 864 540 z m 468 540 l 392 464 l 472 385 l 549 461 z m 288 157 l 363 83 l 443 164 l 369 239 z m 964 239 l 889 164 l 971 83 l 1046 157 z m 390 260 l 464 185 l 546 267 l 471 340 z m 861 340 l 788 267 l 868 185 l 943 260 z m 885 561 l 963 485 l 1040 563 l 963 639 z m 363 838 l 289 764 l 371 683 l 444 757 z m 889 757 l 963 683 l 1043 764 l 969 838 z m 992 860 l 1065 786 l 1146 867 l 1072 940 z m 260 940 l 186 867 l 268 786 l 342 860 z m 369 639 l 293 563 l 371 485 l 447 561 z m 688 557 l 763 483 l 842 563 l 767 636 z m 565 636 l 492 563 l 571 483 l 644 557 z m 590 267 l 667 190 l 743 267 l 667 343 z m 789 657 l 863 583 l 940 661 l 867 735 z m 465 735 l 392 661 l 469 583 l 543 657 z m 493 363 l 568 289 l 644 365 l 569 439 z m 763 439 l 689 365 l 765 289 l 839 363 z m 592 461 l 667 388 l 740 461 l 665 535 z m 599 53 l 735 53 l 747 65 l 667 146 l 585 65 z m 1175 490 l 1175 633 l 1165 643 l 1083 561 l 1165 481 z m 158 633 l 158 490 l 168 481 l 249 561 l 168 643 z m 393 53 l 528 53 l 542 67 l 465 143 l 383 61 z m 806 53 l 940 53 l 949 61 l 867 143 l 790 67 z m 158 286 l 164 279 l 246 361 l 168 438 l 158 428 z m 1175 286 l 1175 428 l 1164 438 l 1088 361 l 1168 279 z m 1175 696 l 1175 839 l 1169 844 l 1088 763 l 1165 686 z m 158 839 l 158 696 l 168 686 l 244 763 l 164 844 z m 590 1065 l 585 1060 l 667 979 l 747 1060 l 743 1065 z m 158 231 l 158 72 l 243 157 l 164 236 z m 1175 72 l 1175 231 l 1169 236 l 1089 157 z m 385 1065 l 382 1063 l 464 982 l 542 1060 l 538 1065 z m 796 1065 l 790 1060 l 868 982 l 950 1063 l 949 1065 z m 182 53 l 332 53 l 340 61 l 265 135 z m 1001 53 l 1151 53 l 1068 135 l 993 61 z m 1072 983 l 1154 1065 l 996 1065 l 993 1063 z m 338 1065 l 179 1065 l 260 983 l 339 1063 z m 158 1043 l 158 896 l 165 889 l 239 963 z m 1168 889 l 1175 896 l 1175 1043 l 1094 963 z "},"♨":{"ha":1333,"x_min":0,"x_max":0,"o":"m 732 508 b 604 247 732 418 688 313 b 592 257 596 240 585 247 b 654 481 635 321 653 401 b 613 669 656 538 633 607 b 575 850 593 726 574 793 b 613 979 576 892 588 936 b 726 1115 640 1028 688 1083 b 740 1104 735 1122 746 1113 b 654 876 685 1029 656 950 b 692 686 653 810 672 747 b 732 508 711 625 732 560 z m 510 508 b 381 249 510 408 443 310 b 367 258 369 238 360 249 b 433 482 408 319 438 406 b 390 626 431 529 413 578 b 353 768 372 668 356 719 b 488 1042 347 872 410 972 b 504 1031 501 1054 514 1043 b 432 794 444 951 431 872 b 471 638 433 740 450 681 b 510 508 490 594 510 550 z m 343 446 b 344 438 350 447 351 439 b 176 289 249 415 176 364 b 668 126 176 178 438 126 b 1158 296 899 126 1158 185 b 1014 425 1158 360 1089 407 b 1015 433 1007 426 1010 433 b 1229 272 1146 421 1229 349 b 668 40 1229 121 932 40 b 106 265 406 40 103 114 b 343 446 107 354 189 429 z m 954 508 b 825 249 954 408 888 310 b 811 258 814 238 804 249 b 878 482 853 319 882 406 b 835 626 875 529 857 578 b 797 768 817 668 800 719 b 932 1042 792 872 854 972 b 949 1031 946 1054 958 1043 b 876 794 889 951 875 872 b 915 638 878 740 894 681 b 954 508 935 594 954 550 z "},"☏":{"ha":1333,"x_min":0,"x_max":0,"o":"m 908 874 l 876 874 l 876 707 b 1026 568 904 693 967 644 b 1153 294 1088 490 1157 372 l 1142 154 b 1124 135 1140 139 1135 135 l 217 135 b 194 153 203 135 196 139 l 183 288 b 307 565 179 371 246 485 b 460 707 365 642 432 694 l 460 874 l 424 874 b 376 832 393 874 379 863 b 375 713 374 803 374 751 b 354 690 375 699 368 692 l 106 665 b 85 682 93 664 85 668 b 135 874 85 739 103 819 b 349 990 175 939 240 990 l 983 990 b 1197 874 1092 990 1157 939 b 1247 682 1229 819 1247 739 b 1226 665 1247 668 1239 664 l 978 690 b 957 713 964 692 957 699 b 956 832 958 751 958 803 b 908 874 953 863 939 874 z m 740 700 l 740 874 l 596 874 l 596 700 z m 868 422 b 671 228 868 314 779 228 b 472 422 560 228 472 310 b 671 615 472 532 563 615 b 868 422 778 615 868 528 z m 846 693 l 846 874 l 771 874 l 771 672 l 565 672 l 565 874 l 490 874 l 490 692 b 328 549 439 665 379 618 b 214 286 274 475 208 363 l 224 163 l 1113 163 l 1122 288 b 1001 554 1128 364 1060 478 b 846 693 951 619 896 668 z m 838 422 b 671 588 839 511 764 588 b 503 422 574 588 503 515 b 671 256 503 329 572 256 b 838 422 767 256 838 329 z m 417 899 l 915 899 b 986 835 956 899 983 878 b 988 718 989 800 990 757 l 1211 696 b 1169 861 1213 743 1197 814 b 983 963 1138 915 1072 963 l 349 963 b 163 861 260 963 194 915 b 121 696 135 814 119 743 l 344 718 b 346 835 342 757 343 800 b 417 899 349 878 376 899 z "},"☎":{"ha":1333,"x_min":0,"x_max":0,"o":"m 1218 665 l 994 689 b 967 714 974 692 967 700 b 961 803 967 740 965 774 b 911 874 954 842 939 874 l 856 874 l 856 707 b 1026 564 890 703 960 646 b 1153 294 1093 482 1153 379 l 1142 163 b 1110 135 1140 143 1126 135 l 226 135 b 194 164 207 135 196 146 l 183 288 b 307 563 183 376 242 481 b 481 707 374 646 436 699 l 481 874 l 425 874 b 372 804 393 874 379 842 b 368 718 367 775 367 744 b 343 689 369 704 361 690 l 117 665 b 85 693 96 663 83 671 b 133 874 88 750 101 818 b 342 990 172 939 236 989 l 994 990 b 1197 871 1096 989 1158 936 b 1247 693 1229 815 1244 747 b 1218 665 1249 671 1236 664 z m 756 874 l 581 874 l 581 707 l 756 707 z m 864 422 b 671 615 864 529 778 615 b 476 422 560 615 476 532 b 671 228 476 310 558 228 b 864 422 781 228 864 314 z "},"☜":{"ha":1333,"x_min":0,"x_max":0,"o":"m 1303 229 l 1122 229 l 1122 250 l 1058 250 b 1042 268 1049 250 1042 257 l 1042 332 b 983 326 1025 332 1001 332 b 908 283 960 315 935 300 b 832 242 882 267 856 251 b 738 226 810 232 772 228 b 646 226 703 225 667 226 b 574 232 626 225 603 228 b 514 267 546 238 526 249 b 457 310 486 268 468 289 b 456 368 446 331 444 353 b 418 418 435 375 424 396 b 431 469 414 436 415 458 b 400 508 415 474 407 490 b 399 557 393 529 392 546 l 100 557 b 31 631 54 557 31 593 b 104 706 31 668 53 706 l 508 706 b 554 765 510 739 526 756 b 650 774 582 772 615 772 b 847 731 717 774 790 774 b 903 683 864 715 882 700 b 965 647 924 667 943 656 b 1042 639 988 639 1018 638 l 1042 692 b 1058 711 1042 701 1047 711 l 1122 711 l 1122 729 l 1303 729 z m 507 618 b 518 593 501 608 507 593 b 628 651 574 593 615 607 b 649 651 633 671 647 672 b 767 471 653 564 689 511 b 756 454 786 461 778 446 b 678 493 722 467 693 482 b 697 324 690 449 704 374 b 654 281 693 297 671 282 b 606 274 644 278 628 275 b 550 271 585 272 557 271 b 638 253 557 260 603 253 b 726 253 671 253 706 251 b 825 269 754 253 801 257 b 897 313 843 279 874 297 b 974 351 924 328 949 342 b 1042 360 997 357 1021 360 l 1042 611 b 954 621 1017 610 982 611 b 885 664 928 631 907 646 b 831 711 865 681 847 697 b 650 747 789 746 711 749 b 563 740 618 746 586 747 b 535 701 540 733 535 717 b 529 669 535 690 532 676 b 507 618 524 651 515 633 z m 504 678 l 107 678 b 61 632 74 678 61 663 b 101 585 61 603 76 585 l 481 585 b 476 613 474 590 472 601 b 492 646 482 626 488 638 b 504 678 497 657 503 674 z m 1072 278 l 1122 278 l 1122 683 l 1072 683 z m 619 468 b 472 463 576 463 511 461 b 446 428 451 463 444 443 b 478 396 447 413 457 396 b 636 407 518 394 596 397 b 658 439 653 408 660 419 b 619 468 657 457 643 469 z m 593 563 b 450 560 556 561 485 560 b 424 528 429 560 422 543 b 456 490 424 511 435 492 b 608 497 494 489 582 492 b 632 535 625 499 633 515 b 593 563 631 553 617 564 z m 635 374 b 500 368 597 368 538 367 b 479 329 482 368 475 346 b 510 297 481 314 492 297 b 650 306 544 296 611 300 b 671 344 665 307 672 324 b 635 374 669 363 658 374 z "},"☞":{"ha":1333,"x_min":0,"x_max":0,"o":"m 211 229 l 31 229 l 31 729 l 211 729 l 211 711 l 275 711 b 292 692 286 711 292 701 l 292 639 b 368 647 315 638 346 639 b 431 683 390 656 410 667 b 486 731 451 700 469 715 b 683 774 543 774 617 774 b 779 765 718 772 751 772 b 825 706 807 756 824 739 l 1229 706 b 1303 631 1281 706 1303 668 b 1233 557 1303 593 1279 557 l 935 557 b 933 508 942 546 940 529 b 903 469 926 490 918 474 b 915 418 918 458 919 436 b 878 368 910 396 899 375 b 876 310 889 353 888 331 b 819 267 865 289 847 268 b 760 232 807 249 788 238 b 688 226 731 228 707 225 b 596 226 667 226 631 225 b 501 242 561 228 524 232 b 425 283 478 251 451 267 b 350 326 399 300 374 315 b 292 332 332 332 308 332 l 292 268 b 275 250 292 257 285 250 l 211 250 z m 826 618 b 804 669 818 633 810 651 b 799 701 801 676 799 690 b 771 740 799 717 793 733 b 683 747 747 747 715 746 b 503 711 622 749 544 746 b 449 664 486 697 468 681 b 379 621 426 646 406 631 b 292 611 351 611 317 610 l 292 360 b 360 351 313 360 336 357 b 436 313 385 342 410 328 b 508 269 460 297 490 279 b 607 253 532 257 579 253 b 696 253 628 251 663 253 b 783 271 731 253 776 260 b 728 274 776 271 749 272 b 679 281 706 275 689 278 b 636 324 663 282 640 297 b 656 493 629 374 643 449 b 578 454 640 482 611 467 b 567 471 556 446 547 461 b 685 651 644 511 681 564 b 706 651 686 672 700 671 b 815 593 718 607 760 593 b 826 618 826 593 832 608 z m 1226 678 l 829 678 b 842 646 831 674 836 657 b 857 613 846 638 851 626 b 853 585 861 601 860 590 l 1232 585 b 1272 632 1257 585 1272 603 b 1226 678 1272 663 1260 678 z m 211 278 l 261 278 l 261 683 l 211 683 z m 714 468 b 675 439 690 469 676 457 b 697 407 674 419 681 408 b 856 396 738 397 815 394 b 888 428 876 396 886 413 b 861 463 889 443 882 463 b 714 468 822 461 757 463 z m 740 563 b 701 535 717 564 703 553 b 725 497 700 515 708 499 b 878 490 751 492 839 489 b 910 528 899 492 910 511 b 883 560 911 543 904 560 b 740 563 849 560 778 561 z m 699 374 b 663 344 675 374 664 363 b 683 306 661 324 668 307 b 824 297 722 300 789 296 b 854 329 842 297 853 314 b 833 368 858 346 851 368 b 699 374 796 367 736 368 z "},"¶":{"ha":1333,"x_min":0,"x_max":0,"o":"m 711 1081 l 906 1081 l 906 -189 l 874 -189 l 874 1053 l 803 1053 l 803 -189 l 771 -189 l 771 419 l 729 419 b 400 746 540 419 400 540 l 400 757 b 711 1081 400 961 517 1081 z "},"†":{"ha":1333,"x_min":0,"x_max":0,"o":"m 969 897 l 969 869 l 682 869 l 682 -189 l 651 -189 l 651 869 l 364 869 l 364 897 l 651 897 l 651 1154 l 682 1154 l 682 897 z "},"‡":{"ha":1333,"x_min":0,"x_max":0,"o":"m 364 68 l 364 96 l 651 96 l 651 869 l 364 869 l 364 897 l 651 897 l 651 1154 l 682 1154 l 682 897 l 969 897 l 969 869 l 682 869 l 682 96 l 969 96 l 969 68 l 682 68 l 682 -189 l 651 -189 l 651 68 z "},"↕":{"ha":1333,"x_min":0,"x_max":0,"o":"m 556 106 l 651 106 l 651 1004 l 556 1004 l 667 1157 l 778 1004 l 682 1004 l 682 106 l 778 106 l 667 -47 z "},"↗":{"ha":1333,"x_min":0,"x_max":0,"o":"m 257 82 l 235 104 l 978 846 l 908 915 l 1097 943 l 1067 757 l 1000 825 z "},"↙":{"ha":1333,"x_min":0,"x_max":0,"o":"m 1075 943 l 1097 921 l 354 179 l 424 110 l 235 82 l 265 268 l 332 200 z "},"↖":{"ha":1333,"x_min":0,"x_max":0,"o":"m 1097 104 l 1075 82 l 332 825 l 265 757 l 235 943 l 424 915 l 354 846 z "},"↘":{"ha":1333,"x_min":0,"x_max":0,"o":"m 235 921 l 257 943 l 1000 200 l 1067 268 l 1097 82 l 908 110 l 978 179 z "},"♭":{"ha":1333,"x_min":0,"x_max":0,"o":"m 497 1165 l 497 471 b 726 621 532 543 622 621 b 922 390 844 621 922 528 b 467 -4 922 174 711 -7 l 467 1165 z m 497 346 l 497 26 b 868 390 683 35 868 200 b 713 593 868 514 811 593 b 497 346 625 593 497 499 z "},"♩":{"ha":1333,"x_min":0,"x_max":0,"o":"m 754 181 l 754 1167 l 786 1167 l 786 153 b 529 -99 786 0 689 -99 b 408 4 457 -99 408 -60 b 649 200 408 119 522 200 b 754 181 683 200 728 192 z "},"♪":{"ha":1333,"x_min":0,"x_max":0,"o":"m 694 915 l 694 153 b 438 -99 694 0 597 -99 b 317 4 365 -99 317 -60 b 557 200 317 119 431 200 b 663 181 592 200 636 192 l 663 1167 l 688 1167 b 871 894 685 1031 764 969 b 1043 558 964 829 1043 718 b 926 207 1043 419 993 299 l 900 207 b 999 540 958 297 999 424 b 694 915 999 694 869 863 z "},"♬":{"ha":1333,"x_min":0,"x_max":0,"o":"m 1136 942 l 1136 1100 l 431 933 l 431 775 z m 1136 343 l 1136 857 l 431 699 l 431 153 b 174 -99 431 0 333 -99 b 53 4 101 -99 53 -60 b 293 200 53 119 167 200 b 399 181 328 200 372 192 l 399 1001 l 1168 1185 l 1168 315 b 911 64 1168 163 1071 64 b 790 167 839 64 790 103 b 1031 363 790 282 904 363 b 1136 343 1065 363 1110 354 z "},"㉿":{"ha":1333,"x_min":0,"x_max":0,"o":"m 1251 640 l 1221 640 b 665 1115 1186 908 950 1115 b 110 569 344 1115 117 875 l 354 569 l 354 542 l 79 542 b 665 1143 72 875 318 1143 b 1251 640 965 1143 1218 925 z m 81 456 l 111 456 b 667 -19 146 188 382 -19 b 1222 526 988 -19 1215 221 l 978 526 l 978 554 l 1253 554 b 667 -47 1260 221 1014 -47 b 81 456 367 -47 114 171 z m 911 921 l 629 561 l 943 183 l 904 183 l 603 547 l 499 547 l 499 183 l 468 183 l 468 921 l 499 921 l 499 575 l 603 575 l 872 921 z "},"㈜":{"ha":1333,"x_min":0,"x_max":0,"o":"m 290 -19 l 263 -19 b 69 553 147 146 69 346 b 263 1124 69 760 147 960 l 290 1124 b 100 553 178 957 100 760 b 290 -19 100 346 178 149 z m 1043 -19 b 1233 553 1156 149 1233 346 b 1043 1124 1233 760 1156 957 l 1071 1124 b 1264 553 1186 960 1264 760 b 1071 -19 1264 346 1186 146 z m 319 964 l 1014 964 l 1014 936 l 681 936 l 681 869 b 1022 564 681 701 860 592 l 1022 536 b 665 789 849 568 713 661 b 308 536 621 661 475 568 l 308 564 b 650 869 464 590 650 701 l 650 936 l 319 936 z m 268 388 l 1065 388 l 1065 360 l 681 360 l 681 72 l 650 72 l 650 360 l 268 360 z "},"№":{"ha":1303,"x_min":0,"x_max":0,"o":"m 651 11 l 158 1017 l 158 11 l 128 11 l 128 1081 l 158 1081 l 651 75 l 651 1081 l 682 1081 l 682 11 z m 771 11 l 771 39 l 1231 39 l 1231 11 z m 1236 511 b 1001 199 1236 313 1169 199 b 765 511 832 199 765 313 b 1001 822 765 710 832 822 b 1236 511 1169 822 1236 710 z m 1206 511 b 1001 794 1206 699 1144 794 b 796 511 857 794 796 699 b 1001 226 796 322 857 226 b 1206 511 1144 226 1206 322 z "},"㏇":{"ha":1333,"x_min":0,"x_max":0,"o":"m 56 550 b 343 1108 56 850 107 1108 b 622 746 511 1108 611 969 l 592 746 b 343 1081 581 950 494 1081 b 86 550 119 1081 86 808 b 343 21 86 292 129 21 b 592 356 493 21 581 151 l 622 356 b 343 -7 611 132 511 -7 b 56 550 107 -7 56 265 z m 1157 397 b 926 -7 1157 140 1086 -7 b 696 397 767 -7 696 140 b 926 800 696 653 767 800 b 1157 397 1086 800 1157 653 z m 1126 397 b 926 772 1126 639 1061 772 b 726 397 792 772 726 639 b 926 21 726 154 792 21 b 1126 397 1061 21 1126 154 z m 1250 133 l 1250 11 l 1214 11 l 1214 133 z "},"™":{"ha":988,"x_min":0,"x_max":0,"o":"m 683 571 l 656 571 l 458 1007 l 458 571 l 428 571 l 428 1081 l 458 1081 l 669 610 l 881 1081 l 911 1081 l 911 571 l 881 571 l 881 1007 z m 31 1053 l 31 1081 l 382 1081 l 382 1053 l 221 1053 l 221 571 l 190 571 l 190 1053 z "},"㏂":{"ha":1333,"x_min":0,"x_max":0,"o":"m 394 236 b 229 451 394 351 344 451 b 67 236 114 451 67 365 b 229 21 67 106 114 21 b 394 236 344 21 394 119 z m 425 519 l 425 117 b 442 11 425 76 431 40 l 411 11 b 394 103 401 33 394 72 l 394 107 b 228 -7 367 43 318 -7 b 36 236 101 -7 36 89 b 228 479 36 382 101 479 b 394 364 325 479 368 425 l 394 525 b 242 765 394 668 351 765 b 92 563 135 765 97 685 l 61 563 b 242 793 68 699 119 793 b 425 519 371 793 425 685 z m 1168 11 l 1168 551 b 1065 765 1168 711 1132 765 b 931 418 993 765 931 635 l 931 11 l 900 11 l 900 551 b 799 765 900 704 865 765 b 664 404 726 765 664 647 l 664 11 l 633 11 l 633 775 l 664 775 l 664 611 b 800 793 682 728 735 793 b 928 608 878 793 915 744 b 1068 793 956 742 1001 793 b 1199 558 1156 793 1199 729 l 1199 11 z m 547 133 l 547 11 l 513 11 l 513 133 z m 1293 133 l 1293 11 l 1258 11 l 1258 133 z "},"㏘":{"ha":1333,"x_min":0,"x_max":0,"o":"m 463 393 b 268 -7 463 131 403 -7 b 103 163 182 -7 131 65 l 103 -322 l 72 -322 l 72 775 l 103 775 l 103 617 b 268 793 125 719 181 793 b 463 393 403 793 463 656 z m 432 393 b 268 765 432 633 382 765 b 103 393 161 765 103 626 b 268 21 103 160 161 21 b 432 393 382 21 432 153 z m 1168 11 l 1168 551 b 1065 765 1168 711 1132 765 b 931 418 993 765 931 635 l 931 11 l 900 11 l 900 551 b 799 765 900 704 865 765 b 664 404 726 765 664 647 l 664 11 l 633 11 l 633 775 l 664 775 l 664 611 b 800 793 682 728 735 793 b 928 608 878 793 915 744 b 1068 793 956 742 1001 793 b 1199 558 1156 793 1199 729 l 1199 11 z m 547 133 l 547 11 l 513 11 l 513 133 z m 1293 133 l 1293 11 l 1258 11 l 1258 133 z "},"℡":{"ha":1333,"x_min":0,"x_max":0,"o":"m 1033 418 l 1033 390 l 501 390 b 751 21 501 129 593 21 b 988 229 876 21 957 90 l 1018 229 b 751 -7 988 75 900 -7 b 471 393 567 -7 471 121 b 751 793 471 665 567 793 b 1033 418 931 793 1026 672 z m 751 765 b 501 418 597 765 506 663 l 1003 418 b 751 765 996 663 906 765 z m 31 1053 l 31 1081 l 586 1081 l 586 1053 l 324 1053 l 324 11 l 293 11 l 293 1053 z m 1199 11 l 1168 11 l 1168 1081 l 1199 1081 z "},"＂":{"ha":1333,"x_min":0,"x_max":0,"o":"m 599 775 l 568 775 l 568 1081 l 599 1081 z m 765 775 l 735 775 l 735 1081 l 765 1081 z "},"＃":{"ha":1333,"x_min":0,"x_max":0,"o":"m 947 1081 l 979 1081 l 907 743 l 1094 743 l 1094 715 l 900 715 l 828 376 l 1043 376 l 1043 349 l 821 349 l 747 11 l 715 11 l 789 349 l 458 349 l 386 11 l 354 11 l 426 349 l 239 349 l 239 376 l 433 376 l 507 715 l 290 715 l 290 743 l 513 743 l 586 1081 l 618 1081 l 544 743 l 875 743 z m 539 715 l 465 376 l 794 376 l 868 715 z "},"＄":{"ha":1333,"x_min":0,"x_max":0,"o":"m 665 1214 l 665 1099 b 969 828 861 1092 969 975 l 969 797 l 939 797 l 939 828 b 665 1071 939 965 839 1064 l 665 576 l 719 565 b 1010 279 924 525 1010 426 b 665 -7 1010 125 896 -7 l 665 -122 l 635 -122 l 635 -6 b 322 279 426 6 322 132 l 322 317 l 353 317 l 353 279 b 635 21 353 143 454 32 l 635 554 l 575 565 b 322 828 411 597 322 685 b 635 1099 322 976 432 1094 l 635 1214 z m 665 21 b 979 279 867 21 979 135 b 711 539 979 407 903 500 l 665 547 z m 353 828 b 582 593 353 699 433 622 l 635 582 l 635 1071 b 353 828 457 1067 353 969 z "},"％":{"ha":1333,"x_min":0,"x_max":0,"o":"m 431 11 l 869 1081 l 901 1081 l 463 11 z m 585 810 b 383 521 585 604 506 521 b 182 810 261 521 182 604 b 383 1099 182 1017 261 1099 b 585 810 506 1099 585 1017 z m 554 810 b 383 1071 554 1007 483 1071 b 213 810 282 1071 213 1007 b 383 549 213 613 282 549 b 554 810 483 549 554 613 z m 747 282 b 949 571 747 488 826 571 b 1150 282 1071 571 1150 488 b 949 -7 1150 75 1071 -7 b 747 282 826 -7 747 75 z m 778 282 b 949 21 778 85 847 21 b 1119 282 1049 21 1119 85 b 949 543 1119 479 1049 543 b 778 282 847 543 778 479 z "},"＆":{"ha":1333,"x_min":0,"x_max":0,"o":"m 815 832 l 815 861 b 593 1071 815 1000 728 1071 b 369 861 458 1071 369 1000 b 493 628 369 786 392 729 l 924 208 b 1000 542 969 294 996 406 l 1031 542 b 947 188 1026 397 999 276 l 1128 11 l 1085 11 l 931 161 b 588 -7 857 53 744 -7 b 260 292 386 -7 260 108 b 458 622 260 424 321 539 b 339 861 361 718 339 779 b 593 1099 339 1014 439 1099 b 846 861 747 1099 846 1014 l 846 832 z m 588 22 b 908 182 733 22 840 78 l 478 603 b 290 292 349 521 290 422 b 588 22 290 128 410 22 z "},"＇":{"ha":1333,"x_min":0,"x_max":0,"o":"m 682 775 l 651 775 l 651 1081 l 682 1081 z "},"＊":{"ha":1333,"x_min":0,"x_max":0,"o":"m 651 536 l 651 824 l 681 824 l 681 536 l 931 681 l 946 653 l 696 510 l 946 365 l 931 338 l 681 482 l 681 194 l 651 194 l 651 482 l 401 338 l 386 365 l 633 510 l 386 653 l 401 681 z "},"＋":{"ha":1333,"x_min":0,"x_max":0,"o":"m 361 496 l 361 524 l 651 524 l 651 824 l 682 824 l 682 524 l 972 524 l 972 496 l 682 496 l 682 194 l 651 194 l 651 496 z "},"－":{"ha":1333,"x_min":0,"x_max":0,"o":"m 458 494 l 458 525 l 874 525 l 874 494 z "},"／":{"ha":1333,"x_min":0,"x_max":0,"o":"m 96 -8 l 1215 1117 l 1236 1097 l 117 -29 z "},"０":{"ha":1333,"x_min":0,"x_max":0,"o":"m 994 546 b 903 96 994 297 968 178 b 665 -7 850 29 774 -7 b 429 96 557 -7 481 29 b 338 546 363 178 338 297 b 429 997 338 794 363 914 b 665 1099 481 1063 557 1099 b 903 997 774 1099 850 1063 b 994 546 968 914 994 794 z m 964 546 b 876 979 964 785 935 907 b 665 1071 832 1035 757 1071 b 454 979 574 1071 499 1035 b 368 546 397 907 368 785 b 454 113 368 307 397 185 b 665 21 499 57 574 21 b 876 113 757 21 832 57 b 964 546 935 185 964 307 z "},"１":{"ha":1333,"x_min":0,"x_max":0,"o":"m 760 11 l 729 11 l 729 1047 l 433 914 l 433 947 l 729 1081 l 760 1081 z "},"２":{"ha":1333,"x_min":0,"x_max":0,"o":"m 961 792 b 853 540 961 700 935 633 l 411 39 l 976 39 l 976 11 l 372 11 l 372 39 l 831 558 b 931 790 901 639 931 710 b 658 1071 931 944 836 1071 b 388 790 482 1071 388 944 l 388 761 l 356 761 l 356 792 b 658 1099 356 956 458 1099 b 961 792 858 1099 961 956 z "},"３":{"ha":1333,"x_min":0,"x_max":0,"o":"m 956 294 b 681 567 956 458 858 567 l 579 567 l 579 594 l 689 594 b 924 833 851 594 924 713 b 667 1071 924 971 828 1071 b 410 833 507 1071 410 971 l 410 807 l 379 807 l 379 833 b 667 1099 379 981 489 1099 b 954 833 844 1099 954 981 b 768 581 954 703 886 604 b 986 299 894 563 986 461 b 667 -7 986 113 860 -7 b 347 314 474 -7 347 117 l 347 318 l 378 318 l 378 314 b 667 21 378 131 497 21 b 956 294 836 21 956 129 z "},"４":{"ha":1333,"x_min":0,"x_max":0,"o":"m 353 304 l 797 304 l 797 1025 z m 986 304 l 986 276 l 828 276 l 828 11 l 797 11 l 797 276 l 318 276 l 318 304 l 797 1081 l 828 1081 l 828 304 z "},"５":{"ha":1333,"x_min":0,"x_max":0,"o":"m 358 286 l 389 286 b 665 21 408 113 507 21 b 944 349 846 21 944 142 b 665 678 944 557 846 678 b 424 500 556 678 467 618 l 393 500 l 421 1081 l 917 1081 l 917 1053 l 451 1053 l 426 563 b 665 704 471 651 553 704 b 975 349 858 704 975 575 b 665 -7 975 122 858 -7 b 358 286 483 -7 378 104 z "},"６":{"ha":1333,"x_min":0,"x_max":0,"o":"m 949 846 l 915 846 b 663 1071 896 1006 792 1071 b 472 988 585 1071 517 1044 b 382 506 404 899 382 744 b 668 704 421 625 524 704 b 983 349 863 704 983 569 b 668 -7 983 129 863 -7 b 422 108 561 -7 476 32 b 350 449 364 190 350 286 b 443 1000 350 744 369 899 b 663 1099 493 1068 567 1099 b 949 846 819 1099 929 1017 z m 668 21 b 954 349 838 21 954 142 b 668 678 954 557 838 678 b 382 349 499 678 382 557 b 668 21 382 142 499 21 z "},"７":{"ha":1333,"x_min":0,"x_max":0,"o":"m 364 1053 l 364 1081 l 968 1081 l 968 1053 l 568 11 l 535 11 l 935 1053 z "},"８":{"ha":1333,"x_min":0,"x_max":0,"o":"m 667 1099 b 969 831 850 1099 969 992 b 771 575 969 703 894 607 b 1001 290 911 546 1001 442 b 667 -7 1001 101 868 -7 b 332 290 465 -7 332 101 b 563 575 332 442 422 546 b 364 831 439 607 364 703 b 667 1099 364 992 483 1099 z m 667 589 b 939 831 826 589 939 682 b 667 1071 939 978 826 1071 b 394 831 508 1071 394 978 b 667 589 394 682 508 589 z m 667 21 b 971 290 844 21 971 118 b 667 561 971 464 844 561 b 363 290 490 561 363 464 b 667 21 363 118 490 21 z "},"９":{"ha":1333,"x_min":0,"x_max":0,"o":"m 385 246 l 418 246 b 671 21 439 86 543 21 b 861 104 749 21 818 47 b 951 586 931 193 951 347 b 667 388 914 467 810 388 b 350 743 472 388 350 524 b 667 1099 350 963 472 1099 b 913 983 774 1099 857 1060 b 983 643 971 901 983 806 b 890 92 983 347 964 193 b 671 -7 840 24 767 -7 b 385 246 515 -7 406 75 z m 667 1071 b 381 743 496 1071 381 950 b 667 414 381 535 496 414 b 951 743 836 414 951 535 b 667 1071 951 950 836 1071 z "},"＠":{"ha":1333,"x_min":0,"x_max":0,"o":"m 810 729 b 1072 550 949 729 1033 664 b 667 1071 1053 928 943 1071 b 257 410 354 1071 257 892 b 667 -250 257 -136 410 -250 b 872 -199 739 -250 814 -232 l 883 -228 b 667 -278 821 -260 744 -278 b 226 410 385 -278 226 -147 b 667 1099 226 911 342 1099 b 1107 410 992 1099 1107 911 l 1107 376 b 810 24 1107 157 1004 24 b 511 376 614 24 511 157 b 810 729 511 596 614 729 z m 810 51 b 1076 376 981 51 1076 165 b 810 701 1076 588 981 701 b 542 376 638 701 542 588 b 810 51 542 165 638 51 z "},"Ａ":{"ha":1333,"x_min":0,"x_max":0,"o":"m 275 11 l 242 11 l 654 1081 l 679 1081 l 1092 11 l 1058 11 l 944 304 l 388 304 z m 935 332 l 667 1031 l 397 332 z "},"Ｂ":{"ha":1333,"x_min":0,"x_max":0,"o":"m 360 574 l 700 574 b 971 813 889 574 971 664 b 700 1053 971 963 889 1053 l 360 1053 z m 706 11 l 329 11 l 329 1081 l 706 1081 b 1001 815 906 1081 1001 979 b 815 561 1001 664 925 586 b 1032 292 964 536 1032 449 b 706 11 1032 96 919 11 z m 1001 292 b 699 546 1001 449 925 546 l 360 546 l 360 39 l 699 39 b 1001 292 925 39 1001 136 z "},"Ｃ":{"ha":1333,"x_min":0,"x_max":0,"o":"m 283 546 b 397 989 283 742 315 894 b 672 1099 463 1063 554 1099 b 1049 739 900 1099 1035 961 l 1018 739 b 672 1071 1003 939 890 1071 b 421 971 565 1071 479 1038 b 314 546 339 874 314 722 b 421 121 314 369 339 217 b 672 21 479 54 565 21 b 1018 353 890 21 1003 153 l 1049 353 b 672 -7 1035 131 900 -7 b 397 103 554 -7 463 29 b 283 546 315 197 283 350 z "},"Ｄ":{"ha":1333,"x_min":0,"x_max":0,"o":"m 660 1053 l 340 1053 l 340 39 l 660 39 b 913 139 767 39 856 72 b 1019 546 993 236 1019 389 b 913 953 1019 703 993 856 b 660 1053 856 1019 767 1053 z m 310 11 l 310 1081 l 660 1081 b 935 972 779 1081 871 1046 b 1050 546 1019 876 1050 724 b 935 119 1050 368 1019 215 b 660 11 871 46 779 11 z "},"Ｅ":{"ha":1333,"x_min":0,"x_max":0,"o":"m 371 11 l 371 1081 l 954 1081 l 954 1053 l 401 1053 l 401 574 l 899 574 l 899 546 l 401 546 l 401 39 l 961 39 l 961 11 z "},"Ｆ":{"ha":1333,"x_min":0,"x_max":0,"o":"m 393 11 l 393 1081 l 968 1081 l 968 1053 l 424 1053 l 424 557 l 921 557 l 921 529 l 424 529 l 424 11 z "},"Ｇ":{"ha":1333,"x_min":0,"x_max":0,"o":"m 281 546 b 394 989 281 742 313 894 b 669 1099 460 1063 551 1099 b 1046 739 897 1099 1032 961 l 1015 739 b 669 1071 1000 939 888 1071 b 418 971 563 1071 476 1038 b 311 546 336 874 311 722 b 418 121 311 369 336 217 b 669 21 476 54 563 21 b 922 121 775 21 860 53 b 1021 414 975 181 1021 290 l 1021 503 l 678 503 l 678 531 l 1051 531 l 1051 11 l 1021 11 l 1021 267 b 947 104 1013 210 993 157 b 669 -7 879 28 789 -7 b 394 103 551 -7 460 29 b 281 546 313 197 281 350 z "},"Ｈ":{"ha":1333,"x_min":0,"x_max":0,"o":"m 982 11 l 982 546 l 351 546 l 351 11 l 321 11 l 321 1081 l 351 1081 l 351 574 l 982 574 l 982 1081 l 1013 1081 l 1013 11 z "},"Ｉ":{"ha":1333,"x_min":0,"x_max":0,"o":"m 682 1081 l 682 11 l 651 11 l 651 1081 z "},"Ｊ":{"ha":1333,"x_min":0,"x_max":0,"o":"m 625 -7 b 325 336 421 -7 325 128 l 356 336 l 356 335 b 625 21 356 144 444 21 b 893 335 804 21 893 144 l 893 1081 l 924 1081 l 924 338 b 625 -7 924 128 828 -7 z "},"Ｋ":{"ha":1333,"x_min":0,"x_max":0,"o":"m 1006 1081 l 588 560 l 1053 11 l 1014 11 l 560 546 l 394 546 l 394 11 l 364 11 l 364 1081 l 394 1081 l 394 574 l 560 574 l 967 1081 z "},"Ｌ":{"ha":1333,"x_min":0,"x_max":0,"o":"m 399 11 l 399 1081 l 429 1081 l 429 39 l 989 39 l 989 11 z "},"Ｍ":{"ha":1333,"x_min":0,"x_max":0,"o":"m 683 11 l 649 11 l 190 1010 l 190 11 l 160 11 l 160 1081 l 190 1081 l 667 43 l 1142 1081 l 1172 1081 l 1172 11 l 1142 11 l 1142 1010 z "},"Ｎ":{"ha":1333,"x_min":0,"x_max":0,"o":"m 1019 11 l 989 11 l 343 1028 l 343 11 l 313 11 l 313 1081 l 343 1081 l 989 64 l 989 1081 l 1019 1081 z "},"Ｏ":{"ha":1333,"x_min":0,"x_max":0,"o":"m 1025 546 b 918 971 1025 722 1000 874 b 665 1071 860 1038 774 1071 b 414 971 558 1071 472 1038 b 307 546 332 874 307 722 b 414 121 307 369 332 217 b 665 21 472 54 558 21 b 918 121 774 21 860 54 b 1025 546 1000 217 1025 369 z m 276 546 b 390 989 276 742 308 894 b 665 1099 456 1063 547 1099 b 940 989 785 1099 876 1063 b 1056 546 1024 894 1056 742 b 940 103 1056 350 1024 197 b 665 -7 876 29 785 -7 b 390 103 547 -7 456 29 b 276 546 308 197 276 350 z "},"Ｐ":{"ha":1333,"x_min":0,"x_max":0,"o":"m 374 469 l 721 469 b 1015 761 915 469 1015 581 b 721 1053 1015 942 915 1053 l 374 1053 z m 717 442 l 374 442 l 374 11 l 343 11 l 343 1081 l 717 1081 b 1046 761 940 1081 1046 953 b 717 442 1046 571 940 442 z "},"Ｑ":{"ha":1333,"x_min":0,"x_max":0,"o":"m 271 546 b 385 989 271 742 303 894 b 660 1099 450 1063 542 1099 b 935 989 779 1099 871 1063 b 1050 546 1018 894 1050 742 b 954 128 1050 365 1022 222 l 1103 0 l 1083 -24 l 935 103 b 660 -7 871 29 779 -7 b 385 103 542 -7 450 29 b 271 546 303 197 271 350 z m 717 289 l 738 313 l 931 146 b 1019 546 999 243 1019 383 b 913 971 1019 722 994 874 b 660 1071 854 1038 768 1071 b 408 971 553 1071 467 1038 b 301 546 326 874 301 722 b 408 121 301 369 326 217 b 660 21 467 54 553 21 b 913 121 768 21 854 54 z "},"Ｒ":{"ha":1333,"x_min":0,"x_max":0,"o":"m 1035 11 l 1004 11 b 986 108 994 36 988 68 l 976 261 b 707 472 967 406 888 472 l 356 472 l 356 11 l 325 11 l 325 1081 l 704 1081 b 1028 776 929 1081 1028 960 b 818 486 1028 626 964 519 b 1007 261 935 465 997 404 l 1017 108 b 1035 11 1019 68 1025 36 z m 356 500 l 710 500 b 997 776 903 500 997 604 b 710 1053 997 949 903 1053 l 356 1053 z "},"Ｓ":{"ha":1333,"x_min":0,"x_max":0,"o":"m 665 21 b 979 279 867 21 979 135 b 711 539 979 407 903 500 l 575 565 b 322 828 411 597 322 685 b 646 1099 322 979 436 1099 b 969 828 856 1099 969 982 l 969 797 l 939 797 l 939 828 b 646 1071 939 972 831 1071 b 353 828 461 1071 353 972 b 582 593 353 699 433 622 l 719 565 b 1010 279 924 525 1010 426 b 665 -7 1010 125 896 -7 b 322 279 436 -7 322 125 l 322 317 l 353 317 l 353 279 b 665 21 353 135 465 21 z "},"Ｔ":{"ha":1333,"x_min":0,"x_max":0,"o":"m 313 1053 l 313 1081 l 1021 1081 l 1021 1053 l 682 1053 l 682 11 l 651 11 l 651 1053 z "},"Ｕ":{"ha":1333,"x_min":0,"x_max":0,"o":"m 667 21 b 1004 408 913 21 1004 167 l 1004 1081 l 1035 1081 l 1035 406 b 667 -7 1035 160 932 -7 b 299 406 400 -7 299 160 l 299 1081 l 329 1081 l 329 408 b 667 21 329 167 421 21 z "},"Ｖ":{"ha":1333,"x_min":0,"x_max":0,"o":"m 275 1081 l 667 61 l 1058 1081 l 1092 1081 l 679 11 l 654 11 l 242 1081 z "},"Ｗ":{"ha":1333,"x_min":0,"x_max":0,"o":"m 653 1081 l 681 1081 l 976 64 l 1247 1081 l 1282 1081 l 993 11 l 963 11 l 667 1028 l 369 11 l 340 11 l 51 1081 l 85 1081 l 357 64 z "},"Ｘ":{"ha":1333,"x_min":0,"x_max":0,"o":"m 1051 1081 l 686 557 l 1067 11 l 1028 11 l 665 529 l 306 11 l 267 11 l 647 557 l 282 1081 l 321 1081 l 665 585 l 1013 1081 z "},"Ｙ":{"ha":1333,"x_min":0,"x_max":0,"o":"m 667 460 l 1040 1081 l 1075 1081 l 682 433 l 682 11 l 651 11 l 651 433 l 257 1081 l 292 1081 z "},"Ｚ":{"ha":1333,"x_min":0,"x_max":0,"o":"m 344 39 l 947 1053 l 360 1053 l 360 1081 l 982 1081 l 982 1053 l 378 39 l 989 39 l 989 11 l 344 11 z "},"￦":{"ha":1333,"x_min":0,"x_max":0,"o":"m 653 1081 l 681 1081 l 822 571 l 1090 571 l 1219 1081 l 1254 1081 l 1124 571 l 1303 571 l 1303 543 l 1115 543 l 979 11 l 949 11 l 801 543 l 532 543 l 383 11 l 354 11 l 218 543 l 31 543 l 31 571 l 210 571 l 79 1081 l 113 1081 l 242 571 l 511 571 z m 829 543 l 963 64 l 1083 543 z m 793 571 l 667 1026 l 539 571 z m 249 543 l 371 64 l 504 543 z "},"＾":{"ha":1333,"x_min":0,"x_max":0,"o":"m 667 1053 l 435 726 l 397 726 l 651 1081 l 682 1081 l 936 726 l 899 726 z "},"｀":{"ha":1333,"x_min":0,"x_max":0,"o":"m 733 881 l 565 1126 l 600 1126 l 768 881 z "},"ａ":{"ha":1333,"x_min":0,"x_max":0,"o":"m 926 236 b 654 451 926 365 838 451 b 383 236 471 451 383 365 b 654 21 383 106 471 21 b 926 236 838 21 926 106 z m 957 519 l 957 117 b 979 11 957 76 965 40 l 947 11 b 926 103 935 33 926 72 l 926 122 b 651 -7 890 42 799 -7 b 353 236 454 -7 353 89 b 651 479 353 382 454 479 b 926 349 799 479 890 429 l 926 525 b 671 765 926 668 838 765 b 418 563 507 765 431 685 l 388 563 b 671 793 401 699 488 793 b 957 519 857 793 957 685 z "},"ｂ":{"ha":1333,"x_min":0,"x_max":0,"o":"m 1006 393 b 694 -7 1006 144 910 -7 b 413 193 547 -7 451 64 l 413 11 l 382 11 l 382 1081 l 413 1081 l 413 593 b 694 793 451 722 547 793 b 1006 393 910 793 1006 642 z m 975 393 b 694 765 975 633 888 765 b 413 393 500 765 413 633 b 694 21 413 153 500 21 b 975 393 888 21 975 153 z "},"ｃ":{"ha":1333,"x_min":0,"x_max":0,"o":"m 361 393 b 672 793 361 642 457 793 b 971 539 849 793 950 697 l 940 539 b 672 765 919 681 831 765 b 392 393 479 765 392 633 b 672 21 392 153 479 21 b 940 247 831 21 919 106 l 971 247 b 672 -7 950 89 849 -7 b 361 393 457 -7 361 144 z "},"ｄ":{"ha":1333,"x_min":0,"x_max":0,"o":"m 326 393 b 638 793 326 642 422 793 b 919 593 785 793 881 722 l 919 1081 l 950 1081 l 950 11 l 919 11 l 919 193 b 638 -7 881 64 785 -7 b 326 393 422 -7 326 144 z m 919 393 b 638 765 919 633 832 765 b 357 393 444 765 357 633 b 638 21 357 153 444 21 b 919 393 832 21 919 153 z "},"ｅ":{"ha":1333,"x_min":0,"x_max":0,"o":"m 931 228 l 961 228 b 665 -7 935 83 833 -7 b 354 393 450 -7 354 144 b 665 793 354 642 450 793 b 978 393 882 793 978 642 l 978 390 l 385 390 b 665 21 385 154 472 21 b 931 228 814 21 903 97 z m 665 765 b 385 418 478 765 389 639 l 947 418 b 665 765 940 639 853 765 z "},"ｆ":{"ha":1333,"x_min":0,"x_max":0,"o":"m 875 1064 l 810 1064 b 635 883 672 1064 635 1022 l 635 775 l 875 775 l 875 747 l 635 747 l 635 11 l 604 11 l 604 747 l 486 747 l 486 775 l 604 775 l 604 889 b 811 1092 604 1043 656 1092 b 875 1090 832 1092 854 1092 z "},"ｇ":{"ha":1333,"x_min":0,"x_max":0,"o":"m 947 393 b 665 765 947 633 860 765 b 385 393 472 765 385 633 b 665 21 385 153 472 21 b 947 393 860 21 947 153 z m 404 -124 l 435 -124 b 688 -315 451 -239 543 -315 b 947 -44 853 -315 947 -214 l 947 193 b 665 -7 908 64 813 -7 b 354 393 450 -7 354 144 b 665 793 354 642 450 793 b 947 593 813 793 908 722 l 947 775 l 978 775 l 978 -44 b 688 -343 978 -222 882 -343 b 404 -124 517 -343 421 -250 z "},"ｈ":{"ha":1333,"x_min":0,"x_max":0,"o":"m 414 11 l 383 11 l 383 1081 l 414 1081 l 414 558 b 714 793 456 708 565 793 b 976 479 882 793 976 678 l 976 11 l 946 11 l 946 479 b 711 765 946 664 864 765 b 414 399 544 765 421 632 z "},"ｉ":{"ha":1333,"x_min":0,"x_max":0,"o":"m 682 11 l 651 11 l 651 775 l 682 775 z m 682 958 l 651 958 l 651 1081 l 682 1081 z "},"ｊ":{"ha":1333,"x_min":0,"x_max":0,"o":"m 703 775 l 703 -168 b 550 -322 703 -283 642 -322 b 518 -321 538 -322 526 -322 l 518 -294 l 549 -294 b 672 -161 628 -294 672 -257 l 672 775 z m 703 958 l 672 958 l 672 1081 l 703 1081 z "},"ｋ":{"ha":1333,"x_min":0,"x_max":0,"o":"m 457 11 l 426 11 l 426 1081 l 457 1081 l 457 424 l 578 424 l 890 775 l 928 775 l 606 410 l 963 11 l 924 11 l 578 396 l 457 396 z "},"ｌ":{"ha":1333,"x_min":0,"x_max":0,"o":"m 682 11 l 651 11 l 651 1081 l 682 1081 z "},"ｍ":{"ha":1333,"x_min":0,"x_max":0,"o":"m 1156 11 l 1156 524 b 942 765 1156 683 1079 765 b 682 376 797 765 682 626 l 682 11 l 651 11 l 651 524 b 438 765 651 683 575 765 b 178 376 293 765 178 626 l 178 11 l 147 11 l 147 775 l 178 775 l 178 556 b 440 793 215 704 308 793 b 682 556 583 793 674 714 b 944 793 714 703 814 793 b 1186 531 1097 793 1186 701 l 1186 11 z "},"ｎ":{"ha":1333,"x_min":0,"x_max":0,"o":"m 400 11 l 369 11 l 369 775 l 400 775 l 400 558 b 700 793 442 708 551 793 b 963 479 868 793 963 678 l 963 11 l 932 11 l 932 479 b 697 765 932 664 850 765 b 400 399 531 765 407 632 z "},"ｏ":{"ha":1333,"x_min":0,"x_max":0,"o":"m 978 393 b 665 -7 978 144 882 -7 b 354 393 450 -7 354 144 b 665 793 354 642 450 793 b 978 393 882 793 978 642 z m 947 393 b 665 765 947 633 860 765 b 385 393 472 765 385 633 b 665 21 385 153 472 21 b 947 393 860 21 947 153 z "},"ｐ":{"ha":1333,"x_min":0,"x_max":0,"o":"m 1006 393 b 694 -7 1006 144 910 -7 b 413 193 547 -7 451 64 l 413 -322 l 382 -322 l 382 775 l 413 775 l 413 593 b 694 793 451 722 547 793 b 1006 393 910 793 1006 642 z m 975 393 b 694 765 975 633 888 765 b 413 393 500 765 413 633 b 694 21 413 153 500 21 b 975 393 888 21 975 153 z "},"ｑ":{"ha":1333,"x_min":0,"x_max":0,"o":"m 326 393 b 638 793 326 642 422 793 b 919 593 785 793 881 722 l 919 775 l 950 775 l 950 -322 l 919 -322 l 919 193 b 638 -7 881 64 785 -7 b 326 393 422 -7 326 144 z m 919 393 b 638 765 919 633 832 765 b 357 393 444 765 357 633 b 638 21 357 153 444 21 b 919 393 832 21 919 153 z "},"ｒ":{"ha":1333,"x_min":0,"x_max":0,"o":"m 807 764 b 563 393 656 764 563 653 l 563 11 l 532 11 l 532 775 l 563 775 l 563 572 b 806 793 590 724 681 793 b 857 789 826 793 847 792 l 857 760 b 807 764 846 763 825 764 z "},"ｓ":{"ha":1333,"x_min":0,"x_max":0,"o":"m 914 597 l 914 565 l 883 565 l 883 597 b 654 765 883 694 800 765 b 425 596 510 765 425 694 b 621 426 425 499 481 454 l 740 404 b 943 206 889 376 943 314 b 667 -7 943 75 828 -7 b 390 206 507 -7 390 75 l 390 235 l 421 235 l 421 206 b 667 21 421 90 525 21 b 913 206 808 21 913 90 b 726 378 913 303 865 351 l 607 400 b 394 597 456 429 394 488 b 654 793 394 704 486 793 b 914 597 822 793 914 704 z "},"ｔ":{"ha":1333,"x_min":0,"x_max":0,"o":"m 626 747 l 626 204 b 808 28 626 63 694 28 l 882 28 l 882 1 b 810 0 854 0 832 0 b 596 207 667 0 596 50 l 596 747 l 478 747 l 478 775 l 596 775 l 596 992 l 626 992 l 626 775 l 882 775 l 882 747 z "},"ｕ":{"ha":1333,"x_min":0,"x_max":0,"o":"m 400 775 l 400 307 b 635 21 400 122 482 21 b 932 388 801 21 925 153 l 932 775 l 963 775 l 963 11 l 932 11 l 932 228 b 632 -7 890 78 781 -7 b 369 307 464 -7 369 108 l 369 775 z "},"ｖ":{"ha":1333,"x_min":0,"x_max":0,"o":"m 651 11 l 331 775 l 367 775 l 667 53 l 968 775 l 1003 775 l 682 11 z "},"ｗ":{"ha":1333,"x_min":0,"x_max":0,"o":"m 651 775 l 682 775 l 940 56 l 1194 775 l 1231 775 l 956 11 l 925 11 l 667 731 l 408 11 l 378 11 l 103 775 l 138 775 l 393 56 z "},"ｘ":{"ha":1333,"x_min":0,"x_max":0,"o":"m 951 11 l 667 376 l 383 11 l 343 11 l 647 403 l 358 775 l 399 775 l 667 428 l 936 775 l 975 775 l 686 403 l 990 11 z "},"ｙ":{"ha":1333,"x_min":0,"x_max":0,"o":"m 569 -189 l 650 10 l 331 775 l 367 775 l 667 47 l 968 775 l 1003 775 l 597 -197 b 428 -322 551 -306 511 -322 b 406 -321 415 -322 415 -322 l 406 -294 l 425 -294 b 569 -189 497 -294 533 -276 z "},"ｚ":{"ha":1333,"x_min":0,"x_max":0,"o":"m 919 775 l 919 747 l 438 39 l 931 39 l 931 11 l 401 11 l 401 39 l 885 747 l 414 747 l 414 775 z "},"ㄱ":{"ha":1333,"x_min":0,"x_max":0,"o":"m 285 865 l 1035 865 l 1035 258 l 1004 258 l 1004 838 l 285 838 z "},"ㄲ":{"ha":1333,"x_min":0,"x_max":0,"o":"m 229 865 l 606 865 l 606 258 l 575 258 l 575 838 l 229 838 z m 708 865 l 1090 865 l 1090 258 l 1060 258 l 1060 838 l 708 838 z "},"ㄳ":{"ha":1333,"x_min":0,"x_max":0,"o":"m 208 865 l 557 865 l 557 258 l 526 258 l 526 838 l 208 838 z m 894 865 l 894 582 b 1113 286 894 414 1008 315 l 1113 258 b 879 469 1000 286 914 369 b 644 258 847 371 758 285 l 644 286 b 863 582 751 313 863 411 l 863 865 z "},"ㄴ":{"ha":1333,"x_min":0,"x_max":0,"o":"m 1049 258 l 299 258 l 299 865 l 329 865 l 329 286 l 1049 286 z "},"ㄵ":{"ha":1333,"x_min":0,"x_max":0,"o":"m 563 286 l 563 258 l 226 258 l 226 865 l 257 865 l 257 286 z m 851 838 l 636 838 l 636 865 l 1100 865 l 1100 838 l 882 838 l 882 553 b 1108 286 882 413 1010 308 l 1108 258 b 867 468 1000 286 900 372 b 626 258 838 372 742 286 l 626 286 b 851 553 728 308 851 411 z "},"ㄶ":{"ha":1333,"x_min":0,"x_max":0,"o":"m 576 783 l 843 783 l 843 942 l 874 942 l 874 783 l 1140 783 l 1140 756 l 576 756 z m 563 286 l 563 258 l 226 258 l 226 865 l 257 865 l 257 286 z m 642 431 b 699 311 642 383 663 342 b 857 258 738 278 794 258 b 1015 311 919 258 976 278 b 1072 431 1051 342 1072 383 b 1015 550 1072 478 1051 519 b 857 603 976 583 919 603 b 699 550 794 603 738 583 b 642 431 663 519 642 478 z m 611 431 b 681 571 611 486 638 535 b 857 631 725 608 789 631 b 1033 571 925 631 989 608 b 1103 431 1076 535 1103 486 b 1033 290 1103 375 1076 326 b 857 231 989 253 925 231 b 681 290 789 231 725 253 b 611 431 638 326 611 375 z "},"ㄷ":{"ha":1333,"x_min":0,"x_max":0,"o":"m 329 286 l 1049 286 l 1049 258 l 299 258 l 299 865 l 1035 865 l 1035 838 l 329 838 z "},"ㄸ":{"ha":1333,"x_min":0,"x_max":0,"o":"m 744 286 l 1097 286 l 1097 258 l 714 258 l 714 865 l 1083 865 l 1083 838 l 744 838 z m 278 838 l 278 286 l 617 286 l 617 258 l 247 258 l 247 865 l 601 865 l 601 838 z "},"ㄹ":{"ha":1333,"x_min":0,"x_max":0,"o":"m 336 272 l 1056 272 l 1056 244 l 306 244 l 306 578 l 997 578 l 997 851 l 306 851 l 306 879 l 1028 879 l 1028 550 l 336 550 z "},"ㄺ":{"ha":1333,"x_min":0,"x_max":0,"o":"m 707 286 l 707 258 l 240 258 l 240 578 l 592 578 l 592 838 l 240 838 l 240 865 l 622 865 l 622 550 l 271 550 l 271 286 z m 1100 865 l 1100 258 l 1069 258 l 1069 838 l 721 838 l 721 865 z "},"ㄻ":{"ha":1333,"x_min":0,"x_max":0,"o":"m 719 865 l 1100 865 l 1100 258 l 719 258 z m 750 838 l 750 286 l 1069 286 l 1069 838 z m 631 286 l 631 258 l 240 258 l 240 578 l 571 578 l 571 838 l 240 838 l 240 865 l 601 865 l 601 550 l 271 550 l 271 286 z "},"ㄼ":{"ha":1333,"x_min":0,"x_max":0,"o":"m 750 611 l 1069 611 l 1069 865 l 1100 865 l 1100 258 l 719 258 l 719 865 l 750 865 z m 750 583 l 750 286 l 1069 286 l 1069 583 z m 631 286 l 631 258 l 240 258 l 240 578 l 571 578 l 571 838 l 240 838 l 240 865 l 601 865 l 601 550 l 271 550 l 271 286 z "},"ㄽ":{"ha":1333,"x_min":0,"x_max":0,"o":"m 631 286 l 631 258 l 240 258 l 240 578 l 571 578 l 571 838 l 240 838 l 240 865 l 601 865 l 601 550 l 271 550 l 271 286 z m 876 865 l 908 865 l 908 554 b 1113 286 908 414 1015 311 l 1113 258 b 893 463 1007 283 926 372 b 672 258 863 372 776 283 l 672 286 b 876 554 767 311 876 414 z "},"ㄾ":{"ha":1333,"x_min":0,"x_max":0,"o":"m 750 286 l 1110 286 l 1110 258 l 719 258 l 719 865 l 1100 865 l 1100 838 l 750 838 l 750 578 l 1086 578 l 1086 550 l 750 550 z m 631 258 l 240 258 l 240 578 l 571 578 l 571 838 l 240 838 l 240 865 l 601 865 l 601 550 l 271 550 l 271 286 l 631 286 z "},"ㄿ":{"ha":1333,"x_min":0,"x_max":0,"o":"m 790 838 l 790 286 l 974 286 l 974 838 z m 1004 286 l 1107 286 l 1107 258 l 660 258 l 660 286 l 760 286 l 760 838 l 664 838 l 664 865 l 1100 865 l 1100 838 l 1004 838 z m 603 258 l 240 258 l 240 578 l 550 578 l 550 838 l 240 838 l 240 865 l 581 865 l 581 550 l 271 550 l 271 286 l 603 286 z "},"ㅀ":{"ha":1333,"x_min":0,"x_max":0,"o":"m 631 286 l 631 258 l 240 258 l 240 578 l 557 578 l 557 838 l 240 838 l 240 865 l 588 865 l 588 550 l 271 550 l 271 286 z m 660 783 l 892 783 l 892 942 l 922 942 l 922 783 l 1154 783 l 1154 756 l 660 756 z m 718 431 b 769 310 718 382 738 340 b 906 258 803 278 850 258 b 1042 310 961 258 1008 278 b 1093 431 1074 340 1093 382 b 1042 551 1093 479 1074 521 b 906 603 1008 583 961 603 b 769 551 850 603 803 583 b 718 431 738 521 718 479 z m 688 431 b 749 572 688 488 710 536 b 906 631 788 608 842 631 b 1063 572 969 631 1024 608 b 1124 431 1101 536 1124 488 b 1063 289 1124 374 1101 325 b 906 231 1024 253 969 231 b 749 289 842 231 788 253 b 688 431 710 325 688 374 z "},"ㅁ":{"ha":1333,"x_min":0,"x_max":0,"o":"m 299 865 l 1035 865 l 1035 258 l 299 258 z m 1004 838 l 329 838 l 329 286 l 1004 286 z "},"ㅂ":{"ha":1333,"x_min":0,"x_max":0,"o":"m 329 604 l 1004 604 l 1004 865 l 1035 865 l 1035 258 l 299 258 l 299 865 l 329 865 z m 1004 576 l 329 576 l 329 286 l 1004 286 z "},"ㅃ":{"ha":1333,"x_min":0,"x_max":0,"o":"m 301 607 l 657 607 l 657 865 l 688 865 l 688 607 l 1032 607 l 1032 865 l 1063 865 l 1063 258 l 271 258 l 271 865 l 301 865 z m 1032 579 l 688 579 l 688 286 l 1032 286 z m 657 579 l 301 579 l 301 286 l 657 286 z "},"ㅄ":{"ha":1333,"x_min":0,"x_max":0,"o":"m 271 601 l 590 601 l 590 865 l 621 865 l 621 258 l 240 258 l 240 865 l 271 865 z m 271 574 l 271 286 l 590 286 l 590 574 z m 876 865 l 908 865 l 908 554 b 1113 286 908 414 1015 311 l 1113 258 b 893 463 1007 283 926 372 b 672 258 863 372 776 283 l 672 286 b 876 554 767 311 876 414 z "},"ㅅ":{"ha":1333,"x_min":0,"x_max":0,"o":"m 665 599 b 247 244 617 444 497 310 l 247 275 b 650 722 478 335 650 489 l 650 879 l 681 879 l 681 722 b 1083 275 681 489 868 336 l 1083 244 b 665 599 854 313 715 444 z "},"ㅆ":{"ha":1333,"x_min":0,"x_max":0,"o":"m 667 257 b 436 575 553 335 468 447 b 181 256 404 447 324 329 l 181 286 b 421 696 307 353 421 492 l 421 865 l 451 865 l 451 696 b 667 290 451 504 558 364 b 882 696 786 365 882 503 l 882 865 l 913 865 l 913 696 b 1153 286 913 492 1029 353 l 1153 256 b 897 575 1011 333 933 449 b 667 257 869 447 786 328 z "},"ㅇ":{"ha":1333,"x_min":0,"x_max":0,"o":"m 303 563 b 392 357 303 476 335 407 b 667 267 457 299 554 267 b 942 357 779 267 876 299 b 1031 563 999 407 1031 476 b 942 768 1031 649 999 718 b 667 858 876 826 779 858 b 392 768 554 858 457 826 b 303 563 335 718 303 649 z m 272 563 b 374 789 272 657 310 733 b 667 886 444 851 547 886 b 960 789 786 886 889 851 b 1061 563 1024 733 1061 657 b 960 336 1061 468 1024 392 b 667 239 889 274 786 239 b 374 336 547 239 444 274 b 272 563 310 392 272 468 z "},"ㅈ":{"ha":1333,"x_min":0,"x_max":0,"o":"m 1054 838 l 681 838 l 681 708 b 1069 275 681 489 857 336 l 1069 244 b 665 592 856 303 714 436 b 261 244 621 435 496 303 l 261 275 b 650 708 489 335 650 489 l 650 838 l 278 838 l 278 865 l 1054 865 z "},"ㅉ":{"ha":1333,"x_min":0,"x_max":0,"o":"m 1121 838 l 899 838 l 899 682 b 1139 286 899 486 1021 347 l 1139 256 b 883 583 1001 329 913 454 b 667 257 863 461 775 328 b 450 583 564 335 476 460 b 194 256 425 456 333 325 l 194 286 b 435 682 315 343 435 486 l 435 838 l 228 838 l 228 865 l 1121 865 z m 868 838 l 465 838 l 465 682 b 667 289 465 504 575 360 b 868 682 769 361 868 503 z "},"ㅊ":{"ha":1333,"x_min":0,"x_max":0,"o":"m 1054 740 l 681 740 l 681 708 b 1069 275 681 489 857 336 l 1069 244 b 665 592 856 303 714 436 b 261 244 621 435 496 303 l 261 275 b 650 708 489 335 650 489 l 650 740 l 278 740 l 278 768 l 650 768 l 650 969 l 681 969 l 681 768 l 1054 768 z "},"ㅋ":{"ha":1333,"x_min":0,"x_max":0,"o":"m 299 865 l 1035 865 l 1035 258 l 1004 258 l 1004 533 b 649 508 904 517 768 508 l 299 508 l 299 536 l 650 536 b 1004 560 764 536 903 543 l 1004 838 l 299 838 z "},"ㅌ":{"ha":1333,"x_min":0,"x_max":0,"o":"m 336 272 l 1056 272 l 1056 244 l 306 244 l 306 879 l 1028 879 l 1028 851 l 336 851 l 336 578 l 1014 578 l 1014 550 l 336 550 z "},"ㅍ":{"ha":1333,"x_min":0,"x_max":0,"o":"m 858 551 l 858 838 l 479 838 l 479 286 l 824 286 b 858 551 850 356 858 457 z m 889 838 l 889 561 b 854 286 889 460 881 356 l 1090 286 l 1090 258 l 243 258 l 243 286 l 449 286 l 449 838 l 271 838 l 271 865 l 1063 865 l 1063 838 z "},"ㅎ":{"ha":1333,"x_min":0,"x_max":0,"o":"m 253 796 l 650 796 l 650 982 l 681 982 l 681 796 l 1081 796 l 1081 768 l 253 768 z m 1004 424 b 958 524 1004 464 988 497 b 667 601 899 576 788 601 b 375 524 546 601 435 576 b 329 424 346 497 329 464 b 375 324 329 383 346 350 b 667 246 435 271 546 246 b 958 324 788 246 899 271 b 1004 424 988 350 1004 383 z m 299 424 b 357 544 299 474 319 513 b 667 629 424 601 542 629 b 976 544 792 629 910 601 b 1035 424 1014 513 1035 474 b 976 303 1035 374 1014 335 b 667 218 910 246 792 218 b 357 303 542 218 424 246 b 299 424 319 335 299 374 z "},"ㅏ":{"ha":1333,"x_min":0,"x_max":0,"o":"m 653 1157 l 653 615 l 921 615 l 921 586 l 653 586 l 653 -60 l 621 -60 l 621 1157 z "},"ㅐ":{"ha":1333,"x_min":0,"x_max":0,"o":"m 847 -60 l 814 -60 l 814 596 l 518 596 l 518 -43 l 486 -43 l 486 1147 l 518 1147 l 518 625 l 814 625 l 814 1157 l 847 1157 z "},"ㅑ":{"ha":1333,"x_min":0,"x_max":0,"o":"m 653 1157 l 653 815 l 918 815 l 918 786 l 653 786 l 653 397 l 918 397 l 918 368 l 653 368 l 653 -60 l 621 -60 l 621 1157 z "},"ㅒ":{"ha":1333,"x_min":0,"x_max":0,"o":"m 847 -60 l 814 -60 l 814 363 l 518 363 l 518 -43 l 486 -43 l 486 1147 l 518 1147 l 518 832 l 814 832 l 814 1157 l 847 1157 z m 518 393 l 814 393 l 814 803 l 518 803 z "},"ㅓ":{"ha":1333,"x_min":0,"x_max":0,"o":"m 681 615 l 681 1157 l 713 1157 l 713 -60 l 681 -60 l 681 586 l 413 586 l 413 615 z "},"ㅔ":{"ha":1333,"x_min":0,"x_max":0,"o":"m 868 -60 l 835 -60 l 835 1157 l 868 1157 z m 560 599 l 306 599 l 306 629 l 560 629 l 560 1147 l 593 1147 l 593 -43 l 560 -43 z "},"ㅕ":{"ha":1333,"x_min":0,"x_max":0,"o":"m 681 815 l 681 1157 l 713 1157 l 713 -60 l 681 -60 l 681 368 l 415 368 l 415 397 l 681 397 l 681 786 l 415 786 l 415 815 z "},"ㅖ":{"ha":1333,"x_min":0,"x_max":0,"o":"m 560 782 l 314 782 l 314 811 l 560 811 l 560 1147 l 593 1147 l 593 -43 l 560 -43 l 560 386 l 314 386 l 314 415 l 560 415 z m 868 -60 l 835 -60 l 835 1157 l 868 1157 z "},"ㅗ":{"ha":1333,"x_min":0,"x_max":0,"o":"m 128 292 l 128 322 l 649 322 l 649 849 l 682 849 l 682 322 l 1206 322 l 1206 292 z "},"ㅘ":{"ha":1333,"x_min":0,"x_max":0,"o":"m 407 572 l 440 572 l 440 101 l 640 101 b 996 208 785 101 911 138 l 996 1157 l 1028 1157 l 1028 615 l 1268 615 l 1268 586 l 1028 586 l 1028 -60 l 996 -60 l 996 176 b 640 72 915 107 788 72 l 76 72 l 76 101 l 407 101 z "},"ㅙ":{"ha":1333,"x_min":0,"x_max":0,"o":"m 400 571 l 433 571 l 433 101 l 524 101 b 824 193 647 101 753 129 l 824 1147 l 857 1147 l 857 633 l 1113 633 l 1113 1157 l 1146 1157 l 1146 -60 l 1113 -60 l 1113 604 l 857 604 l 857 -42 l 824 -42 l 824 161 b 524 72 758 101 649 72 l 132 72 l 132 101 l 400 101 z "},"ㅚ":{"ha":1333,"x_min":0,"x_max":0,"o":"m 468 572 l 501 572 l 501 101 l 708 101 b 1064 208 853 101 979 138 l 1064 1157 l 1097 1157 l 1097 -60 l 1064 -60 l 1064 176 b 708 72 983 107 856 72 l 132 72 l 132 101 l 468 101 z "},"ㅛ":{"ha":1333,"x_min":0,"x_max":0,"o":"m 878 828 l 910 828 l 910 322 l 1206 322 l 1206 292 l 128 292 l 128 322 l 432 322 l 432 828 l 465 828 l 465 322 l 878 322 z "},"ㅜ":{"ha":1333,"x_min":0,"x_max":0,"o":"m 128 538 l 128 567 l 1206 567 l 1206 538 l 682 538 l 682 15 l 649 15 l 649 538 z "},"ㅝ":{"ha":1333,"x_min":0,"x_max":0,"o":"m 1099 1157 l 1099 -60 l 1067 -60 l 1067 197 l 733 197 l 733 228 l 1067 228 l 1067 1157 z m 594 474 l 457 474 l 457 -61 l 424 -61 l 424 474 l 90 474 l 90 504 l 594 504 b 925 569 717 504 849 522 l 925 539 b 594 474 851 490 719 474 z "},"ㅞ":{"ha":1333,"x_min":0,"x_max":0,"o":"m 1113 1157 l 1146 1157 l 1146 -60 l 1113 -60 z m 464 478 l 407 478 l 407 -61 l 374 -61 l 374 478 l 132 478 l 132 507 l 464 507 b 742 557 572 507 671 517 l 742 528 b 464 478 675 488 576 478 z m 846 215 l 619 215 l 619 246 l 846 246 l 846 1147 l 879 1147 l 879 -43 l 846 -43 z "},"ㅟ":{"ha":1333,"x_min":0,"x_max":0,"o":"m 711 444 l 483 444 l 483 -61 l 450 -61 l 450 444 l 90 444 l 90 474 l 711 474 b 1067 581 856 474 982 510 l 1067 1157 l 1099 1157 l 1099 -60 l 1067 -60 l 1067 549 b 711 444 986 479 858 444 z "},"ㅠ":{"ha":1333,"x_min":0,"x_max":0,"o":"m 893 538 l 446 538 l 446 25 l 413 25 l 413 538 l 128 538 l 128 567 l 1206 567 l 1206 538 l 926 538 l 926 25 l 893 25 z "},"ㅡ":{"ha":1333,"x_min":0,"x_max":0,"o":"m 128 292 l 128 322 l 1206 322 l 1206 292 z "},"ㅢ":{"ha":1333,"x_min":0,"x_max":0,"o":"m 1097 -60 l 1064 -60 l 1064 190 b 708 86 983 121 856 86 l 118 86 l 118 115 l 708 115 b 1064 222 853 115 979 151 l 1064 1157 l 1097 1157 z "},"ㅣ":{"ha":1333,"x_min":0,"x_max":0,"o":"m 650 -60 l 650 1157 l 683 1157 l 683 -60 z "},"ㅥ":{"ha":1333,"x_min":0,"x_max":0,"o":"m 625 286 l 625 258 l 240 258 l 240 865 l 271 865 l 271 286 z m 1104 286 l 1104 258 l 719 258 l 719 865 l 750 865 l 750 286 z "},"ㅦ":{"ha":1333,"x_min":0,"x_max":0,"o":"m 743 286 l 1097 286 l 1097 258 l 713 258 l 713 865 l 1089 865 l 1089 838 l 743 838 z m 618 258 l 240 258 l 240 865 l 271 865 l 271 286 l 618 286 z "},"ㅧ":{"ha":1333,"x_min":0,"x_max":0,"o":"m 590 286 l 590 258 l 240 258 l 240 865 l 271 865 l 271 286 z m 863 865 l 894 865 l 894 582 b 1113 286 894 414 1008 315 l 1113 258 b 879 469 1000 286 914 369 b 644 258 847 371 758 285 l 644 286 b 863 582 751 313 863 411 z "},"ㅨ":{"ha":1333,"x_min":0,"x_max":0,"o":"m 590 258 l 240 258 l 240 865 l 271 865 l 271 286 l 590 286 z m 875 838 l 676 286 l 1071 286 z m 875 921 l 1113 258 l 635 258 z "},"ㅩ":{"ha":1333,"x_min":0,"x_max":0,"o":"m 493 286 l 493 258 l 138 258 l 138 576 l 407 576 l 407 838 l 138 838 l 138 865 l 438 865 l 438 549 l 168 549 l 168 286 z m 796 865 l 796 258 l 765 258 l 765 838 l 510 838 l 510 865 z m 1028 865 l 1060 865 l 1060 526 b 1229 286 1060 393 1149 311 l 1229 258 b 1044 438 1140 286 1071 360 b 858 258 1019 360 946 285 l 858 286 b 1028 526 936 311 1028 393 z "},"ㅪ":{"ha":1333,"x_min":0,"x_max":0,"o":"m 771 286 l 1108 286 l 1108 258 l 740 258 l 740 865 l 1100 865 l 1100 838 l 771 838 z m 638 258 l 240 258 l 240 578 l 578 578 l 578 838 l 240 838 l 240 865 l 608 865 l 608 550 l 271 550 l 271 286 l 638 286 z "},"ㅫ":{"ha":1333,"x_min":0,"x_max":0,"o":"m 549 603 l 799 603 l 799 865 l 829 865 l 829 258 l 518 258 l 518 865 l 549 865 z m 549 575 l 549 286 l 799 286 l 799 575 z m 451 286 l 451 258 l 138 258 l 138 576 l 393 576 l 393 838 l 138 838 l 138 865 l 424 865 l 424 549 l 168 549 l 168 286 z m 1028 865 l 1060 865 l 1060 526 b 1229 286 1060 393 1149 311 l 1229 258 b 1044 438 1140 286 1071 360 b 858 258 1019 360 946 285 l 858 286 b 1028 526 936 311 1028 393 z "},"ㅬ":{"ha":1333,"x_min":0,"x_max":0,"o":"m 631 286 l 631 258 l 240 258 l 240 578 l 571 578 l 571 838 l 240 838 l 240 865 l 601 865 l 601 550 l 271 550 l 271 286 z m 892 838 l 701 286 l 1081 286 z m 892 919 l 1122 258 l 660 258 z "},"ㅭ":{"ha":1333,"x_min":0,"x_max":0,"o":"m 1085 450 b 1019 592 1085 508 1058 558 b 904 635 988 618 947 635 b 789 592 861 635 821 618 b 724 450 750 558 724 508 b 789 308 724 392 750 342 b 904 265 821 282 861 265 b 1019 308 947 265 988 282 b 1085 450 1058 342 1085 392 z m 1132 838 l 681 838 l 681 865 l 1132 865 z m 631 286 l 631 258 l 240 258 l 240 578 l 557 578 l 557 838 l 240 838 l 240 865 l 588 865 l 588 550 l 271 550 l 271 286 z m 693 450 b 769 614 693 518 724 576 b 904 663 807 644 854 663 b 1039 614 954 663 1001 644 b 1115 450 1085 576 1115 518 b 1039 286 1115 382 1085 324 b 904 238 1001 256 954 238 b 769 286 854 238 807 256 b 693 450 724 324 693 382 z "},"ㅮ":{"ha":1333,"x_min":0,"x_max":0,"o":"m 240 865 l 615 865 l 615 258 l 240 258 z m 271 838 l 271 286 l 585 286 l 585 838 z m 756 611 l 1069 611 l 1069 865 l 1100 865 l 1100 258 l 725 258 l 725 865 l 756 865 z m 756 583 l 756 286 l 1069 286 l 1069 583 z "},"ㅯ":{"ha":1333,"x_min":0,"x_max":0,"o":"m 240 865 l 621 865 l 621 258 l 240 258 z m 271 838 l 271 286 l 590 286 l 590 838 z m 876 865 l 908 865 l 908 554 b 1113 286 908 414 1015 311 l 1113 258 b 893 463 1007 283 926 372 b 672 258 863 372 776 283 l 672 286 b 876 554 767 311 876 414 z "},"ㅰ":{"ha":1333,"x_min":0,"x_max":0,"o":"m 240 865 l 621 865 l 621 258 l 240 258 z m 271 838 l 271 286 l 590 286 l 590 838 z m 892 838 l 701 286 l 1081 286 z m 892 919 l 1122 258 l 660 258 z "},"ㅱ":{"ha":1333,"x_min":0,"x_max":0,"o":"m 354 1008 l 979 1008 l 979 568 l 354 568 z m 949 981 l 385 981 l 385 596 l 949 596 z m 436 268 b 478 172 436 229 451 197 b 667 110 521 131 593 110 b 856 172 740 110 813 131 b 897 268 882 197 897 229 b 856 364 897 307 882 339 b 667 426 813 406 740 426 b 478 364 593 426 521 406 b 436 268 451 339 436 307 z m 406 268 b 457 383 406 315 425 354 b 667 454 507 431 588 454 b 876 383 746 454 826 431 b 928 268 908 354 928 315 b 876 153 928 221 908 182 b 667 82 826 106 746 82 b 457 153 588 82 507 106 b 406 268 425 182 406 221 z "},"ㅲ":{"ha":1333,"x_min":0,"x_max":0,"o":"m 271 608 l 604 608 l 604 865 l 635 865 l 635 258 l 240 258 l 240 865 l 271 865 z m 271 581 l 271 286 l 604 286 l 604 581 z m 1100 865 l 1100 258 l 1069 258 l 1069 838 l 735 838 l 735 865 z "},"ㅳ":{"ha":1333,"x_min":0,"x_max":0,"o":"m 785 286 l 1108 286 l 1108 258 l 754 258 l 754 865 l 1100 865 l 1100 838 l 785 838 z m 590 608 l 590 865 l 621 865 l 621 258 l 240 258 l 240 865 l 271 865 l 271 608 z m 271 286 l 590 286 l 590 581 l 271 581 z "},"ㅴ":{"ha":1333,"x_min":0,"x_max":0,"o":"m 1157 865 l 1157 258 l 1126 258 l 1126 838 l 878 838 l 878 865 z m 196 603 l 446 603 l 446 865 l 476 865 l 476 258 l 165 258 l 165 865 l 196 865 z m 196 575 l 196 286 l 446 286 l 446 575 z m 689 865 l 721 865 l 721 526 b 890 286 721 393 810 311 l 890 258 b 706 438 801 286 732 360 b 519 258 681 360 607 285 l 519 286 b 689 526 597 311 689 393 z "},"ㅵ":{"ha":1333,"x_min":0,"x_max":0,"o":"m 1157 865 l 1157 838 l 924 838 l 924 286 l 1171 286 l 1171 258 l 893 258 l 893 865 z m 196 603 l 432 603 l 432 865 l 463 865 l 463 258 l 165 258 l 165 865 l 196 865 z m 196 575 l 196 286 l 432 286 l 432 575 z m 661 865 l 693 865 l 693 526 b 856 286 693 396 776 311 l 856 258 b 678 442 769 289 700 361 b 499 258 656 363 586 285 l 499 286 b 661 526 575 310 661 396 z "},"ㅶ":{"ha":1333,"x_min":0,"x_max":0,"o":"m 1108 838 l 915 838 l 915 540 b 1113 286 915 407 1017 311 l 1113 258 b 900 453 1010 283 931 367 b 686 258 871 367 788 283 l 686 286 b 883 540 779 311 883 407 l 883 838 l 708 838 l 708 865 l 1108 865 z m 271 608 l 590 608 l 590 865 l 621 865 l 621 258 l 240 258 l 240 865 l 271 865 z m 271 581 l 271 286 l 590 286 l 590 581 z "},"ㅷ":{"ha":1333,"x_min":0,"x_max":0,"o":"m 271 608 l 583 608 l 583 865 l 614 865 l 614 258 l 240 258 l 240 865 l 271 865 z m 271 581 l 271 286 l 583 286 l 583 581 z m 764 286 l 1110 286 l 1110 258 l 733 258 l 733 865 l 1100 865 l 1100 838 l 764 838 l 764 578 l 1086 578 l 1086 550 l 764 550 z "},"ㅸ":{"ha":1333,"x_min":0,"x_max":0,"o":"m 385 824 l 949 824 l 949 1008 l 979 1008 l 979 568 l 354 568 l 354 1008 l 385 1008 z m 949 796 l 385 796 l 385 596 l 949 596 z m 436 268 b 478 172 436 229 451 197 b 667 110 521 131 593 110 b 856 172 740 110 813 131 b 897 268 882 197 897 229 b 856 364 897 307 882 339 b 667 426 813 406 740 426 b 478 364 593 426 521 406 b 436 268 451 339 436 307 z m 406 268 b 457 383 406 315 425 354 b 667 454 507 431 588 454 b 876 383 746 454 826 431 b 928 268 908 354 928 315 b 876 153 928 221 908 182 b 667 82 826 106 746 82 b 457 153 588 82 507 106 b 406 268 425 182 406 221 z "},"ㅹ":{"ha":1333,"x_min":0,"x_max":0,"o":"m 357 822 l 657 822 l 657 1008 l 688 1008 l 688 822 l 976 822 l 976 1008 l 1007 1008 l 1007 568 l 326 568 l 326 1008 l 357 1008 z m 976 794 l 688 794 l 688 596 l 976 596 z m 657 794 l 357 794 l 357 596 l 657 596 z m 436 268 b 478 172 436 229 451 197 b 667 110 521 131 593 110 b 856 172 740 110 813 131 b 897 268 882 197 897 229 b 856 364 897 307 882 339 b 667 426 813 406 740 426 b 478 364 593 426 521 406 b 436 268 451 339 436 307 z m 406 268 b 457 383 406 315 425 354 b 667 454 507 431 588 454 b 876 383 746 454 826 431 b 928 268 908 354 928 315 b 876 153 928 221 908 182 b 667 82 826 106 746 82 b 457 153 588 82 507 106 b 406 268 425 182 406 221 z "},"ㅺ":{"ha":1333,"x_min":0,"x_max":0,"o":"m 456 865 l 488 865 l 488 582 b 706 286 488 414 601 315 l 706 258 b 472 469 593 286 507 369 b 238 258 440 371 351 285 l 238 286 b 456 582 344 313 456 411 z m 715 865 l 1078 865 l 1078 258 l 1047 258 l 1047 838 l 715 838 z "},"ㅻ":{"ha":1333,"x_min":0,"x_max":0,"o":"m 1104 286 l 1104 258 l 754 258 l 754 865 l 785 865 l 785 286 z m 414 865 l 446 865 l 446 554 b 650 286 446 414 553 311 l 650 258 b 431 463 544 283 464 372 b 210 258 400 372 314 283 l 210 286 b 414 554 304 311 414 414 z "},"ㅼ":{"ha":1333,"x_min":0,"x_max":0,"o":"m 764 286 l 1094 286 l 1094 258 l 733 258 l 733 865 l 1086 865 l 1086 838 l 764 838 z m 446 865 l 446 582 b 664 286 446 414 560 315 l 664 258 b 431 469 551 286 465 369 b 196 258 399 371 310 285 l 196 286 b 414 582 303 313 414 411 l 414 865 z "},"ㅽ":{"ha":1333,"x_min":0,"x_max":0,"o":"m 400 865 l 432 865 l 432 554 b 636 286 432 414 539 311 l 636 258 b 417 463 531 283 450 372 b 196 258 386 372 300 283 l 196 286 b 400 554 290 311 400 414 z m 756 611 l 1069 611 l 1069 865 l 1100 865 l 1100 258 l 725 258 l 725 865 l 756 865 z m 756 583 l 756 286 l 1069 286 l 1069 583 z "},"ㅾ":{"ha":1333,"x_min":0,"x_max":0,"o":"m 1121 838 l 899 838 l 899 682 b 1139 286 899 486 1021 347 l 1139 256 b 883 583 1001 329 913 454 b 667 257 863 461 775 328 b 450 583 564 335 476 460 b 194 256 425 456 333 325 l 194 286 b 435 682 315 343 435 486 l 435 865 l 465 865 l 465 682 b 667 289 465 504 575 360 b 868 682 769 361 868 503 l 868 838 l 644 838 l 644 865 l 1121 865 z "},"ㅿ":{"ha":1333,"x_min":0,"x_max":0,"o":"m 257 258 l 664 935 l 1078 258 z m 664 881 l 308 286 l 1026 286 z "},"ㆀ":{"ha":1333,"x_min":0,"x_max":0,"o":"m 243 563 b 324 308 243 447 269 356 b 421 274 350 286 382 274 b 518 308 460 274 492 286 b 599 563 572 356 599 447 b 518 817 599 678 572 769 b 421 851 492 839 460 851 b 324 817 382 851 350 839 b 243 563 269 769 243 678 z m 213 563 b 306 840 213 692 243 789 b 421 879 336 865 375 879 b 536 840 467 879 506 865 b 629 563 599 789 629 692 b 536 285 629 433 599 336 b 421 246 506 260 467 246 b 306 285 375 246 336 260 b 213 563 243 336 213 433 z m 742 563 b 822 308 742 447 768 356 b 919 274 849 286 881 274 b 1017 308 958 274 990 286 b 1097 563 1071 356 1097 447 b 1017 817 1097 678 1071 769 b 919 851 990 839 958 851 b 822 817 881 851 849 839 b 742 563 768 769 742 678 z m 711 563 b 804 840 711 692 742 789 b 919 879 835 865 874 879 b 1035 840 965 879 1004 865 b 1128 563 1097 789 1128 692 b 1035 285 1128 433 1097 336 b 919 246 1004 260 965 246 b 804 285 874 246 835 260 b 711 563 742 336 711 433 z "},"ㆁ":{"ha":1333,"x_min":0,"x_max":0,"o":"m 681 968 l 681 775 b 961 688 794 772 893 740 b 1060 493 1022 639 1060 572 b 961 299 1060 414 1022 347 b 665 211 890 243 786 211 b 369 299 544 211 440 243 b 271 493 308 347 271 414 b 369 688 271 572 308 639 b 650 775 438 740 536 772 l 650 968 z m 301 493 b 386 322 301 425 332 365 b 665 239 451 269 549 239 b 944 322 782 239 879 269 b 1029 493 999 365 1029 425 b 944 664 1029 561 999 621 b 665 747 879 717 782 747 b 386 664 549 747 451 717 b 301 493 332 621 301 561 z "},"ㆂ":{"ha":1333,"x_min":0,"x_max":0,"o":"m 439 914 l 439 754 b 564 700 489 750 531 732 b 635 500 610 656 635 588 b 564 300 635 413 610 344 b 424 246 528 265 481 246 b 283 300 367 246 319 265 b 213 500 238 344 213 413 b 283 700 213 588 238 656 b 408 754 317 732 358 750 l 408 914 z m 894 865 l 894 582 b 1113 286 894 414 1008 315 l 1113 258 b 879 469 1000 286 914 369 b 644 258 847 371 758 285 l 644 286 b 863 582 751 313 863 411 l 863 865 z m 243 500 b 303 321 243 424 264 361 b 424 274 332 290 372 274 b 544 321 475 274 515 290 b 604 500 583 361 604 424 b 544 679 604 576 583 639 b 424 726 515 710 475 726 b 303 679 372 726 332 710 b 243 500 264 639 243 576 z "},"ㆃ":{"ha":1333,"x_min":0,"x_max":0,"o":"m 439 914 l 439 754 b 564 700 489 750 531 732 b 635 500 610 656 635 588 b 564 300 635 413 610 344 b 424 246 528 265 481 246 b 283 300 367 246 319 265 b 213 500 238 344 213 413 b 283 700 213 588 238 656 b 408 754 317 732 358 750 l 408 914 z m 243 500 b 303 321 243 424 264 361 b 424 274 332 290 372 274 b 544 321 475 274 515 290 b 604 500 583 361 604 424 b 544 679 604 576 583 639 b 424 726 515 710 475 726 b 303 679 372 726 332 710 b 243 500 264 639 243 576 z m 892 838 l 701 286 l 1081 286 z m 892 919 l 1122 258 l 660 258 z "},"ㆄ":{"ha":1333,"x_min":0,"x_max":0,"o":"m 299 568 l 299 596 l 476 596 l 476 981 l 326 981 l 326 1008 l 1007 1008 l 1007 981 l 857 981 l 857 804 b 832 596 857 735 851 647 l 1035 596 l 1035 568 z m 507 981 l 507 596 l 800 596 b 826 793 821 647 826 728 l 826 981 z m 436 268 b 478 172 436 229 451 197 b 667 110 521 131 593 110 b 856 172 740 110 813 131 b 897 268 882 197 897 229 b 856 364 897 307 882 339 b 667 426 813 406 740 426 b 478 364 593 426 521 406 b 436 268 451 339 436 307 z m 406 268 b 457 383 406 315 425 354 b 667 454 507 431 588 454 b 876 383 746 454 826 431 b 928 268 908 354 928 315 b 876 153 928 221 908 182 b 667 82 826 106 746 82 b 457 153 588 82 507 106 b 406 268 425 182 406 221 z "},"ㆅ":{"ha":1333,"x_min":0,"x_max":0,"o":"m 625 749 l 201 749 l 201 776 l 407 776 l 407 942 l 438 942 l 438 776 l 625 776 z m 246 432 b 301 304 246 378 267 335 b 421 261 333 276 375 261 b 540 304 467 261 508 276 b 596 432 575 335 596 378 b 540 560 596 486 575 529 b 421 603 508 588 467 603 b 301 560 375 603 333 588 b 246 432 267 529 246 486 z m 215 432 b 283 582 215 496 242 547 b 421 631 321 613 369 631 b 558 582 472 631 521 613 b 626 432 600 547 626 496 b 558 282 626 368 600 317 b 421 233 521 251 472 233 b 283 282 369 233 321 251 b 215 432 242 317 215 368 z m 708 749 l 708 776 l 896 776 l 896 942 l 926 942 l 926 776 l 1132 776 l 1132 749 z m 1088 432 b 1032 560 1088 486 1067 529 b 913 603 1000 588 958 603 b 793 560 867 603 825 588 b 738 432 758 529 738 486 b 793 304 738 378 758 335 b 913 261 825 276 867 261 b 1032 304 958 261 1000 276 b 1088 432 1067 335 1088 378 z m 1118 432 b 1050 282 1118 368 1092 317 b 913 233 1013 251 964 233 b 775 282 861 233 813 251 b 707 432 733 317 707 368 b 775 582 707 496 733 547 b 913 631 813 613 861 631 b 1050 582 964 631 1013 613 b 1118 432 1092 547 1118 496 z "},"ㆆ":{"ha":1333,"x_min":0,"x_max":0,"o":"m 285 865 l 1049 865 l 1049 838 l 285 838 z m 963 458 b 906 578 963 506 942 546 b 667 650 853 624 768 650 b 428 578 565 650 481 624 b 371 458 392 546 371 506 b 428 339 371 411 392 371 b 667 267 481 293 565 267 b 906 339 768 267 853 293 b 963 458 942 371 963 411 z m 340 458 b 408 600 340 515 365 564 b 667 678 467 649 558 678 b 925 600 775 678 867 649 b 993 458 968 564 993 515 b 925 317 993 401 968 353 b 667 239 867 268 775 239 b 408 317 558 239 467 268 b 340 458 365 353 340 401 z "},"ㆇ":{"ha":1333,"x_min":0,"x_max":0,"o":"m 296 572 l 329 572 l 329 101 l 611 101 l 611 572 l 644 572 l 644 101 b 996 208 788 103 913 138 l 996 1157 l 1028 1157 l 1028 782 l 1268 782 l 1268 753 l 1028 753 l 1028 435 l 1268 435 l 1268 406 l 1028 406 l 1028 -60 l 996 -60 l 996 176 b 640 72 915 107 788 72 l 76 72 l 76 101 l 296 101 z "},"ㆈ":{"ha":1333,"x_min":0,"x_max":0,"o":"m 1146 -60 l 1113 -60 l 1113 396 l 857 396 l 857 -42 l 824 -42 l 824 161 b 524 72 758 101 649 72 l 132 72 l 132 101 l 303 101 l 303 571 l 336 571 l 336 101 l 539 101 l 539 571 l 572 571 l 572 103 b 824 193 675 110 763 138 l 824 1147 l 857 1147 l 857 772 l 1113 772 l 1113 1157 l 1146 1157 z m 1113 425 l 1113 743 l 857 743 l 857 425 z "},"ㆉ":{"ha":1333,"x_min":0,"x_max":0,"o":"m 371 572 l 404 572 l 404 101 l 690 101 l 690 572 l 724 572 l 724 101 b 1064 208 861 104 982 140 l 1064 1157 l 1097 1157 l 1097 -60 l 1064 -60 l 1064 176 b 708 72 983 107 856 72 l 132 72 l 132 101 l 371 101 z "},"ㆊ":{"ha":1333,"x_min":0,"x_max":0,"o":"m 1099 1157 l 1099 -60 l 1067 -60 l 1067 114 l 747 114 l 747 144 l 1067 144 l 1067 322 l 747 322 l 747 353 l 1067 353 l 1067 1157 z m 565 501 l 332 501 l 332 -61 l 299 -61 l 299 501 l 90 501 l 90 532 l 594 532 b 925 597 717 532 849 550 l 925 567 b 599 501 853 518 722 501 l 599 -61 l 565 -61 z "},"ㆋ":{"ha":1333,"x_min":0,"x_max":0,"o":"m 1113 1157 l 1146 1157 l 1146 -60 l 1113 -60 z m 324 506 l 324 -61 l 290 -61 l 290 506 l 132 506 l 132 535 l 478 535 b 756 585 586 535 685 544 l 756 556 b 532 507 700 522 622 510 l 532 -61 l 499 -61 l 499 506 z m 860 326 l 633 326 l 633 357 l 860 357 l 860 1147 l 893 1147 l 893 -43 l 860 -43 l 860 132 l 633 132 l 633 163 l 860 163 z "},"ㆌ":{"ha":1333,"x_min":0,"x_max":0,"o":"m 711 444 l 706 444 l 706 -61 l 672 -61 l 672 444 l 386 444 l 386 -61 l 353 -61 l 353 444 l 104 444 l 104 474 l 711 474 b 1067 581 856 474 982 510 l 1067 1157 l 1099 1157 l 1099 -60 l 1067 -60 l 1067 549 b 711 444 986 479 858 444 z "},"ㆍ":{"ha":1333,"x_min":0,"x_max":0,"o":"m 688 640 l 688 518 l 644 518 l 644 640 z "},"ㆎ":{"ha":1333,"x_min":0,"x_max":0,"o":"m 535 640 l 535 518 l 492 518 l 492 640 z m 803 -60 l 803 1157 l 836 1157 l 836 -60 z "},"ⅰ":{"ha":1333,"x_min":0,"x_max":0,"o":"m 682 11 l 651 11 l 651 775 l 682 775 z m 682 958 l 651 958 l 651 1081 l 682 1081 z "},"ⅱ":{"ha":1333,"x_min":0,"x_max":0,"o":"m 488 11 l 457 11 l 457 775 l 488 775 z m 488 958 l 457 958 l 457 1081 l 488 1081 z m 876 11 l 846 11 l 846 775 l 876 775 z m 876 958 l 846 958 l 846 1081 l 876 1081 z "},"ⅲ":{"ha":1333,"x_min":0,"x_max":0,"o":"m 376 11 l 346 11 l 346 775 l 376 775 z m 376 958 l 346 958 l 346 1081 l 376 1081 z m 682 11 l 651 11 l 651 775 l 682 775 z m 682 958 l 651 958 l 651 1081 l 682 1081 z m 988 11 l 957 11 l 957 775 l 988 775 z m 988 958 l 957 958 l 957 1081 l 988 1081 z "},"ⅳ":{"ha":1333,"x_min":0,"x_max":0,"o":"m 1104 775 l 1136 775 l 843 11 l 803 11 l 511 775 l 543 775 l 824 40 z m 390 11 l 360 11 l 360 775 l 390 775 z m 390 958 l 360 958 l 360 1081 l 390 1081 z "},"ⅴ":{"ha":1333,"x_min":0,"x_max":0,"o":"m 651 11 l 331 775 l 367 775 l 667 53 l 968 775 l 1003 775 l 682 11 z "},"ⅵ":{"ha":1333,"x_min":0,"x_max":0,"o":"m 813 775 l 844 775 l 551 11 l 511 11 l 219 775 l 251 775 l 532 40 z m 1001 11 l 971 11 l 971 775 l 1001 775 z m 1001 958 l 971 958 l 971 1081 l 1001 1081 z "},"ⅶ":{"ha":1333,"x_min":0,"x_max":0,"o":"m 646 775 l 678 775 l 426 11 l 386 11 l 136 775 l 168 775 l 407 43 z m 1071 11 l 1040 11 l 1040 775 l 1071 775 z m 1071 958 l 1040 958 l 1040 1081 l 1071 1081 z m 835 11 l 804 11 l 804 775 l 835 775 z m 835 958 l 804 958 l 804 1081 l 835 1081 z "},"ⅷ":{"ha":1333,"x_min":0,"x_max":0,"o":"m 521 775 l 553 775 l 331 11 l 288 11 l 67 775 l 99 775 l 310 46 z m 696 11 l 665 11 l 665 775 l 696 775 z m 696 958 l 665 958 l 665 1081 l 696 1081 z m 932 11 l 901 11 l 901 775 l 932 775 z m 932 958 l 901 958 l 901 1081 l 932 1081 z m 1168 11 l 1138 11 l 1138 775 l 1168 775 z m 1168 958 l 1138 958 l 1138 1081 l 1168 1081 z "},"ⅸ":{"ha":1333,"x_min":0,"x_max":0,"o":"m 1108 11 l 833 378 l 557 11 l 518 11 l 814 403 l 533 775 l 569 775 l 832 428 l 1094 775 l 1132 775 l 851 403 l 1147 11 z m 390 11 l 360 11 l 360 775 l 390 775 z m 390 958 l 360 958 l 360 1081 l 390 1081 z "},"ⅹ":{"ha":1333,"x_min":0,"x_max":0,"o":"m 951 11 l 667 376 l 383 11 l 343 11 l 647 403 l 358 775 l 399 775 l 667 428 l 936 775 l 975 775 l 686 403 l 990 11 z "},"Ⅰ":{"ha":1333,"x_min":0,"x_max":0,"o":"m 789 11 l 544 11 l 544 39 l 651 39 l 651 1053 l 544 1053 l 544 1081 l 789 1081 l 789 1053 l 682 1053 l 682 39 l 789 39 z "},"Ⅱ":{"ha":1333,"x_min":0,"x_max":0,"o":"m 581 11 l 336 11 l 336 39 l 443 39 l 443 1053 l 336 1053 l 336 1081 l 581 1081 l 581 1053 l 474 1053 l 474 39 l 581 39 z m 997 11 l 753 11 l 753 39 l 860 39 l 860 1053 l 753 1053 l 753 1081 l 997 1081 l 997 1053 l 890 1053 l 890 39 l 997 39 z "},"Ⅲ":{"ha":1333,"x_min":0,"x_max":0,"o":"m 782 11 l 551 11 l 551 39 l 651 39 l 651 1053 l 551 1053 l 551 1081 l 782 1081 l 782 1053 l 682 1053 l 682 39 l 782 39 z m 449 11 l 218 11 l 218 39 l 318 39 l 318 1053 l 218 1053 l 218 1081 l 449 1081 l 449 1053 l 349 1053 l 349 39 l 449 39 z m 1115 11 l 885 11 l 885 39 l 985 39 l 985 1053 l 885 1053 l 885 1081 l 1115 1081 l 1115 1053 l 1015 1053 l 1015 39 l 1115 39 z "},"Ⅳ":{"ha":1333,"x_min":0,"x_max":0,"o":"m 435 11 l 204 11 l 204 39 l 304 39 l 304 1053 l 204 1053 l 204 1081 l 435 1081 l 435 1053 l 335 1053 l 335 39 l 435 39 z m 874 11 l 833 11 l 515 1081 l 547 1081 l 853 46 l 1157 1081 l 1192 1081 z "},"Ⅴ":{"ha":1333,"x_min":0,"x_max":0,"o":"m 275 1081 l 667 61 l 1058 1081 l 1092 1081 l 679 11 l 654 11 l 242 1081 z "},"Ⅵ":{"ha":1333,"x_min":0,"x_max":0,"o":"m 499 11 l 458 11 l 140 1081 l 172 1081 l 478 46 l 782 1081 l 817 1081 z m 906 11 l 906 39 l 1006 39 l 1006 1053 l 906 1053 l 906 1081 l 1136 1081 l 1136 1053 l 1036 1053 l 1036 39 l 1136 39 l 1136 11 z "},"Ⅶ":{"ha":1333,"x_min":0,"x_max":0,"o":"m 1240 11 l 1024 11 l 1024 39 l 1117 39 l 1117 1053 l 1024 1053 l 1024 1081 l 1240 1081 l 1240 1053 l 1147 1053 l 1147 39 l 1240 39 z m 935 11 l 718 11 l 718 39 l 811 39 l 811 1053 l 718 1053 l 718 1081 l 935 1081 l 935 1053 l 842 1053 l 842 39 l 935 39 z m 375 11 l 332 11 l 57 1081 l 89 1081 l 354 49 l 618 1081 l 650 1081 z "},"Ⅷ":{"ha":1333,"x_min":0,"x_max":0,"o":"m 1275 11 l 1072 11 l 1072 39 l 1158 39 l 1158 1053 l 1072 1053 l 1072 1081 l 1275 1081 l 1275 1053 l 1189 1053 l 1189 39 l 1275 39 z m 1011 11 l 808 11 l 808 39 l 894 39 l 894 1053 l 808 1053 l 808 1081 l 1011 1081 l 1011 1053 l 925 1053 l 925 39 l 1011 39 z m 747 11 l 544 11 l 544 39 l 631 39 l 631 1053 l 544 1053 l 544 1081 l 747 1081 l 747 1053 l 661 1053 l 661 39 l 747 39 z m 288 11 l 240 11 l 43 1081 l 75 1081 l 264 49 l 451 1081 l 483 1081 z "},"Ⅸ":{"ha":1333,"x_min":0,"x_max":0,"o":"m 407 11 l 176 11 l 176 39 l 276 39 l 276 1053 l 176 1053 l 176 1081 l 407 1081 l 407 1053 l 307 1053 l 307 39 l 407 39 z m 1178 11 l 847 525 l 517 11 l 481 11 l 829 553 l 490 1081 l 526 1081 l 847 582 l 1168 1081 l 1204 1081 l 865 553 l 1214 11 z "},"Ⅹ":{"ha":1333,"x_min":0,"x_max":0,"o":"m 1051 1081 l 686 557 l 1067 11 l 1028 11 l 665 529 l 306 11 l 267 11 l 647 557 l 282 1081 l 321 1081 l 665 585 l 1013 1081 z "},"Α":{"ha":886,"x_min":0,"x_max":0,"o":"m 51 11 l 18 11 l 431 1081 l 456 1081 l 868 11 l 835 11 l 721 304 l 164 304 z m 711 332 l 443 1031 l 174 332 z "},"Β":{"ha":901,"x_min":0,"x_max":0,"o":"m 158 574 l 499 574 b 769 813 688 574 769 664 b 499 1053 769 963 688 1053 l 158 1053 z m 504 11 l 128 11 l 128 1081 l 504 1081 b 800 815 704 1081 800 979 b 614 561 800 664 724 586 b 831 292 763 536 831 449 b 504 11 831 96 718 11 z m 800 292 b 497 546 800 449 724 546 l 158 546 l 158 39 l 497 39 b 800 292 724 39 800 136 z "},"Γ":{"ha":715,"x_min":0,"x_max":0,"o":"m 128 1081 l 697 1081 l 697 1053 l 158 1053 l 158 11 l 128 11 z "},"Δ":{"ha":886,"x_min":0,"x_max":0,"o":"m 868 11 l 18 11 l 431 1081 l 456 1081 z m 443 1031 l 63 39 l 824 39 z "},"Ε":{"ha":782,"x_min":0,"x_max":0,"o":"m 128 11 l 128 1081 l 711 1081 l 711 1053 l 158 1053 l 158 574 l 656 574 l 656 546 l 158 546 l 158 39 l 718 39 l 718 11 z "},"Ζ":{"ha":792,"x_min":0,"x_max":0,"o":"m 74 39 l 676 1053 l 89 1053 l 89 1081 l 711 1081 l 711 1053 l 107 39 l 718 39 l 718 11 l 74 11 z "},"Η":{"ha":947,"x_min":0,"x_max":0,"o":"m 789 11 l 789 546 l 158 546 l 158 11 l 128 11 l 128 1081 l 158 1081 l 158 574 l 789 574 l 789 1081 l 819 1081 l 819 11 z "},"Θ":{"ha":963,"x_min":0,"x_max":0,"o":"m 840 546 b 733 971 840 722 815 874 b 481 1071 675 1038 589 1071 b 229 971 374 1071 288 1038 b 122 546 147 874 122 722 b 229 121 122 369 147 217 b 481 21 288 54 374 21 b 733 121 589 21 675 54 b 840 546 815 217 840 369 z m 92 546 b 206 989 92 742 124 894 b 481 1099 271 1063 363 1099 b 756 989 600 1099 692 1063 b 871 546 839 894 871 742 b 756 103 871 350 839 197 b 481 -7 692 29 600 -7 b 206 103 363 -7 271 29 b 92 546 124 197 92 350 z m 307 532 l 307 560 l 656 560 l 656 532 z "},"Ι":{"ha":288,"x_min":0,"x_max":0,"o":"m 158 1081 l 158 11 l 128 11 l 128 1081 z "},"Κ":{"ha":817,"x_min":0,"x_max":0,"o":"m 769 1081 l 351 560 l 817 11 l 778 11 l 324 546 l 158 546 l 158 11 l 128 11 l 128 1081 l 158 1081 l 158 574 l 324 574 l 731 1081 z "},"Λ":{"ha":886,"x_min":0,"x_max":0,"o":"m 835 11 l 443 1031 l 51 11 l 18 11 l 431 1081 l 456 1081 l 868 11 z "},"Μ":{"ha":1268,"x_min":0,"x_max":0,"o":"m 651 11 l 617 11 l 158 1010 l 158 11 l 128 11 l 128 1081 l 158 1081 l 635 43 l 1110 1081 l 1140 1081 l 1140 11 l 1110 11 l 1110 1010 z "},"Ν":{"ha":963,"x_min":0,"x_max":0,"o":"m 835 11 l 804 11 l 158 1028 l 158 11 l 128 11 l 128 1081 l 158 1081 l 804 64 l 804 1081 l 835 1081 z "},"Ξ":{"ha":814,"x_min":0,"x_max":0,"o":"m 72 1053 l 72 1081 l 743 1081 l 743 1053 z m 64 11 l 64 39 l 750 39 l 750 11 z m 126 546 l 126 574 l 688 574 l 688 546 z "},"Ο":{"ha":963,"x_min":0,"x_max":0,"o":"m 840 546 b 733 971 840 722 815 874 b 481 1071 675 1038 589 1071 b 229 971 374 1071 288 1038 b 122 546 147 874 122 722 b 229 121 122 369 147 217 b 481 21 288 54 374 21 b 733 121 589 21 675 54 b 840 546 815 217 840 369 z m 92 546 b 206 989 92 742 124 894 b 481 1099 271 1063 363 1099 b 756 989 600 1099 692 1063 b 871 546 839 894 871 742 b 756 103 871 350 839 197 b 481 -7 692 29 600 -7 b 206 103 363 -7 271 29 b 92 546 124 197 92 350 z "},"Π":{"ha":947,"x_min":0,"x_max":0,"o":"m 789 11 l 789 1053 l 158 1053 l 158 11 l 128 11 l 128 1081 l 819 1081 l 819 11 z "},"Ρ":{"ha":885,"x_min":0,"x_max":0,"o":"m 158 469 l 506 469 b 800 761 700 469 800 581 b 506 1053 800 942 700 1053 l 158 1053 z m 501 442 l 158 442 l 158 11 l 128 11 l 128 1081 l 501 1081 b 831 761 725 1081 831 953 b 501 442 831 571 725 442 z "},"Σ":{"ha":775,"x_min":0,"x_max":0,"o":"m 92 39 l 383 563 l 92 1053 l 92 1081 l 711 1081 l 711 1053 l 128 1053 l 417 569 l 417 557 l 128 39 l 711 39 l 711 11 l 92 11 z "},"Τ":{"ha":764,"x_min":0,"x_max":0,"o":"m 28 1053 l 28 1081 l 736 1081 l 736 1053 l 397 1053 l 397 11 l 367 11 l 367 1053 z "},"Υ":{"ha":874,"x_min":0,"x_max":0,"o":"m 438 460 l 811 1081 l 846 1081 l 453 433 l 453 11 l 422 11 l 422 433 l 28 1081 l 63 1081 z "},"Φ":{"ha":1075,"x_min":0,"x_max":0,"o":"m 1011 546 b 553 174 1011 279 817 175 l 553 11 l 522 11 l 522 174 b 64 546 258 175 64 279 b 522 918 64 813 258 917 l 522 1081 l 553 1081 l 553 918 b 1011 546 817 917 1011 813 z m 981 546 b 553 892 981 796 801 886 l 553 200 b 981 546 801 206 981 296 z m 522 200 l 522 892 b 94 546 274 886 94 796 b 522 200 94 296 274 206 z "},"Χ":{"ha":872,"x_min":0,"x_max":0,"o":"m 821 1081 l 456 557 l 836 11 l 797 11 l 435 529 l 75 11 l 36 11 l 417 557 l 51 1081 l 90 1081 l 435 585 l 782 1081 z "},"Ψ":{"ha":1039,"x_min":0,"x_max":0,"o":"m 535 11 l 504 11 l 504 244 b 113 650 247 251 113 408 l 113 1081 l 143 1081 l 143 653 b 504 272 143 415 268 276 l 504 1081 l 535 1081 l 535 272 b 896 653 769 276 896 415 l 896 1081 l 926 1081 l 926 650 b 535 244 926 408 790 251 z "},"Ω":{"ha":963,"x_min":0,"x_max":0,"o":"m 481 1099 b 756 989 600 1099 692 1063 b 871 546 839 894 871 742 b 640 39 871 301 819 103 l 838 39 l 838 11 l 567 11 l 567 39 b 840 546 792 92 840 311 b 733 971 840 722 815 874 b 481 1071 675 1038 589 1071 b 229 971 374 1071 288 1038 b 122 546 147 874 122 722 b 396 39 122 311 171 92 l 396 11 l 125 11 l 125 39 l 322 39 b 92 546 143 103 92 301 b 206 989 92 742 124 894 b 481 1099 271 1063 363 1099 z "},"α":{"ha":810,"x_min":0,"x_max":0,"o":"m 700 775 l 700 101 b 761 28 700 44 713 28 l 782 28 l 782 1 b 754 0 771 0 761 0 b 669 97 690 0 669 28 l 669 193 b 388 -7 631 64 535 -7 b 76 393 172 -7 76 144 b 388 793 76 642 172 793 b 669 593 535 793 631 722 l 669 775 z m 669 393 b 388 765 669 633 582 765 b 107 393 194 765 107 633 b 388 21 107 153 194 21 b 669 393 582 21 669 153 z "},"β":{"ha":815,"x_min":0,"x_max":0,"o":"m 408 1099 b 706 801 599 1099 706 978 b 525 574 706 693 643 603 b 751 286 661 543 751 446 b 431 -7 751 121 643 -7 b 140 181 281 -7 182 60 l 140 -321 l 110 -321 l 110 801 b 408 1099 110 978 217 1099 z m 431 21 b 721 286 621 21 721 133 b 439 560 721 435 624 560 l 386 560 l 386 588 l 439 588 b 675 801 604 588 675 693 b 408 1071 675 969 575 1071 b 140 793 242 1071 140 961 l 140 301 b 431 21 140 149 242 21 z "},"γ":{"ha":739,"x_min":0,"x_max":0,"o":"m 385 -321 l 354 -321 l 354 11 l 33 775 l 69 775 l 369 53 l 671 775 l 706 775 l 385 11 z "},"δ":{"ha":776,"x_min":0,"x_max":0,"o":"m 150 1081 l 643 1081 l 643 1053 l 196 1053 l 578 735 b 700 393 658 668 700 560 b 388 -7 700 144 604 -7 b 76 393 172 -7 76 144 b 388 793 76 642 172 793 b 485 778 426 793 464 788 l 150 1053 z m 669 393 b 388 765 669 633 582 765 b 107 393 194 765 107 633 b 388 21 107 153 194 21 b 669 393 582 21 669 153 z "},"ε":{"ha":711,"x_min":0,"x_max":0,"o":"m 363 411 l 449 411 l 449 383 l 367 383 b 104 201 213 383 104 321 b 367 21 104 83 213 21 b 629 211 521 21 629 92 l 629 214 l 660 214 l 660 211 b 367 -7 660 81 547 -7 b 74 201 186 -7 74 71 b 271 397 74 310 151 379 b 90 589 154 419 90 492 b 363 793 90 704 188 793 b 635 589 536 793 635 704 l 635 572 l 604 572 l 604 589 b 363 765 604 693 517 765 b 121 589 208 765 121 693 b 363 411 121 485 204 411 z "},"ζ":{"ha":654,"x_min":0,"x_max":0,"o":"m 101 317 b 565 18 101 119 235 18 b 600 -10 593 18 600 15 b 506 -253 600 -74 565 -165 l 479 -246 b 569 -8 535 -157 569 -69 b 71 317 203 -12 71 114 b 560 1053 71 604 296 913 l 149 1053 l 149 1081 l 600 1081 l 600 1051 b 101 317 318 904 101 593 z "},"η":{"ha":810,"x_min":0,"x_max":0,"o":"m 140 11 l 110 11 l 110 775 l 140 775 l 140 558 b 440 793 182 708 292 793 b 703 479 608 793 703 678 l 703 -321 l 672 -321 l 672 479 b 438 765 672 664 590 765 b 140 399 271 765 147 632 z "},"θ":{"ha":853,"x_min":0,"x_max":0,"o":"m 764 546 b 660 97 764 297 725 179 b 426 -7 608 31 535 -7 b 193 97 318 -7 244 31 b 89 546 126 179 89 297 b 193 994 89 794 126 913 b 426 1099 244 1061 318 1099 b 660 994 535 1099 608 1061 b 764 546 725 913 764 794 z m 218 978 b 119 560 161 907 121 789 l 733 560 b 635 978 732 789 690 907 b 426 1071 590 1033 518 1071 b 218 978 335 1071 263 1033 z m 635 114 b 733 532 690 185 732 303 l 119 532 b 218 114 121 303 161 185 b 426 21 263 58 335 21 b 635 114 518 21 590 58 z "},"ι":{"ha":261,"x_min":0,"x_max":0,"o":"m 140 775 l 140 101 b 201 28 140 44 153 28 l 224 28 l 224 1 b 196 0 213 0 201 0 b 110 97 132 0 110 28 l 110 775 z "},"κ":{"ha":656,"x_min":0,"x_max":0,"o":"m 140 11 l 110 11 l 110 775 l 140 775 l 140 424 l 261 424 l 574 775 l 611 775 l 289 410 l 646 11 l 607 11 l 261 396 l 140 396 z "},"λ":{"ha":708,"x_min":0,"x_max":0,"o":"m 338 767 l 257 965 b 113 1071 221 1053 185 1071 l 93 1071 l 93 1097 b 114 1099 103 1099 103 1099 b 285 974 199 1099 239 1082 l 690 11 l 656 11 l 354 729 l 53 11 l 18 11 z "},"μ":{"ha":813,"x_min":0,"x_max":0,"o":"m 140 775 l 140 307 b 376 21 140 122 224 21 b 672 406 547 21 672 161 l 672 775 l 703 775 l 703 11 l 672 11 l 672 228 b 372 -7 631 78 521 -7 b 140 146 260 -7 176 44 l 140 -321 l 110 -321 l 110 775 z "},"ν":{"ha":739,"x_min":0,"x_max":0,"o":"m 354 11 l 33 775 l 69 775 l 369 53 l 671 775 l 706 775 l 385 11 z "},"ξ":{"ha":686,"x_min":0,"x_max":0,"o":"m 600 -8 b 71 325 275 -8 71 117 b 304 638 71 481 171 597 b 118 863 203 653 118 736 b 379 1099 118 992 204 1099 b 640 878 553 1099 635 993 l 610 878 b 379 1071 601 993 521 1071 b 149 863 236 1071 149 992 b 350 656 149 742 235 656 l 503 656 l 503 628 l 385 628 b 101 326 242 628 101 499 b 596 18 101 128 301 18 b 631 -10 624 18 631 15 b 536 -253 631 -74 596 -165 l 510 -246 b 600 -8 565 -157 600 -69 z "},"ο":{"ha":776,"x_min":0,"x_max":0,"o":"m 700 393 b 388 -7 700 144 604 -7 b 76 393 172 -7 76 144 b 388 793 76 642 172 793 b 700 393 604 793 700 642 z m 669 393 b 388 765 669 633 582 765 b 107 393 194 765 107 633 b 388 21 107 153 194 21 b 669 393 582 21 669 153 z "},"π":{"ha":779,"x_min":0,"x_max":0,"o":"m 196 747 l 196 11 l 165 11 l 165 747 l 33 747 l 33 775 l 746 775 l 746 747 l 614 747 l 614 11 l 583 11 l 583 747 z "},"ρ":{"ha":792,"x_min":0,"x_max":0,"o":"m 92 -321 l 92 393 b 403 793 92 642 188 793 b 715 393 619 793 715 642 b 403 -7 715 144 619 -7 b 122 193 257 -7 161 64 l 122 -321 z m 685 393 b 403 765 685 633 597 765 b 122 393 210 765 122 633 b 403 21 122 153 210 21 b 685 393 597 21 685 153 z "},"σ":{"ha":776,"x_min":0,"x_max":0,"o":"m 735 747 l 515 747 b 700 383 646 700 700 560 b 388 -7 700 150 604 -7 b 76 383 172 -7 76 150 b 388 775 76 618 172 775 l 735 775 z m 669 383 b 388 747 669 608 582 747 b 107 383 194 747 107 608 b 388 21 107 160 194 21 b 669 383 582 21 669 160 z "},"τ":{"ha":661,"x_min":0,"x_max":0,"o":"m 625 775 l 625 747 l 338 747 l 338 132 b 429 28 338 60 368 28 l 465 28 l 465 1 b 424 0 456 0 438 0 b 307 128 344 0 307 43 l 307 747 l 36 747 l 36 775 z "},"υ":{"ha":792,"x_min":0,"x_max":0,"o":"m 396 -7 b 101 317 211 -7 101 99 l 101 775 l 132 775 l 132 317 b 396 21 132 107 231 21 b 660 317 561 21 660 107 l 660 775 l 690 775 l 690 317 b 396 -7 690 99 581 -7 z "},"φ":{"ha":1036,"x_min":0,"x_max":0,"o":"m 503 775 l 529 775 b 960 383 838 775 960 654 b 533 -7 960 114 844 -3 l 533 -321 l 503 -321 l 503 -7 b 76 383 190 -3 76 114 b 315 754 76 601 150 708 l 321 726 b 107 383 179 686 107 596 b 503 21 107 132 204 25 z m 929 383 b 533 747 929 636 831 743 l 533 21 b 929 383 831 25 929 133 z "},"χ":{"ha":724,"x_min":0,"x_max":0,"o":"m 693 775 l 379 239 l 708 -321 l 675 -321 l 363 211 l 49 -321 l 15 -321 l 346 239 l 31 775 l 64 775 l 363 268 l 660 775 z "},"ψ":{"ha":990,"x_min":0,"x_max":0,"o":"m 510 -321 l 479 -321 l 479 -7 b 101 317 257 -3 101 103 l 101 775 l 132 775 l 132 317 b 479 21 132 113 281 25 l 479 775 l 510 775 l 510 21 b 858 317 708 25 858 113 l 858 775 l 889 775 l 889 317 b 510 -7 889 103 732 -3 z "},"ω":{"ha":1128,"x_min":0,"x_max":0,"o":"m 564 183 b 339 -7 539 60 457 -7 b 82 368 188 -7 82 90 b 163 775 82 496 110 635 l 193 775 b 113 368 139 633 113 490 b 339 21 113 114 206 21 b 549 297 458 21 549 103 l 549 625 l 579 625 l 579 297 b 789 21 579 103 669 21 b 1014 368 921 21 1014 114 b 935 775 1014 490 989 633 l 965 775 b 1044 368 1018 635 1044 496 b 789 -7 1044 90 939 -7 b 564 183 671 -7 589 60 z "},"─":{"ha":1333,"x_min":0,"x_max":0,"o":"m 1333 579 l 1333 497 l 0 497 l 0 579 z "},"│":{"ha":1333,"x_min":0,"x_max":0,"o":"m 626 1233 l 708 1233 l 708 -156 l 626 -156 z "},"┌":{"ha":1333,"x_min":0,"x_max":0,"o":"m 626 -156 l 626 579 l 1333 579 l 1333 497 l 708 497 l 708 -156 z "},"┐":{"ha":1333,"x_min":0,"x_max":0,"o":"m 708 579 l 708 -156 l 626 -156 l 626 497 l 0 497 l 0 579 z "},"┘":{"ha":1333,"x_min":0,"x_max":0,"o":"m 708 1233 l 708 497 l 0 497 l 0 579 l 626 579 l 626 1233 z "},"└":{"ha":1333,"x_min":0,"x_max":0,"o":"m 626 497 l 626 1233 l 708 1233 l 708 579 l 1333 579 l 1333 497 z "},"├":{"ha":1333,"x_min":0,"x_max":0,"o":"m 626 1233 l 708 1233 l 708 579 l 1333 579 l 1333 497 l 708 497 l 708 -156 l 626 -156 z "},"┬":{"ha":1333,"x_min":0,"x_max":0,"o":"m 1333 579 l 1333 497 l 708 497 l 708 -156 l 626 -156 l 626 497 l 0 497 l 0 579 z "},"┤":{"ha":1333,"x_min":0,"x_max":0,"o":"m 708 1233 l 708 -156 l 626 -156 l 626 497 l 0 497 l 0 579 l 626 579 l 626 1233 z "},"┴":{"ha":1333,"x_min":0,"x_max":0,"o":"m 1333 497 l 0 497 l 0 579 l 626 579 l 626 1233 l 708 1233 l 708 579 l 1333 579 z "},"┼":{"ha":1333,"x_min":0,"x_max":0,"o":"m 626 1233 l 708 1233 l 708 579 l 1333 579 l 1333 497 l 708 497 l 708 -156 l 626 -156 l 626 497 l 0 497 l 0 579 l 626 579 z "},"━":{"ha":1333,"x_min":0,"x_max":0,"o":"m 0 604 l 1333 604 l 1333 474 l 0 474 z "},"┃":{"ha":1333,"x_min":0,"x_max":0,"o":"m 601 1233 l 732 1233 l 732 -156 l 601 -156 z "},"┏":{"ha":1333,"x_min":0,"x_max":0,"o":"m 601 604 l 1333 604 l 1333 474 l 732 474 l 732 -156 l 601 -156 z "},"┓":{"ha":1333,"x_min":0,"x_max":0,"o":"m 0 604 l 732 604 l 732 -156 l 601 -156 l 601 474 l 0 474 z "},"┛":{"ha":1333,"x_min":0,"x_max":0,"o":"m 601 1233 l 732 1233 l 732 474 l 0 474 l 0 604 l 601 604 z "},"┗":{"ha":1333,"x_min":0,"x_max":0,"o":"m 601 1233 l 732 1233 l 732 604 l 1333 604 l 1333 474 l 601 474 z "},"┣":{"ha":1333,"x_min":0,"x_max":0,"o":"m 601 1233 l 732 1233 l 732 604 l 1333 604 l 1333 474 l 732 474 l 732 -156 l 601 -156 z "},"┳":{"ha":1333,"x_min":0,"x_max":0,"o":"m 0 474 l 0 604 l 1333 604 l 1333 474 l 732 474 l 732 -156 l 601 -156 l 601 474 z "},"┫":{"ha":1333,"x_min":0,"x_max":0,"o":"m 0 474 l 0 604 l 601 604 l 601 1233 l 732 1233 l 732 -156 l 601 -156 l 601 474 z "},"┻":{"ha":1333,"x_min":0,"x_max":0,"o":"m 601 604 l 601 1233 l 732 1233 l 732 604 l 1333 604 l 1333 474 l 0 474 l 0 604 z "},"╋":{"ha":1333,"x_min":0,"x_max":0,"o":"m 601 604 l 601 1233 l 732 1233 l 732 604 l 1333 604 l 1333 474 l 732 474 l 732 -156 l 601 -156 l 601 474 l 0 474 l 0 604 z "},"┠":{"ha":1333,"x_min":0,"x_max":0,"o":"m 1333 563 l 1333 513 l 732 513 l 732 -156 l 601 -156 l 601 1233 l 732 1233 l 732 563 z "},"┯":{"ha":1333,"x_min":0,"x_max":0,"o":"m 1333 604 l 1333 474 l 692 474 l 692 -156 l 640 -156 l 640 474 l 0 474 l 0 604 z "},"┨":{"ha":1333,"x_min":0,"x_max":0,"o":"m 732 -156 l 601 -156 l 601 513 l 0 513 l 0 563 l 601 563 l 601 1233 l 732 1233 z "},"┷":{"ha":1333,"x_min":0,"x_max":0,"o":"m 640 604 l 640 1233 l 692 1233 l 692 604 l 1333 604 l 1333 474 l 0 474 l 0 604 z "},"┿":{"ha":1333,"x_min":0,"x_max":0,"o":"m 640 604 l 640 1233 l 692 1233 l 692 604 l 1333 604 l 1333 474 l 692 474 l 692 -156 l 640 -156 l 640 474 l 0 474 l 0 604 z "},"┝":{"ha":1333,"x_min":0,"x_max":0,"o":"m 1333 604 l 1333 474 l 692 474 l 692 -156 l 640 -156 l 640 1233 l 692 1233 l 692 604 z "},"┰":{"ha":1333,"x_min":0,"x_max":0,"o":"m 1333 563 l 1333 513 l 732 513 l 732 -156 l 601 -156 l 601 513 l 0 513 l 0 563 z "},"┥":{"ha":1333,"x_min":0,"x_max":0,"o":"m 640 604 l 640 1233 l 692 1233 l 692 -156 l 640 -156 l 640 474 l 0 474 l 0 604 z "},"┸":{"ha":1333,"x_min":0,"x_max":0,"o":"m 601 563 l 601 1233 l 732 1233 l 732 563 l 1333 563 l 1333 513 l 0 513 l 0 563 z "},"╂":{"ha":1333,"x_min":0,"x_max":0,"o":"m 601 563 l 601 1233 l 732 1233 l 732 563 l 1333 563 l 1333 513 l 732 513 l 732 -156 l 601 -156 l 601 513 l 0 513 l 0 563 z "},"┒":{"ha":1333,"x_min":0,"x_max":0,"o":"m 601 513 l 0 513 l 0 563 l 732 563 l 732 -156 l 601 -156 z "},"┑":{"ha":1333,"x_min":0,"x_max":0,"o":"m 640 474 l 0 474 l 0 604 l 692 604 l 692 -156 l 640 -156 z "},"┚":{"ha":1333,"x_min":0,"x_max":0,"o":"m 601 563 l 601 1233 l 732 1233 l 732 513 l 0 513 l 0 563 z "},"┙":{"ha":1333,"x_min":0,"x_max":0,"o":"m 640 604 l 640 1233 l 692 1233 l 692 474 l 0 474 l 0 604 z "},"┖":{"ha":1333,"x_min":0,"x_max":0,"o":"m 732 563 l 1333 563 l 1333 513 l 601 513 l 601 1233 l 732 1233 z "},"┕":{"ha":1333,"x_min":0,"x_max":0,"o":"m 692 604 l 1333 604 l 1333 474 l 640 474 l 640 1233 l 692 1233 z "},"┎":{"ha":1333,"x_min":0,"x_max":0,"o":"m 732 513 l 732 -156 l 601 -156 l 601 563 l 1333 563 l 1333 513 z "},"┍":{"ha":1333,"x_min":0,"x_max":0,"o":"m 640 604 l 1333 604 l 1333 474 l 692 474 l 692 -156 l 640 -156 z "},"┞":{"ha":1333,"x_min":0,"x_max":0,"o":"m 601 1233 l 732 1233 l 732 563 l 1333 563 l 1333 513 l 692 513 l 692 -156 l 640 -156 l 640 513 l 601 513 z "},"┟":{"ha":1333,"x_min":0,"x_max":0,"o":"m 640 1233 l 692 1233 l 692 563 l 1333 563 l 1333 513 l 732 513 l 732 -156 l 601 -156 l 601 563 l 640 563 z "},"┡":{"ha":1333,"x_min":0,"x_max":0,"o":"m 640 -156 l 640 474 l 601 474 l 601 1233 l 732 1233 l 732 604 l 1333 604 l 1333 474 l 692 474 l 692 -156 z "},"┢":{"ha":1333,"x_min":0,"x_max":0,"o":"m 601 -156 l 601 604 l 640 604 l 640 1233 l 692 1233 l 692 604 l 1333 604 l 1333 474 l 732 474 l 732 -156 z "},"┦":{"ha":1333,"x_min":0,"x_max":0,"o":"m 601 1233 l 732 1233 l 732 513 l 692 513 l 692 -156 l 640 -156 l 640 513 l 0 513 l 0 563 l 601 563 z "},"┧":{"ha":1333,"x_min":0,"x_max":0,"o":"m 0 563 l 640 563 l 640 1233 l 692 1233 l 692 563 l 732 563 l 732 -156 l 601 -156 l 601 513 l 0 513 z "},"┩":{"ha":1333,"x_min":0,"x_max":0,"o":"m 0 474 l 0 604 l 601 604 l 601 1233 l 732 1233 l 732 474 l 692 474 l 692 -156 l 640 -156 l 640 474 z "},"┪":{"ha":1333,"x_min":0,"x_max":0,"o":"m 0 474 l 0 604 l 640 604 l 640 1233 l 692 1233 l 692 604 l 732 604 l 732 -156 l 601 -156 l 601 474 z "},"┭":{"ha":1333,"x_min":0,"x_max":0,"o":"m 0 474 l 0 604 l 692 604 l 692 563 l 1333 563 l 1333 513 l 692 513 l 692 -156 l 640 -156 l 640 474 z "},"┮":{"ha":1333,"x_min":0,"x_max":0,"o":"m 0 513 l 0 563 l 640 563 l 640 604 l 1333 604 l 1333 474 l 692 474 l 692 -156 l 640 -156 l 640 513 z "},"┱":{"ha":1333,"x_min":0,"x_max":0,"o":"m 0 474 l 0 604 l 732 604 l 732 563 l 1333 563 l 1333 513 l 732 513 l 732 -156 l 601 -156 l 601 474 z "},"┲":{"ha":1333,"x_min":0,"x_max":0,"o":"m 0 513 l 0 563 l 601 563 l 601 604 l 1333 604 l 1333 474 l 732 474 l 732 -156 l 601 -156 l 601 513 z "},"┵":{"ha":1333,"x_min":0,"x_max":0,"o":"m 0 474 l 0 604 l 640 604 l 640 1233 l 692 1233 l 692 563 l 1333 563 l 1333 513 l 692 513 l 692 474 z "},"┶":{"ha":1333,"x_min":0,"x_max":0,"o":"m 0 513 l 0 563 l 640 563 l 640 1233 l 692 1233 l 692 604 l 1333 604 l 1333 474 l 640 474 l 640 513 z "},"┹":{"ha":1333,"x_min":0,"x_max":0,"o":"m 0 474 l 0 604 l 601 604 l 601 1233 l 732 1233 l 732 563 l 1333 563 l 1333 513 l 732 513 l 732 474 z "},"┺":{"ha":1333,"x_min":0,"x_max":0,"o":"m 0 513 l 0 563 l 601 563 l 601 1233 l 732 1233 l 732 604 l 1333 604 l 1333 474 l 601 474 l 601 513 z "},"┽":{"ha":1333,"x_min":0,"x_max":0,"o":"m 0 474 l 0 604 l 640 604 l 640 1233 l 692 1233 l 692 563 l 1333 563 l 1333 513 l 692 513 l 692 -156 l 640 -156 l 640 474 z "},"┾":{"ha":1333,"x_min":0,"x_max":0,"o":"m 692 1233 l 692 604 l 1333 604 l 1333 474 l 692 474 l 692 -156 l 640 -156 l 640 513 l 0 513 l 0 563 l 640 563 l 640 1233 z "},"╀":{"ha":1333,"x_min":0,"x_max":0,"o":"m 732 1233 l 732 563 l 1333 563 l 1333 513 l 692 513 l 692 -156 l 640 -156 l 640 513 l 0 513 l 0 563 l 601 563 l 601 1233 z "},"╁":{"ha":1333,"x_min":0,"x_max":0,"o":"m 692 1233 l 692 563 l 1333 563 l 1333 513 l 732 513 l 732 -156 l 601 -156 l 601 513 l 0 513 l 0 563 l 640 563 l 640 1233 z "},"╃":{"ha":1333,"x_min":0,"x_max":0,"o":"m 732 1233 l 732 563 l 1333 563 l 1333 513 l 732 513 l 732 474 l 692 474 l 692 -156 l 640 -156 l 640 474 l 0 474 l 0 604 l 601 604 l 601 1233 z "},"╄":{"ha":1333,"x_min":0,"x_max":0,"o":"m 692 -156 l 640 -156 l 640 474 l 601 474 l 601 513 l 0 513 l 0 563 l 601 563 l 601 1233 l 732 1233 l 732 604 l 1333 604 l 1333 474 l 692 474 z "},"╅":{"ha":1333,"x_min":0,"x_max":0,"o":"m 692 1233 l 692 604 l 732 604 l 732 563 l 1333 563 l 1333 513 l 732 513 l 732 -156 l 601 -156 l 601 474 l 0 474 l 0 604 l 640 604 l 640 1233 z "},"╆":{"ha":1333,"x_min":0,"x_max":0,"o":"m 692 1233 l 692 604 l 1333 604 l 1333 472 l 732 472 l 732 -156 l 601 -156 l 601 513 l 0 513 l 0 563 l 601 563 l 601 604 l 640 604 l 640 1233 z "},"╇":{"ha":1333,"x_min":0,"x_max":0,"o":"m 732 1233 l 732 604 l 1333 604 l 1333 474 l 692 474 l 692 -156 l 640 -156 l 640 474 l 0 474 l 0 604 l 601 604 l 601 1233 z "},"╈":{"ha":1333,"x_min":0,"x_max":0,"o":"m 692 1233 l 692 604 l 1333 604 l 1333 474 l 732 474 l 732 -156 l 601 -156 l 601 474 l 0 474 l 0 604 l 640 604 l 640 1233 z "},"╉":{"ha":1333,"x_min":0,"x_max":0,"o":"m 732 1233 l 732 563 l 1333 563 l 1333 513 l 732 513 l 732 -156 l 601 -156 l 601 474 l 0 474 l 0 604 l 601 604 l 601 1233 z "},"╊":{"ha":1333,"x_min":0,"x_max":0,"o":"m 732 1233 l 732 604 l 1333 604 l 1333 474 l 732 474 l 732 -156 l 601 -156 l 601 513 l 0 513 l 0 563 l 601 563 l 601 1233 z "},"㎕":{"ha":1333,"x_min":0,"x_max":0,"o":"m 186 775 l 186 307 b 358 21 186 122 246 21 b 576 406 485 21 576 161 l 576 775 l 606 775 l 606 11 l 576 11 l 576 206 b 356 -7 542 69 463 -7 b 186 126 275 -7 215 39 l 186 -321 l 156 -321 l 156 775 z m 1008 21 b 1171 224 1099 21 1156 88 l 1200 217 b 1008 -7 1183 72 1117 -7 b 817 231 893 -7 832 88 b 742 206 793 221 768 213 l 732 235 b 814 261 763 243 792 253 l 814 815 b 999 1099 814 994 878 1099 b 1185 815 1118 1099 1185 994 l 1185 803 b 843 242 1185 544 1074 344 l 844 242 b 1008 21 856 104 907 21 z m 999 1071 b 843 817 900 1071 843 986 l 843 274 b 1156 803 1056 371 1156 560 l 1156 817 b 999 1071 1156 986 1097 1071 z "},"㎖":{"ha":1333,"x_min":0,"x_max":0,"o":"m 679 11 l 679 524 b 557 765 679 683 635 765 b 406 376 472 765 406 626 l 406 11 l 376 11 l 376 524 b 254 765 376 683 332 765 b 104 376 169 765 104 626 l 104 11 l 74 11 l 74 775 l 104 775 l 104 613 b 256 793 132 725 183 793 b 403 603 336 793 389 728 b 558 793 428 724 483 793 b 708 531 654 793 708 701 l 708 11 z m 1081 21 b 1243 224 1171 21 1228 88 l 1272 217 b 1081 -7 1256 72 1189 -7 b 889 231 965 -7 904 88 b 814 206 865 221 840 213 l 804 235 b 886 261 835 243 864 253 l 886 815 b 1071 1099 886 994 950 1099 b 1257 815 1190 1099 1257 994 l 1257 803 b 915 242 1257 544 1146 344 l 917 242 b 1081 21 928 104 979 21 z m 1071 1071 b 915 817 972 1071 915 986 l 915 274 b 1228 803 1128 371 1228 560 l 1228 817 b 1071 1071 1228 986 1169 1071 z "},"㎗":{"ha":1333,"x_min":0,"x_max":0,"o":"m 144 393 b 378 793 144 642 217 793 b 583 626 479 793 550 733 l 583 1081 l 614 1081 l 614 11 l 583 11 l 583 160 b 378 -7 550 53 479 -7 b 144 393 217 -7 144 144 z m 583 393 b 378 765 583 633 519 765 b 175 393 239 765 175 633 b 378 21 175 153 239 21 b 583 393 519 21 583 153 z m 1018 21 b 1181 224 1108 21 1165 88 l 1210 217 b 1018 -7 1193 72 1126 -7 b 826 231 903 -7 842 88 b 751 206 803 221 778 213 l 742 235 b 824 261 772 243 801 253 l 824 815 b 1008 1099 824 994 888 1099 b 1194 815 1128 1099 1194 994 l 1194 803 b 853 242 1194 544 1083 344 l 854 242 b 1018 21 865 104 917 21 z m 1008 1071 b 853 817 910 1071 853 986 l 853 274 b 1165 803 1065 371 1165 560 l 1165 817 b 1008 1071 1165 986 1107 1071 z "},"ℓ":{"ha":707,"x_min":0,"x_max":0,"o":"m 393 21 b 613 224 514 21 593 88 l 643 217 b 393 -7 619 72 535 -7 b 140 232 239 -7 158 86 b 40 207 108 222 75 214 l 28 235 b 138 261 65 242 103 251 b 136 304 136 275 136 289 l 136 815 b 379 1099 136 994 219 1099 b 622 815 538 1099 622 994 l 622 803 b 169 242 622 543 475 344 b 393 21 185 104 256 21 z m 379 1071 b 167 817 246 1071 167 986 l 167 306 b 168 272 167 294 167 283 b 592 803 456 369 592 558 l 592 817 b 379 1071 592 986 513 1071 z "},"㎘":{"ha":1333,"x_min":0,"x_max":0,"o":"m 233 11 l 203 11 l 203 1081 l 233 1081 l 233 424 l 338 424 l 588 775 l 624 775 l 365 410 l 651 11 l 615 11 l 338 396 l 233 396 z m 1004 21 b 1167 224 1094 21 1151 88 l 1196 217 b 1004 -7 1179 72 1113 -7 b 813 231 889 -7 828 88 b 724 200 789 221 757 210 l 714 229 b 810 261 749 239 783 251 l 810 815 b 994 1099 810 994 874 1099 b 1181 815 1114 1099 1181 994 l 1181 803 b 839 242 1181 544 1069 344 l 840 242 b 1004 21 851 104 903 21 z m 994 1071 b 839 817 896 1071 839 986 l 839 274 b 1151 803 1051 371 1151 560 l 1151 817 b 994 1071 1151 986 1093 1071 z "},"㏄":{"ha":1333,"x_min":0,"x_max":0,"o":"m 114 393 b 365 793 114 642 192 793 b 607 539 508 793 590 697 l 578 539 b 365 765 561 681 490 765 b 144 393 213 765 144 633 b 365 21 144 153 213 21 b 578 247 490 21 561 106 l 607 247 b 365 -7 590 89 508 -7 b 114 393 192 -7 114 144 z m 731 393 b 982 793 731 642 808 793 b 1224 539 1125 793 1207 697 l 1193 539 b 982 765 1176 681 1107 765 b 760 393 829 765 760 633 b 982 21 760 153 829 21 b 1193 247 1107 21 1176 106 l 1224 247 b 982 -7 1207 89 1125 -7 b 731 393 808 -7 731 144 z "},"㎣":{"ha":1333,"x_min":0,"x_max":0,"o":"m 1254 938 b 1182 1011 1254 982 1228 1011 l 1142 1011 l 1142 1036 l 1185 1036 b 1246 1100 1226 1036 1246 1067 b 1178 1163 1246 1136 1219 1163 b 1111 1100 1138 1163 1111 1136 l 1111 1083 l 1082 1083 l 1082 1100 b 1178 1188 1082 1147 1118 1188 b 1274 1100 1238 1188 1274 1147 b 1232 1024 1274 1065 1260 1036 b 1283 939 1263 1011 1283 981 b 1178 839 1283 878 1243 839 b 1072 951 1113 839 1072 883 l 1101 951 b 1178 864 1101 897 1133 864 b 1254 938 1222 864 1254 893 z m 579 11 l 579 524 b 479 765 579 683 544 765 b 357 376 411 765 357 626 l 357 11 l 328 11 l 328 524 b 228 765 328 683 292 765 b 104 376 160 765 104 626 l 104 11 l 75 11 l 75 775 l 104 775 l 104 619 b 229 793 122 718 164 793 b 353 621 294 793 338 732 b 481 793 375 729 419 793 b 608 531 563 793 608 701 l 608 11 z m 1232 11 l 1232 524 b 1132 765 1232 683 1197 765 b 1010 376 1064 765 1010 626 l 1010 11 l 981 11 l 981 524 b 881 765 981 683 944 765 b 757 376 813 765 757 626 l 757 11 l 728 11 l 728 775 l 757 775 l 757 619 b 882 793 775 718 817 793 b 1006 621 947 793 990 732 b 1133 793 1028 729 1072 793 b 1261 531 1215 793 1261 701 l 1261 11 z "},"㎤":{"ha":1333,"x_min":0,"x_max":0,"o":"m 56 393 b 290 793 56 642 129 793 b 517 539 424 793 500 697 l 488 539 b 290 765 471 681 407 765 b 86 393 149 765 86 633 b 290 21 86 153 149 21 b 488 247 407 21 471 106 l 517 247 b 290 -7 500 89 424 -7 b 56 393 129 -7 56 144 z m 1254 938 b 1182 1011 1254 982 1228 1011 l 1142 1011 l 1142 1036 l 1185 1036 b 1246 1100 1226 1036 1246 1067 b 1178 1163 1246 1136 1219 1163 b 1111 1100 1138 1163 1111 1136 l 1111 1083 l 1082 1083 l 1082 1100 b 1178 1188 1082 1147 1118 1188 b 1274 1100 1238 1188 1274 1147 b 1232 1024 1274 1065 1260 1036 b 1283 939 1263 1011 1283 981 b 1178 839 1283 878 1243 839 b 1072 951 1113 839 1072 883 l 1101 951 b 1178 864 1101 897 1133 864 b 1254 938 1222 864 1254 893 z m 1221 11 l 1221 524 b 1099 765 1221 683 1176 765 b 947 376 1014 765 947 626 l 947 11 l 918 11 l 918 524 b 796 765 918 683 874 765 b 646 376 711 765 646 626 l 646 11 l 615 11 l 615 775 l 646 775 l 646 613 b 797 793 674 725 725 793 b 944 603 878 793 931 728 b 1100 793 969 724 1025 793 b 1250 531 1196 793 1250 701 l 1250 11 z "},"㎥":{"ha":1333,"x_min":0,"x_max":0,"o":"m 1113 11 l 1113 524 b 911 765 1113 683 1042 765 b 664 376 774 765 664 626 l 664 11 l 633 11 l 633 524 b 431 765 633 683 561 765 b 183 376 293 765 183 626 l 183 11 l 153 11 l 153 775 l 183 775 l 183 556 b 433 793 219 704 308 793 b 663 556 569 793 654 714 b 914 793 693 703 789 793 b 1143 531 1058 793 1143 701 l 1143 11 z m 1254 938 b 1182 1011 1254 982 1228 1011 l 1142 1011 l 1142 1036 l 1185 1036 b 1246 1100 1226 1036 1246 1067 b 1178 1163 1246 1136 1219 1163 b 1111 1100 1138 1163 1111 1136 l 1111 1083 l 1082 1083 l 1082 1100 b 1178 1188 1082 1147 1118 1188 b 1274 1100 1238 1188 1274 1147 b 1232 1024 1274 1065 1260 1036 b 1283 939 1263 1011 1283 981 b 1178 839 1283 878 1243 839 b 1072 951 1113 839 1072 883 l 1101 951 b 1178 864 1101 897 1133 864 b 1254 938 1222 864 1254 893 z "},"㎦":{"ha":1333,"x_min":0,"x_max":0,"o":"m 103 11 l 72 11 l 72 1081 l 103 1081 l 103 424 l 208 424 l 490 775 l 526 775 l 236 410 l 557 11 l 519 11 l 208 396 l 103 396 z m 1254 938 b 1182 1011 1254 982 1228 1011 l 1142 1011 l 1142 1036 l 1185 1036 b 1246 1100 1226 1036 1246 1067 b 1178 1163 1246 1136 1219 1163 b 1111 1100 1138 1163 1111 1136 l 1111 1083 l 1082 1083 l 1082 1100 b 1178 1188 1082 1147 1118 1188 b 1274 1100 1238 1188 1274 1147 b 1232 1024 1274 1065 1260 1036 b 1283 939 1263 1011 1283 981 b 1178 839 1283 878 1243 839 b 1072 951 1113 839 1072 883 l 1101 951 b 1178 864 1101 897 1133 864 b 1254 938 1222 864 1254 893 z m 1214 11 l 1214 524 b 1092 765 1214 683 1169 765 b 940 376 1007 765 940 626 l 940 11 l 911 11 l 911 524 b 789 765 911 683 867 765 b 639 376 704 765 639 626 l 639 11 l 608 11 l 608 775 l 639 775 l 639 613 b 790 793 667 725 718 793 b 938 603 871 793 924 728 b 1093 793 963 724 1018 793 b 1243 531 1189 793 1243 701 l 1243 11 z "},"㎙":{"ha":1333,"x_min":0,"x_max":0,"o":"m 1183 11 l 1183 524 b 1061 765 1183 683 1139 765 b 910 376 976 765 910 626 l 910 11 l 881 11 l 881 524 b 758 765 881 683 836 765 b 608 376 674 765 608 626 l 608 11 l 578 11 l 578 775 l 608 775 l 608 613 b 760 793 636 725 688 793 b 907 603 840 793 893 728 b 1063 793 932 724 988 793 b 1213 531 1158 793 1213 701 l 1213 11 z m 472 1064 l 407 1064 b 232 883 269 1064 232 1022 l 232 775 l 472 775 l 472 747 l 232 747 l 232 11 l 201 11 l 201 747 l 83 747 l 83 775 l 201 775 l 201 889 b 408 1092 201 1043 253 1092 b 472 1090 429 1092 451 1092 z "},"㎚":{"ha":1333,"x_min":0,"x_max":0,"o":"m 111 11 l 81 11 l 81 775 l 111 775 l 111 596 b 304 793 143 724 213 793 b 483 479 418 793 483 678 l 483 11 l 453 11 l 453 479 b 303 765 453 664 400 765 b 111 399 196 765 115 632 z m 1225 11 l 1225 524 b 1103 765 1225 683 1181 765 b 951 376 1018 765 951 626 l 951 11 l 922 11 l 922 524 b 800 765 922 683 878 765 b 650 376 715 765 650 626 l 650 11 l 619 11 l 619 775 l 650 775 l 650 613 b 801 793 678 725 729 793 b 949 603 882 793 935 728 b 1104 793 974 724 1029 793 b 1254 531 1200 793 1254 701 l 1254 11 z "},"㎛":{"ha":1333,"x_min":0,"x_max":0,"o":"m 107 775 l 107 307 b 257 21 107 122 158 21 b 447 406 367 21 447 161 l 447 775 l 478 775 l 478 11 l 447 11 l 447 189 b 254 -7 415 61 346 -7 b 107 114 185 -7 133 33 l 107 -321 l 76 -321 l 76 775 z m 1225 11 l 1225 524 b 1103 765 1225 683 1181 765 b 951 376 1018 765 951 626 l 951 11 l 922 11 l 922 524 b 800 765 922 683 878 765 b 650 376 715 765 650 626 l 650 11 l 619 11 l 619 775 l 650 775 l 650 613 b 801 793 678 725 729 793 b 949 603 882 793 935 728 b 1104 793 974 724 1029 793 b 1254 531 1200 793 1254 701 l 1254 11 z "},"㎜":{"ha":1333,"x_min":0,"x_max":0,"o":"m 579 11 l 579 524 b 479 765 579 683 544 765 b 357 376 411 765 357 626 l 357 11 l 328 11 l 328 524 b 228 765 328 683 292 765 b 104 376 160 765 104 626 l 104 11 l 75 11 l 75 775 l 104 775 l 104 619 b 229 793 122 718 164 793 b 353 621 294 793 338 732 b 481 793 375 729 419 793 b 608 531 563 793 608 701 l 608 11 z m 1232 11 l 1232 524 b 1132 765 1232 683 1197 765 b 1010 376 1064 765 1010 626 l 1010 11 l 981 11 l 981 524 b 881 765 981 683 944 765 b 757 376 813 765 757 626 l 757 11 l 728 11 l 728 775 l 757 775 l 757 619 b 882 793 775 718 817 793 b 1006 621 947 793 990 732 b 1133 793 1028 729 1072 793 b 1261 531 1215 793 1261 701 l 1261 11 z "},"㎝":{"ha":1333,"x_min":0,"x_max":0,"o":"m 60 393 b 294 793 60 642 133 793 b 521 539 428 793 504 697 l 492 539 b 294 765 475 681 411 765 b 90 393 153 765 90 633 b 294 21 90 153 153 21 b 492 247 411 21 475 106 l 521 247 b 294 -7 504 89 428 -7 b 60 393 133 -7 60 144 z m 1225 11 l 1225 524 b 1103 765 1225 683 1181 765 b 951 376 1018 765 951 626 l 951 11 l 922 11 l 922 524 b 800 765 922 683 878 765 b 650 376 715 765 650 626 l 650 11 l 619 11 l 619 775 l 650 775 l 650 613 b 801 793 678 725 729 793 b 949 603 882 793 935 728 b 1104 793 974 724 1029 793 b 1254 531 1200 793 1254 701 l 1254 11 z "},"㎞":{"ha":1333,"x_min":0,"x_max":0,"o":"m 117 11 l 86 11 l 86 1081 l 117 1081 l 117 424 l 222 424 l 504 775 l 540 775 l 250 410 l 571 11 l 533 11 l 222 396 l 117 396 z m 1228 11 l 1228 524 b 1106 765 1228 683 1183 765 b 954 376 1021 765 954 626 l 954 11 l 925 11 l 925 524 b 803 765 925 683 881 765 b 653 376 718 765 653 626 l 653 11 l 622 11 l 622 775 l 653 775 l 653 613 b 804 793 681 725 732 793 b 951 603 885 793 938 728 b 1107 793 976 724 1032 793 b 1257 531 1203 793 1257 701 l 1257 11 z "},"㎟":{"ha":1333,"x_min":0,"x_max":0,"o":"m 1275 1089 b 1240 1007 1275 1061 1265 1036 l 1119 871 l 1281 871 l 1281 846 l 1079 846 l 1079 865 l 1219 1024 b 1247 1088 1239 1044 1247 1065 b 1175 1164 1247 1131 1221 1164 b 1103 1088 1129 1164 1103 1131 l 1103 1071 l 1075 1071 l 1075 1089 b 1175 1189 1075 1142 1108 1189 b 1275 1089 1242 1189 1275 1142 z m 579 11 l 579 524 b 479 765 579 683 544 765 b 357 376 411 765 357 626 l 357 11 l 328 11 l 328 524 b 228 765 328 683 292 765 b 104 376 160 765 104 626 l 104 11 l 75 11 l 75 775 l 104 775 l 104 619 b 229 793 122 718 164 793 b 353 621 294 793 338 732 b 481 793 375 729 419 793 b 608 531 563 793 608 701 l 608 11 z m 1232 11 l 1232 524 b 1132 765 1232 683 1197 765 b 1010 376 1064 765 1010 626 l 1010 11 l 981 11 l 981 524 b 881 765 981 683 944 765 b 757 376 813 765 757 626 l 757 11 l 728 11 l 728 775 l 757 775 l 757 619 b 882 793 775 718 817 793 b 1006 621 947 793 990 732 b 1133 793 1028 729 1072 793 b 1261 531 1215 793 1261 701 l 1261 11 z "},"㎠":{"ha":1333,"x_min":0,"x_max":0,"o":"m 56 393 b 290 793 56 642 129 793 b 517 539 424 793 500 697 l 488 539 b 290 765 471 681 407 765 b 86 393 149 765 86 633 b 290 21 86 153 149 21 b 488 247 407 21 471 106 l 517 247 b 290 -7 500 89 424 -7 b 56 393 129 -7 56 144 z m 1221 11 l 1221 524 b 1099 765 1221 683 1176 765 b 947 376 1014 765 947 626 l 947 11 l 918 11 l 918 524 b 796 765 918 683 874 765 b 646 376 711 765 646 626 l 646 11 l 615 11 l 615 775 l 646 775 l 646 613 b 797 793 674 725 725 793 b 944 603 878 793 931 728 b 1100 793 969 724 1025 793 b 1250 531 1196 793 1250 701 l 1250 11 z m 1275 1089 b 1240 1007 1275 1061 1265 1036 l 1119 871 l 1281 871 l 1281 846 l 1079 846 l 1079 865 l 1219 1024 b 1247 1088 1239 1044 1247 1065 b 1175 1164 1247 1131 1221 1164 b 1103 1088 1129 1164 1103 1131 l 1103 1071 l 1075 1071 l 1075 1089 b 1175 1189 1075 1142 1108 1189 b 1275 1089 1242 1189 1275 1142 z "},"㎡":{"ha":1333,"x_min":0,"x_max":0,"o":"m 1113 11 l 1113 524 b 911 765 1113 683 1042 765 b 664 376 774 765 664 626 l 664 11 l 633 11 l 633 524 b 431 765 633 683 561 765 b 183 376 293 765 183 626 l 183 11 l 153 11 l 153 775 l 183 775 l 183 556 b 433 793 219 704 308 793 b 663 556 569 793 654 714 b 914 793 693 703 789 793 b 1143 531 1058 793 1143 701 l 1143 11 z m 1275 1089 b 1240 1007 1275 1061 1265 1036 l 1119 871 l 1281 871 l 1281 846 l 1079 846 l 1079 865 l 1219 1024 b 1247 1088 1239 1044 1247 1065 b 1175 1164 1247 1131 1221 1164 b 1103 1088 1129 1164 1103 1131 l 1103 1071 l 1075 1071 l 1075 1089 b 1175 1189 1075 1142 1108 1189 b 1275 1089 1242 1189 1275 1142 z "},"㎢":{"ha":1333,"x_min":0,"x_max":0,"o":"m 103 11 l 72 11 l 72 1081 l 103 1081 l 103 424 l 208 424 l 490 775 l 526 775 l 236 410 l 557 11 l 519 11 l 208 396 l 103 396 z m 1214 11 l 1214 524 b 1092 765 1214 683 1169 765 b 940 376 1007 765 940 626 l 940 11 l 911 11 l 911 524 b 789 765 911 683 867 765 b 639 376 704 765 639 626 l 639 11 l 608 11 l 608 775 l 639 775 l 639 613 b 790 793 667 725 718 793 b 938 603 871 793 924 728 b 1093 793 963 724 1018 793 b 1243 531 1189 793 1243 701 l 1243 11 z m 1275 1089 b 1240 1007 1275 1061 1265 1036 l 1119 871 l 1281 871 l 1281 846 l 1079 846 l 1079 865 l 1219 1024 b 1247 1088 1239 1044 1247 1065 b 1175 1164 1247 1131 1221 1164 b 1103 1088 1129 1164 1103 1131 l 1103 1071 l 1075 1071 l 1075 1089 b 1175 1189 1075 1142 1108 1189 b 1275 1089 1242 1189 1275 1142 z "},"㏊":{"ha":1333,"x_min":0,"x_max":0,"o":"m 167 11 l 136 11 l 136 775 l 167 775 l 167 581 b 390 793 201 717 282 793 b 594 479 519 793 594 678 l 594 11 l 564 11 l 564 479 b 388 765 564 664 503 765 b 167 399 263 765 172 632 z m 1164 236 b 960 451 1164 365 1099 451 b 758 236 822 451 758 365 b 960 21 758 106 822 21 b 1164 236 1099 21 1164 106 z m 1194 519 l 1194 117 b 1211 11 1194 76 1201 40 l 1181 11 b 1164 107 1169 39 1164 72 b 958 -7 1135 35 1064 -7 b 728 236 807 -7 728 89 b 958 479 728 382 807 479 b 1164 364 1063 479 1133 435 l 1164 525 b 972 765 1164 668 1099 765 b 785 563 850 765 794 685 l 754 563 b 972 793 765 699 832 793 b 1194 519 1115 793 1194 685 z "},"㎍":{"ha":1333,"x_min":0,"x_max":0,"o":"m 151 775 l 151 307 b 328 21 151 122 213 21 b 550 406 456 21 550 161 l 550 775 l 581 775 l 581 11 l 550 11 l 550 206 b 325 -7 515 69 433 -7 b 151 126 243 -7 182 36 l 151 -321 l 121 -321 l 121 775 z m 1181 393 b 968 765 1181 633 1115 765 b 758 393 824 765 758 633 b 968 21 758 153 824 21 b 1181 393 1115 21 1181 153 z m 767 -124 l 796 -124 b 986 -314 808 -237 878 -314 b 1181 -44 1110 -314 1181 -212 l 1181 171 b 968 -7 1147 57 1075 -7 b 728 393 804 -7 728 144 b 968 793 728 642 804 793 b 1181 615 1075 793 1147 729 l 1181 775 l 1210 775 l 1210 -44 b 986 -342 1210 -221 1135 -342 b 767 -124 854 -342 779 -249 z "},"㎎":{"ha":1333,"x_min":0,"x_max":0,"o":"m 1228 393 b 1038 765 1228 633 1168 765 b 850 393 911 765 850 633 b 1038 21 850 153 911 21 b 1228 393 1168 21 1228 153 z m 854 -124 l 885 -124 b 1054 -314 896 -237 958 -314 b 1228 -44 1164 -314 1228 -212 l 1228 160 b 1038 -7 1196 53 1133 -7 b 819 393 889 -7 819 144 b 1038 793 819 642 889 793 b 1228 626 1133 793 1196 733 l 1228 775 l 1258 775 l 1258 -44 b 1054 -342 1258 -221 1189 -342 b 854 -124 933 -342 865 -249 z m 679 11 l 679 524 b 557 765 679 683 635 765 b 406 376 472 765 406 626 l 406 11 l 376 11 l 376 524 b 254 765 376 683 332 765 b 104 376 169 765 104 626 l 104 11 l 74 11 l 74 775 l 104 775 l 104 613 b 256 793 132 725 183 793 b 403 603 336 793 389 728 b 558 793 428 724 483 793 b 708 531 654 793 708 701 l 708 11 z "},"㎏":{"ha":1333,"x_min":0,"x_max":0,"o":"m 206 11 l 175 11 l 175 1081 l 206 1081 l 206 424 l 310 424 l 560 775 l 596 775 l 338 410 l 624 11 l 588 11 l 310 396 l 206 396 z m 1139 393 b 926 765 1139 633 1074 765 b 717 393 782 765 717 633 b 926 21 717 153 782 21 b 1139 393 1074 21 1139 153 z m 725 -124 l 754 -124 b 944 -314 767 -237 836 -314 b 1139 -44 1068 -314 1139 -212 l 1139 171 b 926 -7 1106 57 1033 -7 b 686 393 763 -7 686 144 b 926 793 686 642 763 793 b 1139 615 1033 793 1106 729 l 1139 775 l 1168 775 l 1168 -44 b 944 -342 1168 -221 1093 -342 b 725 -124 813 -342 738 -249 z "},"㏏":{"ha":1333,"x_min":0,"x_max":0,"o":"m 204 11 l 174 11 l 174 1081 l 204 1081 l 204 424 l 325 424 l 638 775 l 675 775 l 353 410 l 710 11 l 671 11 l 325 396 l 204 396 z m 936 747 l 936 204 b 1118 28 936 63 1004 28 l 1192 28 l 1192 1 b 1119 0 1164 0 1142 0 b 906 207 976 0 906 50 l 906 747 l 788 747 l 788 775 l 906 775 l 906 992 l 936 992 l 936 775 l 1192 775 l 1192 747 z "},"㎈":{"ha":1333,"x_min":0,"x_max":0,"o":"m 74 393 b 292 793 74 642 142 793 b 500 539 414 793 486 697 l 469 539 b 292 765 456 681 396 765 b 104 393 163 765 104 633 b 292 21 104 153 163 21 b 469 247 396 21 456 106 l 500 247 b 292 -7 486 89 414 -7 b 74 393 142 -7 74 144 z m 999 236 b 818 451 999 365 940 451 b 638 236 696 451 638 365 b 818 21 638 106 696 21 b 999 236 940 21 999 106 z m 1029 519 l 1029 117 b 1044 11 1029 76 1035 40 l 1013 11 b 999 100 1004 33 999 69 b 815 -7 969 33 907 -7 b 607 236 679 -7 607 89 b 815 479 607 382 679 479 b 999 372 910 479 969 443 l 999 525 b 829 765 999 668 940 765 b 661 563 721 765 669 685 l 631 563 b 829 793 640 699 701 793 b 1029 519 958 793 1029 685 z m 1221 11 l 1190 11 l 1190 1081 l 1221 1081 z "},"㎉":{"ha":1333,"x_min":0,"x_max":0,"o":"m 125 11 l 94 11 l 94 1081 l 125 1081 l 125 424 l 186 424 l 360 775 l 393 775 l 213 410 l 414 11 l 379 11 l 186 396 l 125 396 z m 415 393 b 574 793 415 642 465 793 b 725 539 663 793 715 697 l 694 539 b 574 765 685 681 644 765 b 447 393 486 765 447 633 b 574 21 447 153 486 21 b 694 247 644 21 685 106 l 725 247 b 574 -7 715 89 663 -7 b 415 393 465 -7 415 144 z m 1063 236 b 940 451 1063 365 1024 451 b 818 236 858 451 818 365 b 940 21 818 106 858 21 b 1063 236 1024 21 1063 106 z m 1094 519 l 1094 117 b 1104 11 1094 76 1097 40 l 1072 11 b 1064 79 1067 29 1065 54 b 939 -7 1042 24 999 -7 b 788 236 840 -7 788 89 b 939 479 788 382 840 479 b 1063 397 1000 479 1040 451 l 1063 525 b 949 765 1063 668 1024 765 b 835 563 875 765 840 685 l 804 563 b 949 793 811 699 857 793 b 1094 519 1042 793 1094 685 z m 1249 11 l 1218 11 l 1218 1081 l 1249 1081 z "},"㏈":{"ha":1333,"x_min":0,"x_max":0,"o":"m 104 393 b 326 793 104 642 174 793 b 519 626 422 793 489 733 l 519 1081 l 551 1081 l 551 11 l 519 11 l 519 160 b 326 -7 489 53 422 -7 b 104 393 174 -7 104 144 z m 519 393 b 326 765 519 633 458 765 b 135 393 194 765 135 633 b 326 21 135 153 194 21 b 519 393 458 21 519 153 z m 754 574 l 989 574 b 1174 813 1118 574 1174 664 b 989 1053 1174 963 1118 1053 l 754 1053 z m 993 11 l 724 11 l 724 1081 l 993 1081 b 1206 815 1136 1081 1206 979 b 1071 561 1206 665 1147 588 b 1226 292 1171 532 1226 443 b 993 11 1226 96 1146 11 z m 1196 292 b 988 546 1196 449 1143 546 l 754 546 l 754 39 l 988 39 b 1196 292 1143 39 1196 136 z "},"㎧":{"ha":1333,"x_min":0,"x_max":0,"o":"m 1256 597 l 1256 565 l 1222 565 l 1222 597 b 1081 765 1222 694 1172 765 b 939 596 992 765 939 694 b 1061 426 939 499 978 454 b 1136 404 1086 418 1111 411 b 1274 206 1231 376 1274 314 b 1089 -7 1274 75 1194 -7 b 904 206 985 -7 904 75 l 904 235 l 938 235 l 938 206 b 1089 21 938 90 1001 21 b 1242 206 1178 21 1242 90 b 1126 378 1242 301 1208 353 b 1050 401 1104 385 1076 393 b 908 597 954 431 908 492 b 1081 793 908 704 971 793 b 1256 597 1192 793 1256 704 z m 556 11 l 556 524 b 461 765 556 683 522 765 b 344 376 394 765 344 626 l 344 11 l 314 11 l 314 524 b 218 765 314 683 279 765 b 101 376 153 765 101 626 l 101 11 l 69 11 l 69 775 l 101 775 l 101 638 b 219 793 125 733 165 793 b 339 625 282 793 325 736 b 463 793 360 731 404 793 b 586 531 540 793 586 701 l 586 11 z m 857 1081 l 888 1081 l 649 -318 l 618 -318 z "},"㎨":{"ha":1333,"x_min":0,"x_max":0,"o":"m 1256 597 l 1256 565 l 1222 565 l 1222 597 b 1081 765 1222 694 1172 765 b 939 596 992 765 939 694 b 1061 426 939 499 978 454 b 1136 404 1086 418 1111 411 b 1274 206 1231 376 1274 314 b 1089 -7 1274 75 1194 -7 b 904 206 985 -7 904 75 l 904 235 l 938 235 l 938 206 b 1089 21 938 90 1001 21 b 1242 206 1178 21 1242 90 b 1126 378 1242 301 1208 353 b 1050 401 1104 385 1076 393 b 908 597 954 431 908 492 b 1081 793 908 704 971 793 b 1256 597 1192 793 1256 704 z m 556 11 l 556 524 b 461 765 556 683 522 765 b 344 376 394 765 344 626 l 344 11 l 314 11 l 314 524 b 218 765 314 683 279 765 b 101 376 153 765 101 626 l 101 11 l 69 11 l 69 775 l 101 775 l 101 638 b 219 793 125 733 165 793 b 339 625 282 793 325 736 b 463 793 360 731 404 793 b 586 531 540 793 586 701 l 586 11 z m 857 1081 l 888 1081 l 649 -318 l 618 -318 z m 1275 1103 b 1240 1021 1275 1075 1265 1050 l 1119 885 l 1281 885 l 1281 860 l 1079 860 l 1079 879 l 1219 1038 b 1247 1101 1239 1058 1247 1079 b 1175 1178 1247 1144 1221 1178 b 1103 1101 1129 1178 1103 1144 l 1103 1085 l 1075 1085 l 1075 1103 b 1175 1203 1075 1156 1108 1203 b 1275 1103 1242 1203 1275 1156 z "},"㎰":{"ha":1333,"x_min":0,"x_max":0,"o":"m 643 393 b 392 -7 643 144 565 -7 b 169 174 275 -7 201 50 l 169 -321 l 139 -321 l 139 775 l 169 775 l 169 613 b 392 793 204 724 281 793 b 643 393 565 793 643 642 z m 614 393 b 392 765 614 633 544 765 b 169 393 238 765 169 633 b 392 21 169 153 238 21 b 614 393 544 21 614 153 z m 1193 597 l 1193 565 l 1163 565 l 1163 597 b 982 765 1163 694 1097 765 b 801 596 868 765 801 694 b 956 426 801 499 847 453 b 1051 404 988 419 1019 411 b 1217 206 1174 375 1217 313 b 993 -7 1217 75 1122 -7 b 768 206 864 -7 768 75 l 768 235 l 799 235 l 799 206 b 993 21 799 90 881 21 b 1186 206 1104 21 1186 90 b 1040 378 1186 301 1147 351 b 944 400 1008 385 976 393 b 772 597 822 429 772 489 b 982 793 772 704 847 793 b 1193 597 1118 793 1193 704 z "},"㎱":{"ha":1333,"x_min":0,"x_max":0,"o":"m 171 11 l 140 11 l 140 775 l 171 775 l 171 581 b 408 793 208 717 293 793 b 621 479 543 793 621 678 l 621 11 l 590 11 l 590 479 b 406 765 590 664 526 765 b 171 399 274 765 176 632 z m 1193 597 l 1193 565 l 1163 565 l 1163 597 b 982 765 1163 694 1097 765 b 801 596 868 765 801 694 b 956 426 801 499 847 453 b 1051 404 988 419 1019 411 b 1217 206 1174 375 1217 313 b 993 -7 1217 75 1122 -7 b 768 206 864 -7 768 75 l 768 235 l 799 235 l 799 206 b 993 21 799 90 881 21 b 1186 206 1104 21 1186 90 b 1040 378 1186 301 1147 351 b 944 400 1008 385 976 393 b 772 597 822 429 772 489 b 982 793 772 704 847 793 b 1193 597 1118 793 1193 704 z "},"㎲":{"ha":1333,"x_min":0,"x_max":0,"o":"m 182 775 l 182 307 b 368 21 182 122 247 21 b 601 406 503 21 601 161 l 601 775 l 632 775 l 632 11 l 601 11 l 601 206 b 364 -7 564 69 479 -7 b 182 126 279 -7 214 36 l 182 -321 l 151 -321 l 151 775 z m 1193 597 l 1193 565 l 1163 565 l 1163 597 b 982 765 1163 694 1097 765 b 801 596 868 765 801 694 b 956 426 801 499 847 453 b 1051 404 988 419 1019 411 b 1217 206 1174 375 1217 313 b 993 -7 1217 75 1122 -7 b 768 206 864 -7 768 75 l 768 235 l 799 235 l 799 206 b 993 21 799 90 881 21 b 1186 206 1104 21 1186 90 b 1040 378 1186 301 1147 351 b 944 400 1008 385 976 393 b 772 597 822 429 772 489 b 982 793 772 704 847 793 b 1193 597 1118 793 1193 704 z "},"㎳":{"ha":1333,"x_min":0,"x_max":0,"o":"m 1231 597 l 1231 565 l 1200 565 l 1200 597 b 1044 765 1200 694 1143 765 b 888 596 946 765 888 694 b 1022 426 888 499 928 453 b 1106 404 1049 419 1079 411 b 1251 206 1213 375 1251 313 b 1053 -7 1251 75 1168 -7 b 854 206 938 -7 854 75 l 854 235 l 885 235 l 885 206 b 1053 21 885 90 956 21 b 1221 206 1149 21 1221 90 b 1093 378 1221 303 1185 351 b 1010 400 1067 385 1036 393 b 857 597 901 431 857 489 b 1044 793 857 704 924 793 b 1231 597 1164 793 1231 704 z m 693 11 l 693 524 b 571 765 693 683 649 765 b 419 376 486 765 419 626 l 419 11 l 390 11 l 390 524 b 268 765 390 683 346 765 b 118 376 183 765 118 626 l 118 11 l 88 11 l 88 775 l 118 775 l 118 613 b 269 793 146 725 197 793 b 417 603 350 793 403 728 b 572 793 442 724 497 793 b 722 531 668 793 722 701 l 722 11 z "},"㎴":{"ha":1333,"x_min":0,"x_max":0,"o":"m 644 393 b 393 -7 644 144 567 -7 b 171 174 276 -7 203 50 l 171 -321 l 140 -321 l 140 775 l 171 775 l 171 613 b 393 793 206 724 282 793 b 644 393 567 793 644 642 z m 615 393 b 393 765 615 633 546 765 b 171 393 239 765 171 633 b 393 21 171 153 239 21 b 615 393 546 21 615 153 z m 650 1081 l 961 69 l 1271 1081 l 1303 1081 l 974 11 l 947 11 l 618 1081 z "},"㎵":{"ha":1333,"x_min":0,"x_max":0,"o":"m 171 11 l 140 11 l 140 775 l 171 775 l 171 581 b 408 793 208 717 293 793 b 621 479 543 793 621 678 l 621 11 l 590 11 l 590 479 b 406 765 590 664 526 765 b 171 399 274 765 176 632 z m 650 1081 l 961 69 l 1271 1081 l 1303 1081 l 974 11 l 947 11 l 618 1081 z "},"㎶":{"ha":1333,"x_min":0,"x_max":0,"o":"m 163 775 l 163 307 b 349 21 163 122 228 21 b 582 406 483 21 582 161 l 582 775 l 613 775 l 613 11 l 582 11 l 582 206 b 344 -7 544 69 460 -7 b 163 126 260 -7 194 36 l 163 -321 l 132 -321 l 132 775 z m 650 1081 l 961 69 l 1271 1081 l 1303 1081 l 974 11 l 947 11 l 618 1081 z "},"㎷":{"ha":1333,"x_min":0,"x_max":0,"o":"m 739 1081 l 1008 76 l 1279 1081 l 1311 1081 l 1022 11 l 996 11 l 707 1081 z m 688 11 l 688 524 b 565 765 688 683 643 765 b 414 376 481 765 414 626 l 414 11 l 385 11 l 385 524 b 263 765 385 683 340 765 b 113 376 178 765 113 626 l 113 11 l 82 11 l 82 775 l 113 775 l 113 613 b 264 793 140 725 192 793 b 411 603 344 793 397 728 b 567 793 436 724 492 793 b 717 531 663 793 717 701 l 717 11 z "},"㎸":{"ha":1333,"x_min":0,"x_max":0,"o":"m 643 1081 l 954 69 l 1264 1081 l 1296 1081 l 967 11 l 940 11 l 611 1081 z m 199 11 l 168 11 l 168 1081 l 199 1081 l 199 424 l 303 424 l 567 775 l 603 775 l 331 410 l 631 11 l 594 11 l 303 396 l 199 396 z "},"㎹":{"ha":1333,"x_min":0,"x_max":0,"o":"m 417 11 l 385 11 l 121 969 l 121 11 l 92 11 l 92 1081 l 121 1081 l 401 64 l 681 1081 l 711 1081 l 711 11 l 681 11 l 681 969 z m 811 1081 l 1042 86 l 1271 1081 l 1301 1081 l 1054 11 l 1028 11 l 781 1081 z "},"㎀":{"ha":1333,"x_min":0,"x_max":0,"o":"m 650 11 l 617 11 l 947 1081 l 972 1081 l 1303 11 l 1271 11 l 1179 304 l 739 304 z m 1172 332 l 960 1022 l 747 332 z m 567 393 b 344 -7 567 144 497 -7 b 151 160 249 -7 182 53 l 151 -321 l 121 -321 l 121 775 l 151 775 l 151 626 b 344 793 182 733 249 793 b 567 393 497 793 567 642 z m 536 393 b 344 765 536 633 476 765 b 151 393 211 765 151 633 b 344 21 151 153 211 21 b 536 393 476 21 536 153 z "},"㎁":{"ha":1333,"x_min":0,"x_max":0,"o":"m 149 11 l 118 11 l 118 775 l 149 775 l 149 596 b 354 793 182 724 256 793 b 542 479 475 793 542 678 l 542 11 l 513 11 l 513 479 b 353 765 513 664 456 765 b 149 399 238 765 153 632 z m 650 11 l 617 11 l 947 1081 l 972 1081 l 1303 11 l 1271 11 l 1179 304 l 739 304 z m 1172 332 l 960 1022 l 747 332 z "},"㎂":{"ha":1333,"x_min":0,"x_max":0,"o":"m 153 775 l 153 307 b 314 21 153 122 210 21 b 517 406 431 21 517 161 l 517 775 l 546 775 l 546 11 l 517 11 l 517 189 b 311 -7 482 64 407 -7 b 153 117 239 -7 182 36 l 153 -321 l 122 -321 l 122 775 z m 650 11 l 617 11 l 947 1081 l 972 1081 l 1303 11 l 1271 11 l 1179 304 l 739 304 z m 1172 332 l 960 1022 l 747 332 z "},"㎃":{"ha":1333,"x_min":0,"x_max":0,"o":"m 749 11 l 717 11 l 1006 1081 l 1032 1081 l 1321 11 l 1289 11 l 1208 304 l 828 304 z m 1201 332 l 1018 1015 l 835 332 z m 669 11 l 669 524 b 547 765 669 683 625 765 b 396 376 463 765 396 626 l 396 11 l 367 11 l 367 524 b 244 765 367 683 322 765 b 94 376 160 765 94 626 l 94 11 l 64 11 l 64 775 l 94 775 l 94 613 b 246 793 122 725 174 793 b 393 603 326 793 379 728 b 549 793 418 724 474 793 b 699 531 644 793 699 701 l 699 11 z "},"㎄":{"ha":1333,"x_min":0,"x_max":0,"o":"m 1158 332 l 946 1022 l 733 332 z m 581 11 l 289 396 l 185 396 l 185 11 l 154 11 l 154 1081 l 185 1081 l 185 424 l 289 424 l 553 775 l 589 775 l 317 410 l 607 24 l 933 1081 l 958 1081 l 1289 11 l 1257 11 l 1165 304 l 725 304 l 636 11 z "},"㎺":{"ha":1333,"x_min":0,"x_max":0,"o":"m 494 393 b 301 -7 494 144 435 -7 b 139 143 222 -7 167 44 l 139 -321 l 108 -321 l 108 775 l 139 775 l 139 643 b 301 793 167 742 222 793 b 494 393 435 793 494 642 z m 465 393 b 301 765 465 633 414 765 b 139 393 189 765 139 633 b 301 21 139 153 189 21 b 465 393 414 21 465 153 z m 897 1081 l 925 1081 l 1114 97 l 1288 1081 l 1319 1081 l 1129 11 l 1100 11 l 911 996 l 722 11 l 693 11 l 504 1081 l 535 1081 l 710 97 z "},"㎻":{"ha":1333,"x_min":0,"x_max":0,"o":"m 132 11 l 101 11 l 101 775 l 132 775 l 132 611 b 306 793 163 731 224 793 b 469 479 411 793 469 678 l 469 11 l 439 11 l 439 479 b 304 765 439 664 392 765 b 132 399 207 765 136 632 z m 897 1081 l 925 1081 l 1114 97 l 1288 1081 l 1319 1081 l 1129 11 l 1100 11 l 911 996 l 722 11 l 693 11 l 504 1081 l 535 1081 l 710 97 z "},"㎼":{"ha":1333,"x_min":0,"x_max":0,"o":"m 132 775 l 132 307 b 268 21 132 122 181 21 b 439 406 367 21 439 161 l 439 775 l 469 775 l 469 11 l 439 11 l 439 175 b 265 -7 408 56 347 -7 b 132 104 201 -7 157 26 l 132 -321 l 101 -321 l 101 775 z m 897 1081 l 925 1081 l 1114 97 l 1288 1081 l 1319 1081 l 1129 11 l 1100 11 l 911 996 l 722 11 l 693 11 l 504 1081 l 535 1081 l 710 97 z "},"㎽":{"ha":1333,"x_min":0,"x_max":0,"o":"m 958 1081 l 986 1081 l 1143 113 l 1282 1081 l 1315 1081 l 1157 11 l 1128 11 l 972 982 l 817 11 l 789 11 l 631 1081 l 663 1081 l 803 114 z m 579 11 l 579 524 b 479 765 579 683 544 765 b 357 376 411 765 357 626 l 357 11 l 328 11 l 328 524 b 228 765 328 683 292 765 b 104 376 160 765 104 626 l 104 11 l 75 11 l 75 775 l 104 775 l 104 619 b 229 793 122 718 164 793 b 353 621 294 793 338 732 b 481 793 375 729 419 793 b 608 531 563 793 608 701 l 608 11 z "},"㎾":{"ha":1333,"x_min":0,"x_max":0,"o":"m 117 11 l 86 11 l 86 1081 l 117 1081 l 117 424 l 208 424 l 476 775 l 513 775 l 236 410 l 543 11 l 506 11 l 208 396 l 117 396 z m 897 1081 l 925 1081 l 1114 97 l 1288 1081 l 1319 1081 l 1129 11 l 1100 11 l 911 996 l 722 11 l 693 11 l 504 1081 l 535 1081 l 710 97 z "},"㎿":{"ha":1333,"x_min":0,"x_max":0,"o":"m 354 11 l 321 11 l 126 928 l 126 11 l 96 11 l 96 1081 l 126 1081 l 338 83 l 549 1081 l 579 1081 l 579 11 l 549 11 l 549 928 z m 954 1081 l 983 1081 l 1124 126 l 1253 1081 l 1285 1081 l 1140 11 l 1108 11 l 968 967 l 828 11 l 797 11 l 651 1081 l 683 1081 l 813 125 z "},"㎐":{"ha":1333,"x_min":0,"x_max":0,"o":"m 631 11 l 631 546 l 176 546 l 176 11 l 146 11 l 146 1081 l 176 1081 l 176 574 l 631 574 l 631 1081 l 663 1081 l 663 11 z m 1232 775 l 1232 747 l 844 39 l 1240 39 l 1240 11 l 808 11 l 808 39 l 1197 747 l 819 747 l 819 775 z "},"㎑":{"ha":1333,"x_min":0,"x_max":0,"o":"m 118 11 l 88 11 l 88 1081 l 118 1081 l 118 424 l 194 424 l 413 775 l 447 775 l 222 410 l 472 11 l 436 11 l 194 396 l 118 396 z m 850 11 l 850 546 l 540 546 l 540 11 l 510 11 l 510 1081 l 540 1081 l 540 574 l 850 574 l 850 1081 l 881 1081 l 881 11 z m 1279 775 l 1279 747 l 1008 39 l 1285 39 l 1285 11 l 974 11 l 974 39 l 1246 747 l 982 747 l 982 775 z "},"㎒":{"ha":1333,"x_min":0,"x_max":0,"o":"m 299 11 l 265 11 l 85 931 l 85 11 l 54 11 l 54 1081 l 85 1081 l 282 81 l 479 1081 l 510 1081 l 510 11 l 479 11 l 479 931 z m 899 11 l 899 546 l 658 546 l 658 11 l 628 11 l 628 1081 l 658 1081 l 658 574 l 899 574 l 899 1081 l 929 1081 l 929 11 z m 1293 775 l 1293 747 l 1036 39 l 1299 39 l 1299 11 l 1001 11 l 1001 39 l 1260 747 l 1010 747 l 1010 775 z "},"㎓":{"ha":1333,"x_min":0,"x_max":0,"o":"m 60 546 b 117 989 60 739 75 896 b 261 1099 147 1057 200 1099 b 456 739 379 1099 449 961 l 426 739 b 261 1071 419 939 365 1071 b 142 971 213 1071 169 1035 b 89 546 100 875 89 719 b 142 121 89 372 101 215 b 261 21 169 57 213 21 b 381 121 310 21 350 53 b 429 414 407 181 429 290 l 429 503 l 258 503 l 258 531 l 458 531 l 458 11 l 429 11 l 429 178 b 407 104 424 153 417 126 b 261 -7 372 28 325 -7 b 117 103 200 -7 147 35 b 60 546 75 196 60 353 z m 886 11 l 886 546 l 599 546 l 599 11 l 569 11 l 569 1081 l 599 1081 l 599 574 l 886 574 l 886 1081 l 915 1081 l 915 11 z m 1279 775 l 1279 747 l 1024 39 l 1285 39 l 1285 11 l 992 11 l 992 39 l 1247 747 l 999 747 l 999 775 z "},"㎔":{"ha":1333,"x_min":0,"x_max":0,"o":"m 850 11 l 850 546 l 554 546 l 554 11 l 524 11 l 524 1081 l 554 1081 l 554 574 l 850 574 l 850 1081 l 881 1081 l 881 11 z m 1279 775 l 1279 747 l 1008 39 l 1285 39 l 1285 11 l 974 11 l 974 39 l 1246 747 l 982 747 l 982 775 z m 24 1053 l 24 1081 l 454 1081 l 454 1053 l 254 1053 l 254 11 l 224 11 l 224 1053 z "},"Ω":{"ha":963,"x_min":0,"x_max":0,"o":"m 481 1099 b 756 989 600 1099 692 1063 b 871 546 839 894 871 742 b 640 39 871 301 819 103 l 838 39 l 838 11 l 567 11 l 567 39 b 840 546 792 92 840 311 b 733 971 840 722 815 874 b 481 1071 675 1038 589 1071 b 229 971 374 1071 288 1038 b 122 546 147 874 122 722 b 396 39 122 311 171 92 l 396 11 l 125 11 l 125 39 l 322 39 b 92 546 143 103 92 301 b 206 989 92 742 124 894 b 481 1099 271 1063 363 1099 z "},"㏀":{"ha":1333,"x_min":0,"x_max":0,"o":"m 942 1099 b 1151 989 1031 1099 1104 1058 b 1239 546 1211 894 1239 736 b 1063 39 1239 313 1193 108 l 1214 39 l 1214 11 l 1001 11 l 1001 38 b 1207 546 1171 90 1207 310 b 1126 972 1207 718 1185 875 b 942 1071 1083 1038 1018 1071 b 757 972 863 1071 800 1039 b 676 546 696 875 676 722 b 882 38 676 310 714 90 l 882 11 l 671 11 l 671 39 l 821 39 b 646 546 692 108 646 313 b 731 989 646 742 669 894 b 942 1099 781 1063 850 1099 z m 167 11 l 136 11 l 136 1081 l 167 1081 l 167 424 l 271 424 l 535 775 l 571 775 l 299 410 l 599 11 l 563 11 l 271 396 l 167 396 z "},"㏁":{"ha":1333,"x_min":0,"x_max":0,"o":"m 397 11 l 365 11 l 101 969 l 101 11 l 71 11 l 71 1081 l 101 1081 l 382 64 l 661 1081 l 693 1081 l 693 11 l 661 11 l 661 969 z m 1025 1099 b 1196 989 1100 1099 1158 1058 b 1265 546 1246 896 1265 739 b 1124 39 1265 308 1228 108 l 1244 39 l 1244 11 l 1069 11 l 1069 38 b 1235 546 1206 90 1235 310 b 1169 971 1235 719 1219 874 b 1025 1071 1136 1036 1085 1071 b 882 971 967 1071 915 1036 b 817 546 832 874 817 719 b 982 38 817 310 846 90 l 982 11 l 807 11 l 807 39 l 928 39 b 786 546 824 108 786 308 b 854 989 786 742 804 894 b 1025 1099 893 1063 950 1099 z "},"㎊":{"ha":1333,"x_min":0,"x_max":0,"o":"m 629 393 b 378 -7 629 144 551 -7 b 156 174 261 -7 188 50 l 156 -321 l 125 -321 l 125 775 l 156 775 l 156 613 b 378 793 190 724 267 793 b 629 393 551 793 629 642 z m 600 393 b 378 765 600 633 531 765 b 156 393 224 765 156 633 b 378 21 156 153 224 21 b 600 393 531 21 600 153 z m 774 11 l 774 1081 l 1265 1081 l 1265 1053 l 804 1053 l 804 557 l 1232 557 l 1232 529 l 804 529 l 804 11 z "},"㎋":{"ha":1333,"x_min":0,"x_max":0,"o":"m 774 11 l 774 1081 l 1265 1081 l 1265 1053 l 804 1053 l 804 557 l 1232 557 l 1232 529 l 804 529 l 804 11 z m 144 11 l 114 11 l 114 775 l 144 775 l 144 581 b 382 793 182 717 267 793 b 594 479 517 793 594 678 l 594 11 l 564 11 l 564 479 b 379 765 564 664 500 765 b 144 399 247 765 150 632 z "},"㎌":{"ha":1333,"x_min":0,"x_max":0,"o":"m 774 11 l 774 1081 l 1265 1081 l 1265 1053 l 804 1053 l 804 557 l 1232 557 l 1232 529 l 804 529 l 804 11 z m 140 775 l 140 307 b 326 21 140 122 206 21 b 560 406 461 21 560 161 l 560 775 l 590 775 l 590 11 l 560 11 l 560 206 b 322 -7 522 69 438 -7 b 140 126 238 -7 172 36 l 140 -321 l 110 -321 l 110 775 z "},"㏖":{"ha":1333,"x_min":0,"x_max":0,"o":"m 556 11 l 556 524 b 461 765 556 683 521 765 b 344 376 394 765 344 626 l 344 11 l 314 11 l 314 524 b 218 765 314 683 279 765 b 101 376 153 765 101 626 l 101 11 l 71 11 l 71 775 l 101 775 l 101 642 b 219 793 125 738 165 793 b 339 622 282 793 325 740 b 461 793 361 729 404 793 b 586 531 540 793 586 701 l 586 11 z m 1089 393 b 894 -7 1089 144 1031 -7 b 700 393 758 -7 700 144 b 894 793 700 642 758 793 b 1089 393 1031 793 1089 642 z m 1057 393 b 894 765 1057 633 1007 765 b 731 393 782 765 731 633 b 894 21 731 153 782 21 b 1057 393 1007 21 1057 153 z m 1235 11 l 1204 11 l 1204 1081 l 1235 1081 z "},"㏅":{"ha":1333,"x_min":0,"x_max":0,"o":"m 101 393 b 353 793 101 642 179 793 b 594 539 496 793 578 697 l 565 539 b 353 765 549 681 478 765 b 132 393 200 765 132 633 b 353 21 132 153 200 21 b 565 247 478 21 549 106 l 594 247 b 353 -7 578 89 496 -7 b 101 393 179 -7 101 144 z m 719 393 b 953 793 719 642 792 793 b 1158 626 1054 793 1125 733 l 1158 1081 l 1189 1081 l 1189 11 l 1158 11 l 1158 160 b 953 -7 1125 53 1054 -7 b 719 393 792 -7 719 144 z m 1158 393 b 953 765 1158 633 1094 765 b 750 393 814 765 750 633 b 953 21 750 153 814 21 b 1158 393 1094 21 1158 153 z "},"㎭":{"ha":1333,"x_min":0,"x_max":0,"o":"m 742 236 b 582 451 742 365 692 451 b 424 236 474 451 424 365 b 582 21 424 106 474 21 b 742 236 692 21 742 106 z m 772 519 l 772 117 b 786 11 772 76 778 40 l 756 11 b 742 92 749 33 743 64 b 581 -7 715 32 658 -7 b 393 236 458 -7 393 89 b 581 479 393 382 458 479 b 742 379 661 479 715 444 l 742 525 b 592 765 742 668 692 765 b 444 563 496 765 453 685 l 414 563 b 592 793 424 699 478 793 b 772 519 707 793 772 685 z m 883 393 b 1064 793 883 647 940 793 b 1215 650 1138 793 1190 747 l 1215 1081 l 1247 1081 l 1247 11 l 1215 11 l 1215 136 b 1064 -7 1189 49 1133 -7 b 883 393 940 -7 883 139 z m 1215 393 b 1064 765 1215 633 1168 765 b 914 393 960 765 914 633 b 1064 21 914 153 960 21 b 1215 393 1168 21 1215 153 z m 303 764 b 110 393 189 764 110 653 l 110 11 l 79 11 l 79 775 l 110 775 l 110 606 b 301 793 138 721 213 793 b 344 789 317 793 332 792 l 344 758 b 303 764 332 763 315 764 z "},"㎮":{"ha":1333,"x_min":0,"x_max":0,"o":"m 1229 256 l 1229 232 l 1200 232 l 1200 256 b 1068 332 1200 300 1151 332 b 936 254 986 332 936 300 b 1049 176 936 210 978 188 b 1119 165 1071 172 1097 169 b 1247 60 1204 151 1247 118 b 1075 -54 1247 -10 1176 -54 b 904 60 975 -54 904 -10 l 904 81 l 933 81 l 933 60 b 1075 -26 933 6 994 -26 b 1218 60 1157 -26 1218 6 b 1111 139 1218 100 1175 128 b 1040 150 1090 143 1060 147 b 907 256 944 164 907 194 b 1068 360 907 313 963 360 b 1229 256 1174 360 1229 313 z m 606 683 b 481 783 606 743 567 783 b 357 683 396 783 357 743 b 481 582 357 622 396 582 b 606 683 567 582 606 622 z m 636 825 l 636 624 b 651 564 636 604 642 583 l 619 564 b 607 606 613 574 608 593 b 479 554 582 575 538 554 b 326 683 381 554 326 606 b 479 811 326 760 381 811 b 606 763 540 811 582 793 l 606 828 b 489 940 606 894 567 940 b 374 839 414 940 381 900 l 342 839 b 489 968 350 915 396 968 b 636 825 582 968 636 911 z m 719 761 b 867 968 719 893 767 968 b 985 900 919 968 963 942 l 985 1113 l 1015 1113 l 1015 564 l 985 564 l 985 625 b 867 554 963 582 918 554 b 719 761 767 554 719 631 z m 985 761 b 867 940 985 878 949 940 b 749 761 785 940 749 878 b 867 582 749 646 785 582 b 985 761 949 582 985 646 z m 257 940 b 106 761 168 940 106 886 l 106 564 l 76 564 l 76 960 l 106 960 l 106 883 b 257 968 133 932 192 968 b 293 967 269 968 283 968 l 293 938 b 257 940 283 939 271 940 z m 1261 557 l 101 81 l 92 107 l 1251 581 z "},"㎯":{"ha":1333,"x_min":0,"x_max":0,"o":"m 1314 408 b 1292 354 1314 390 1307 372 l 1226 281 l 1317 281 l 1317 256 l 1185 256 l 1185 275 l 1269 372 b 1286 408 1279 383 1286 396 b 1247 449 1286 432 1272 449 b 1210 407 1224 449 1210 431 l 1210 392 l 1182 392 l 1182 408 b 1247 474 1182 442 1203 474 b 1314 408 1292 474 1314 442 z m 1132 256 l 1132 232 l 1103 232 l 1103 256 b 971 332 1103 300 1054 332 b 839 254 889 332 839 300 b 951 176 839 210 881 188 b 1022 165 974 172 1000 169 b 1150 60 1107 151 1150 118 b 978 -54 1150 -10 1079 -54 b 807 60 878 -54 807 -10 l 807 81 l 836 81 l 836 60 b 978 -26 836 6 897 -26 b 1121 60 1060 -26 1121 6 b 1014 139 1121 100 1078 128 b 943 150 993 143 963 147 b 810 256 847 164 810 194 b 971 360 810 313 865 360 b 1132 256 1076 360 1132 313 z m 592 683 b 467 783 592 743 553 783 b 343 683 382 783 343 743 b 467 582 343 622 382 582 b 592 683 553 582 592 622 z m 622 825 l 622 624 b 638 564 622 604 628 583 l 606 564 b 593 606 599 574 594 593 b 465 554 568 575 524 554 b 313 683 367 554 313 606 b 465 811 313 760 367 811 b 592 763 526 811 568 793 l 592 828 b 475 940 592 894 553 940 b 360 839 400 940 367 900 l 328 839 b 475 968 336 915 382 968 b 622 825 568 968 622 911 z m 706 761 b 853 968 706 893 753 968 b 971 900 906 968 949 942 l 971 1113 l 1001 1113 l 1001 564 l 971 564 l 971 625 b 853 554 949 582 904 554 b 706 761 753 554 706 631 z m 971 761 b 853 940 971 878 935 940 b 735 761 771 940 735 878 b 853 582 735 646 771 582 b 971 761 935 582 971 646 z m 243 940 b 92 761 154 940 92 886 l 92 564 l 63 564 l 63 960 l 92 960 l 92 883 b 243 968 119 932 178 968 b 279 967 256 968 269 968 l 279 938 b 243 940 269 939 257 940 z m 1247 557 l 88 81 l 78 107 l 1238 581 z "},"㏛":{"ha":1333,"x_min":0,"x_max":0,"o":"m 619 597 l 619 565 l 589 565 l 589 597 b 408 765 589 694 524 765 b 228 596 294 765 228 694 b 382 426 228 499 274 453 b 478 404 414 419 446 411 b 643 206 600 375 643 313 b 419 -7 643 75 549 -7 b 194 206 290 -7 194 75 l 194 235 l 225 235 l 225 206 b 419 21 225 90 307 21 b 613 206 531 21 613 90 b 467 378 613 301 574 351 b 371 400 435 385 403 393 b 199 597 249 429 199 489 b 408 793 199 704 274 793 b 619 597 544 793 619 704 z m 1097 764 b 853 393 946 764 853 653 l 853 11 l 822 11 l 822 775 l 853 775 l 853 572 b 1096 793 881 724 971 793 b 1147 789 1117 793 1138 792 l 1147 760 b 1097 764 1136 763 1115 764 z "},"㎩":{"ha":1333,"x_min":0,"x_max":0,"o":"m 153 469 l 414 469 b 647 761 567 469 647 581 b 414 1053 647 942 567 1053 l 153 1053 z m 411 442 l 153 442 l 153 11 l 122 11 l 122 1081 l 411 1081 b 678 761 593 1081 678 953 b 411 442 678 571 593 442 z m 1189 236 b 974 451 1189 365 1118 451 b 760 236 831 451 760 365 b 974 21 760 106 831 21 b 1189 236 1118 21 1189 106 z m 1221 519 l 1221 117 b 1239 11 1221 76 1228 40 l 1206 11 b 1189 103 1196 33 1189 72 l 1189 104 b 972 -7 1156 35 1083 -7 b 729 236 811 -7 729 89 b 972 479 729 382 811 479 b 1189 369 1081 479 1154 436 l 1189 525 b 988 765 1189 668 1118 765 b 788 563 860 765 799 685 l 757 563 b 988 793 768 699 838 793 b 1221 519 1139 793 1221 685 z "},"㎪":{"ha":1333,"x_min":0,"x_max":0,"o":"m 546 469 l 710 469 b 856 761 806 469 856 581 b 710 1053 856 942 806 1053 l 546 1053 z m 708 442 l 546 442 l 546 11 l 515 11 l 515 1081 l 708 1081 b 888 761 831 1081 888 953 b 708 442 888 571 831 442 z m 1213 236 b 1078 451 1213 365 1168 451 b 944 236 989 451 944 365 b 1078 21 944 106 989 21 b 1213 236 1168 21 1213 106 z m 1244 519 l 1244 117 b 1256 11 1244 76 1249 40 l 1224 11 b 1213 76 1218 28 1214 51 b 1076 -7 1188 22 1143 -7 b 914 236 968 -7 914 89 b 1076 479 914 382 968 479 b 1213 397 1140 479 1186 447 l 1213 525 b 1088 765 1213 668 1168 765 b 963 563 1008 765 969 685 l 932 563 b 1088 793 939 699 985 793 b 1244 519 1189 793 1244 685 z m 125 11 l 93 11 l 93 1081 l 125 1081 l 125 424 l 193 424 l 396 775 l 429 775 l 219 410 l 451 11 l 418 11 l 193 396 l 125 396 z "},"㎫":{"ha":1333,"x_min":0,"x_max":0,"o":"m 649 469 l 786 469 b 908 761 865 469 908 581 b 786 1053 908 942 865 1053 l 649 1053 z m 785 442 l 649 442 l 649 11 l 618 11 l 618 1081 l 785 1081 b 940 761 890 1081 940 953 b 785 442 940 571 890 442 z m 1238 236 b 1124 451 1238 365 1199 451 b 1011 236 1050 451 1011 365 b 1124 21 1011 106 1050 21 b 1238 236 1199 21 1238 106 z m 1268 519 l 1268 117 b 1278 11 1268 76 1272 40 l 1246 11 b 1238 68 1242 26 1238 44 b 1122 -7 1215 21 1176 -7 b 982 236 1029 -7 982 89 b 1122 479 982 382 1029 479 b 1238 404 1175 479 1214 450 l 1238 525 b 1132 765 1238 668 1199 765 b 1028 563 1067 765 1033 685 l 997 563 b 1132 793 1003 699 1043 793 b 1268 519 1219 793 1268 685 z m 299 11 l 265 11 l 85 931 l 85 11 l 54 11 l 54 1081 l 85 1081 l 282 81 l 479 1081 l 510 1081 l 510 11 l 479 11 l 479 931 z "},"㎬":{"ha":1333,"x_min":0,"x_max":0,"o":"m 642 469 l 779 469 b 901 761 858 469 901 581 b 779 1053 901 942 858 1053 l 642 1053 z m 778 442 l 642 442 l 642 11 l 611 11 l 611 1081 l 778 1081 b 933 761 883 1081 933 953 b 778 442 933 571 883 442 z m 1231 236 b 1117 451 1231 365 1192 451 b 1004 236 1043 451 1004 365 b 1117 21 1004 106 1043 21 b 1231 236 1192 21 1231 106 z m 1261 519 l 1261 117 b 1271 11 1261 76 1265 40 l 1239 11 b 1231 68 1235 26 1231 44 b 1115 -7 1208 21 1169 -7 b 975 236 1022 -7 975 89 b 1115 479 975 382 1022 479 b 1231 404 1168 479 1207 450 l 1231 525 b 1125 765 1231 668 1192 765 b 1021 563 1060 765 1026 685 l 990 563 b 1125 793 996 699 1036 793 b 1261 519 1213 793 1261 685 z m 78 546 b 135 989 78 739 93 896 b 279 1099 165 1057 218 1099 b 474 739 397 1099 467 961 l 444 739 b 279 1071 438 939 383 1071 b 160 971 231 1071 188 1035 b 107 546 118 875 107 719 b 160 121 107 372 119 215 b 279 21 188 57 231 21 b 399 121 328 21 368 53 b 447 414 425 181 447 290 l 447 503 l 276 503 l 276 531 l 476 531 l 476 11 l 447 11 l 447 178 b 425 104 442 153 435 126 b 279 -7 390 28 343 -7 b 135 103 218 -7 165 35 b 78 546 93 196 78 353 z "},"㏝":{"ha":1333,"x_min":0,"x_max":0,"o":"m 1253 393 b 1031 -7 1253 144 1183 -7 b 838 160 935 -7 868 53 l 838 11 l 807 11 l 807 1081 l 838 1081 l 838 626 b 1031 793 868 733 935 793 b 1253 393 1183 793 1253 642 z m 1222 393 b 1031 765 1222 633 1163 765 b 838 393 897 765 838 633 b 1031 21 838 153 897 21 b 1222 393 1163 21 1222 153 z m 350 1081 l 378 1081 l 535 113 l 674 1081 l 707 1081 l 549 11 l 519 11 l 364 982 l 208 11 l 181 11 l 22 1081 l 54 1081 l 194 114 z "},"㏐":{"ha":1333,"x_min":0,"x_max":0,"o":"m 1158 11 l 1158 524 b 1014 765 1158 683 1107 765 b 836 376 915 765 836 626 l 836 11 l 806 11 l 806 524 b 661 765 806 683 754 765 b 483 376 563 765 483 626 l 483 11 l 453 11 l 453 775 l 483 775 l 483 596 b 663 793 514 721 575 793 b 833 590 757 793 819 722 b 1015 793 861 718 928 793 b 1189 531 1125 793 1189 701 l 1189 11 z m 218 11 l 188 11 l 188 1081 l 218 1081 z "},"㏓":{"ha":1333,"x_min":0,"x_max":0,"o":"m 274 11 l 243 11 l 243 1081 l 274 1081 z m 1096 11 l 811 376 l 528 11 l 488 11 l 792 403 l 503 775 l 543 775 l 811 428 l 1081 775 l 1119 775 l 831 403 l 1135 11 z "},"㏃":{"ha":1333,"x_min":0,"x_max":0,"o":"m 763 393 b 983 793 763 642 831 793 b 1178 626 1081 793 1146 733 l 1178 775 l 1207 775 l 1207 -321 l 1178 -321 l 1178 160 b 983 -7 1146 53 1081 -7 b 763 393 831 -7 763 144 z m 1178 393 b 983 765 1178 633 1117 765 b 792 393 851 765 792 633 b 983 21 792 153 851 21 b 1178 393 1117 21 1178 153 z m 169 574 l 403 574 b 589 813 533 574 589 664 b 403 1053 589 963 533 1053 l 169 1053 z m 407 11 l 139 11 l 139 1081 l 407 1081 b 618 815 550 1081 618 979 b 485 561 618 667 563 588 b 640 292 588 535 640 446 b 407 11 640 96 560 11 z m 610 292 b 403 546 610 449 558 546 l 169 546 l 169 39 l 403 39 b 610 292 558 39 610 136 z "},"㏉":{"ha":1333,"x_min":0,"x_max":0,"o":"m 113 546 b 193 989 113 739 136 894 b 389 1099 238 1061 306 1099 b 657 739 551 1099 647 961 l 628 739 b 389 1071 617 939 539 1071 b 218 971 318 1071 257 1036 b 143 546 160 874 143 719 b 218 121 143 369 160 217 b 389 21 258 54 317 21 b 563 121 458 21 519 53 b 631 414 600 179 631 292 l 631 503 l 390 503 l 390 531 l 661 531 l 661 11 l 631 11 l 631 210 b 588 104 622 175 608 138 b 389 -7 540 28 475 -7 b 193 103 306 -7 238 31 b 113 546 136 197 113 353 z m 946 -187 l 1003 10 l 779 775 l 813 775 l 1018 63 l 1225 775 l 1257 775 l 974 -196 b 851 -321 942 -304 913 -321 b 831 -319 838 -321 838 -321 l 831 -293 l 849 -293 b 946 -187 897 -293 921 -275 z "},"㏜":{"ha":1333,"x_min":0,"x_max":0,"o":"m 390 21 b 639 279 550 21 639 135 b 428 539 639 407 578 501 b 318 565 392 549 354 557 b 114 828 186 597 114 686 b 375 1099 114 979 206 1099 b 638 828 544 1099 638 982 l 638 797 l 607 797 l 607 828 b 375 1071 607 972 522 1071 b 143 828 229 1071 143 972 b 324 593 143 700 211 622 b 435 565 358 585 400 574 b 669 279 599 525 669 425 b 390 -7 669 125 576 -7 b 114 279 206 -7 114 125 l 114 317 l 143 317 l 143 279 b 390 21 143 135 232 21 z m 965 11 l 710 775 l 743 775 l 981 61 l 1219 775 l 1253 775 l 996 11 z "},"㏆":{"ha":1333,"x_min":0,"x_max":0,"o":"m 63 840 b 121 1067 63 940 78 1018 b 264 1124 154 1104 201 1124 b 458 931 382 1124 450 1050 l 429 931 b 264 1096 422 1031 368 1096 b 143 1049 215 1096 169 1079 b 92 840 104 1003 92 926 b 143 632 92 756 104 678 b 264 585 169 601 215 585 b 429 751 368 585 422 651 l 458 751 b 264 557 450 632 382 557 b 121 615 203 557 154 576 b 63 840 78 664 63 742 z m 658 11 l 629 11 l 629 560 l 658 560 l 658 231 l 714 231 l 864 407 l 900 407 l 740 217 l 917 11 l 881 11 l 714 203 l 658 203 z m 1214 208 b 1092 388 1214 325 1176 388 b 972 208 1010 388 972 325 b 1092 29 972 93 1010 29 b 1214 208 1176 29 1214 93 z m 964 -43 l 994 -43 b 1103 -139 1001 -100 1042 -139 b 1214 -10 1172 -139 1214 -90 l 1214 69 b 1092 1 1190 25 1149 1 b 942 208 989 1 942 81 b 1092 415 942 338 989 415 b 1214 347 1149 415 1190 392 l 1214 407 l 1243 407 l 1243 -10 b 1103 -167 1243 -103 1196 -167 b 964 -43 1019 -167 974 -114 z m 71 28 l 900 1071 l 924 1053 l 94 8 z "},"Æ":{"ha":1301,"x_min":0,"x_max":0,"o":"m 635 1081 l 1231 1081 l 1231 1053 l 678 1053 l 678 574 l 1175 574 l 1175 546 l 678 546 l 678 39 l 1238 39 l 1238 11 l 647 11 l 647 304 l 201 304 l 26 11 l -7 11 z m 218 332 l 647 332 l 647 1047 z "},"Ð":{"ha":960,"x_min":0,"x_max":0,"o":"m 15 532 l 15 560 l 128 560 l 128 1081 l 478 1081 b 753 972 597 1081 689 1046 b 868 546 838 876 868 724 b 753 119 868 368 838 215 b 478 11 689 46 597 11 l 128 11 l 128 532 z m 478 1053 l 158 1053 l 158 560 l 419 560 l 419 532 l 158 532 l 158 39 l 478 39 b 731 139 585 39 674 72 b 838 546 811 236 838 389 b 731 953 838 703 811 856 b 478 1053 674 1019 585 1053 z "},"ª":{"ha":596,"x_min":0,"x_max":0,"o":"m 288 506 b 72 683 156 506 72 567 b 288 861 72 800 156 861 b 472 772 374 861 446 832 l 472 910 b 301 1065 472 1001 418 1065 b 131 922 183 1065 135 1003 l 99 922 b 301 1093 104 1014 163 1093 b 503 910 440 1093 503 1013 l 503 597 b 515 519 503 569 508 539 l 483 519 b 472 581 476 535 472 561 l 472 594 b 288 506 446 535 374 506 z m 288 533 b 472 683 408 533 472 589 b 288 833 472 778 408 833 b 103 683 167 833 103 778 b 288 533 103 589 167 533 z m 57 358 l 57 386 l 542 386 l 542 358 z "}}}
